<svg width="518" height="65" viewBox="0 0 518 65" fill="none" xmlns="http://www.w3.org/2000/svg">
<g clip-path="url(#clip0_2225_4375)">
<path d="M3.86798 55.7181C3.67489 56.2226 3.24966 56.4923 2.59231 56.527C2.15406 56.5501 1.76337 56.4335 1.42023 56.1768C1.07709 55.9203 0.919896 55.5441 0.948646 55.0482C1.10652 50.755 1.78463 45.3907 2.98297 38.9552C4.23611 32.5169 6.15536 26.7299 8.74074 21.5946C11.3261 16.4591 14.5634 13.7887 18.4529 13.5834C20.8084 13.459 22.0498 14.602 22.1771 17.0123C22.2869 19.094 21.6228 21.601 20.1845 24.5335C16.432 32.5322 11.4884 39.3027 5.35392 44.8452C5.21561 45.347 5.10469 45.8472 5.02116 46.346C4.99241 46.8419 4.93338 47.2845 4.84406 47.6738C4.77499 48.4465 4.69724 49.0548 4.61082 49.4989C6.12697 47.0018 7.3232 45.2082 8.1995 44.1182C9.07292 42.9735 10.0848 42.3707 11.2352 42.31C12.1664 42.2608 12.7575 42.5317 13.0085 43.1227C13.3114 43.6561 13.4916 44.4705 13.5495 45.5661C13.616 46.8261 13.8036 47.7776 14.1121 48.4205C14.4755 49.0604 15.2599 49.3486 16.465 49.285C19.697 49.1144 23.9046 46.0906 29.0875 40.2138C29.3499 39.9802 29.6728 39.8533 30.0562 39.8331C30.4397 39.8129 30.8045 39.9584 31.1504 40.2697C31.4936 40.5262 31.6753 40.8463 31.6955 41.2297C31.7187 41.6679 31.5471 42.0616 31.1811 42.4105C29.2699 44.7087 26.7259 46.9854 23.549 49.2406C20.372 51.4958 17.5236 52.6899 15.0038 52.8229C14.3464 52.8577 13.7121 52.8088 13.1009 52.6762C11.8754 52.3564 11.2107 51.2104 11.1066 49.2383L11.0803 47.1797C11.0485 46.5771 10.8711 46.3393 10.5482 46.4662C9.58245 46.9017 8.45962 48.0047 7.17978 49.7753C5.95183 51.488 4.8479 53.469 3.86798 55.7181ZM5.83315 39.876C7.6608 38.0765 9.59502 35.6947 11.6359 32.7304C13.6738 29.7113 15.3614 26.8207 16.6988 24.0584C18.036 21.296 18.6715 19.2849 18.605 18.0249C18.5789 17.5319 18.452 17.2091 18.2242 17.0562C17.8263 16.8026 17.4904 16.683 17.2165 16.6974C16.0114 16.761 14.6218 18.0155 13.048 20.4607C11.5261 22.8483 10.0922 25.8629 8.74635 29.5046C7.39761 33.0915 6.42655 36.5487 5.83315 39.876Z" fill="#0079D1"/>
<path d="M26.8714 53.4319C25.8941 53.6483 25.1328 53.2765 24.5878 52.3165C23.9879 51.3594 23.747 50.4382 23.865 49.553C24.0177 48.2815 24.4903 46.8283 25.2828 45.1934C26.0726 43.5037 27.0397 42.0518 28.1841 40.8379C29.3833 39.6209 30.5855 38.9807 31.7907 38.9171C33.2697 38.839 34.5514 39.7052 35.6358 41.5156L35.6401 41.5978C36.3033 41.6727 36.7329 42.007 36.9291 42.6009C37.7945 45.4667 39.2954 46.8432 41.4318 46.7304C42.9109 46.6524 44.6551 45.8735 46.6644 44.3942C46.9816 44.1577 47.4573 43.803 48.0914 43.33C48.7776 42.7994 49.3555 42.3019 49.8254 41.8377L51.9312 39.5841C52.7095 38.719 53.3452 38.2734 53.8383 38.2475C54.1669 38.23 54.4769 38.3785 54.7682 38.6927C55.0623 39.0617 55.2209 39.4654 55.2441 39.9036C55.3652 40.1169 55.322 40.339 55.1144 40.5696C54.6042 41.3107 53.9037 42.0893 53.013 42.9054C51.8628 44.0098 50.7082 45.0321 49.5493 45.9722C48.3876 46.8576 47.0614 47.7516 45.571 48.6543C43.9709 49.5627 42.4314 50.056 40.9523 50.1341C38.5968 50.2585 36.7254 49.1488 35.3382 46.8049C33.1736 50.5448 30.3513 52.7538 26.8714 53.4319ZM27.0436 48.8908C27.0639 49.2743 27.2384 49.4574 27.5671 49.44C28.334 49.3995 29.3733 48.7953 30.685 47.6274C32.0485 46.4018 32.9204 45.2297 33.3008 44.1109L33.4478 43.7735L33.0153 43.3844C32.6577 42.854 32.2598 42.6002 31.8216 42.6234C31.2189 42.6552 30.5559 43.1022 29.8323 43.9644C29.1088 44.8266 28.4733 45.7941 27.9256 46.8667C27.378 47.9393 27.084 48.614 27.0436 48.8908Z" fill="#0079D1"/>
<path d="M56.3494 51.2165C55.8074 51.3549 55.4542 51.4285 55.2899 51.4372C54.03 51.5037 53.1001 51.0584 52.5002 50.1013C51.8975 49.0893 51.5526 47.7617 51.4659 46.1183C51.3994 44.8583 51.4683 43.5638 51.6729 42.2346C51.8744 40.8506 52.1496 39.8198 52.4984 39.1422C52.7981 38.5771 53.2219 38.28 53.7697 38.251C54.208 38.2279 54.6001 38.3721 54.9461 38.6834C55.2892 38.9399 55.4724 39.2874 55.4955 39.7256C55.5071 39.9447 55.4394 40.2229 55.2924 40.5603C54.5978 41.9702 54.2939 43.497 54.3806 45.1404C54.4008 45.5239 54.4831 46.0414 54.6274 46.6929C54.9015 47.7223 55.3125 48.2224 55.8602 48.1935C56.2984 48.1704 56.9096 47.781 57.6938 47.0254C59.8356 44.9348 61.4727 42.1292 62.6053 38.6086C62.8964 37.8791 63.398 37.4956 64.1101 37.4579C64.2745 37.4493 64.5239 37.491 64.8583 37.5833C64.8583 37.5833 64.8598 37.6107 64.8627 37.6654C64.9175 37.6626 64.9449 37.6611 64.9449 37.6611L65.2865 37.8903L65.4596 38.0459L65.6413 38.3659L65.7321 38.5259C66.3437 40.7458 67.5534 41.8082 69.3611 41.7127C70.1828 41.6693 70.9656 41.4083 71.7093 40.9295C72.4502 40.396 73.4952 39.3795 74.8443 37.88C75.4208 37.3552 75.9008 37.0826 76.2843 37.0624C76.6678 37.0421 76.9778 37.1905 77.2142 37.5077C77.5025 37.7671 77.6583 38.116 77.6814 38.5542C77.7104 39.1021 77.5432 39.5778 77.18 39.9815C76.0991 41.357 74.7859 42.4974 73.2407 43.4031C71.7474 44.251 70.3159 44.7111 68.9464 44.7834C67.9056 44.8383 67.0738 44.69 66.451 44.3383C65.88 43.929 65.1865 43.279 64.3704 42.3881C63.0763 44.9285 61.8628 46.9152 60.73 48.3484C59.5971 49.7815 58.1369 50.7376 56.3494 51.2165Z" fill="#0079D1"/>
<path d="M77.0206 45.603C77.0206 46.5711 77.9887 46.5711 77.9887 46.5711C78.9568 46.5711 79.9248 46.5711 80.8929 45.603C81.8609 44.635 83.797 44.635 84.7651 43.6669C87.6692 40.7627 90.5734 38.8266 92.5095 36.8905L93.4775 35.9224L94.4456 36.8905C95.4136 36.8905 95.4136 37.8586 95.4136 37.8586C95.4136 37.8586 95.4136 38.8266 94.4456 38.8266C91.5414 41.7308 88.6373 44.635 85.7331 46.5711C82.829 48.5072 79.9248 49.4753 77.9887 49.4753C77.0206 49.4753 76.0526 49.4753 75.0845 48.5072C73.1484 47.5392 73.1484 46.5711 73.1484 44.635C73.1484 43.6669 73.1484 41.7308 74.1165 39.7947C74.1165 38.8266 74.1165 37.8586 75.0845 37.8586C76.0526 36.8905 77.0206 35.9224 77.0206 35.9224C77.9887 35.9224 77.9887 35.9224 78.9568 35.9224C79.9248 35.9224 80.8929 35.9224 81.8609 36.8905C82.829 37.8586 82.829 37.8586 82.829 38.8266C82.829 40.7627 82.829 41.7308 80.8929 42.6989C79.9248 43.6669 79.9248 43.6669 78.9568 44.635C77.9887 44.635 77.0206 43.6669 76.0526 43.6669C76.0526 43.6669 76.0526 43.6669 76.0526 44.635C76.0526 44.635 76.0526 45.603 77.0206 45.603ZM77.9887 40.7627C78.9568 40.7627 78.9568 40.7627 78.9568 40.7627C79.9248 39.7947 79.9248 39.7947 79.9248 38.8266C78.9568 38.8266 78.9568 38.8266 78.9568 38.8266H77.9887C77.9887 39.7947 77.0206 39.7947 77.0206 39.7947L77.9887 40.7627ZM114.775 48.5072C113.807 49.4753 112.839 48.5072 112.839 47.5392C111.871 46.5711 111.871 45.603 111.871 44.635C111.871 43.6669 112.839 41.7308 112.839 40.7627C113.807 38.8266 114.775 37.8586 115.743 35.9224C117.679 34.9544 118.647 33.9863 119.615 33.9863C121.551 33.9863 122.519 34.9544 123.487 36.8905C124.455 36.8905 124.455 36.8905 124.455 37.8586C125.423 40.7627 127.359 41.7308 129.295 41.7308C131.232 41.7308 132.2 40.7627 134.136 39.7947C135.104 39.7947 135.104 38.8266 136.072 38.8266C137.04 37.8586 137.04 37.8586 138.008 36.8905L139.944 34.9544C140.912 33.9863 140.912 33.9863 141.88 33.9863H142.848V34.9544C142.848 35.9224 142.848 35.9224 142.848 35.9224C142.848 36.8905 141.88 37.8586 140.912 37.8586C139.944 39.7947 138.976 40.7627 137.04 41.7308C136.072 42.6989 135.104 42.6989 133.168 43.6669C132.2 44.635 130.264 45.603 129.295 45.603C126.391 45.603 124.455 44.635 123.487 41.7308C121.551 45.603 118.647 48.5072 114.775 48.5072ZM114.775 44.635C114.775 44.635 114.775 44.635 115.743 44.635C116.711 44.635 117.679 44.635 118.647 42.6989C119.615 41.7308 120.583 40.7627 121.551 39.7947V38.8266H120.583C120.583 37.8586 120.583 37.8586 119.615 37.8586C119.615 37.8586 118.647 38.8266 117.679 39.7947C116.711 39.7947 116.711 40.7627 115.743 42.6989C115.743 43.6669 114.775 43.6669 114.775 44.635Z" fill="#0079D1"/>
<path d="M168.015 33.0175C168.015 33.0175 168.015 33.0175 168.983 33.0175H169.951L170.919 33.9855C170.919 34.9536 169.951 34.9536 169.951 34.9536C168.983 36.8897 167.047 37.8578 165.111 39.7939C163.175 41.73 160.27 42.6981 158.334 43.6661C157.366 43.6661 156.398 43.6661 156.398 43.6661C154.462 43.6661 153.494 43.6661 152.526 42.6981C152.526 41.73 151.558 40.7619 151.558 38.8258C150.59 37.8578 150.59 36.8897 150.59 36.8897C150.59 35.9216 149.622 35.9216 149.622 35.9216C148.654 35.9216 148.654 35.9216 148.654 35.9216C147.686 36.8897 146.718 37.8578 144.782 39.7939C143.813 42.6981 141.877 44.6342 141.877 46.5703C140.909 46.5703 140.909 47.5384 139.941 47.5384C139.941 47.5384 138.973 47.5384 138.973 46.5703C138.973 46.5703 138.005 45.6022 138.973 45.6022L139.941 34.9536C139.941 34.9536 139.941 33.9855 140.909 33.9855C140.909 33.9855 140.909 33.9855 141.877 33.9855C141.877 33.0175 142.845 33.9855 142.845 33.9855C142.845 33.9855 143.813 34.9536 142.845 34.9536V39.7939C144.782 36.8897 145.75 34.9536 146.718 33.9855C147.686 33.0175 148.654 32.0494 150.59 32.0494H151.558C152.526 33.0175 152.526 33.0175 153.494 33.9855C153.494 34.9536 153.494 34.9536 153.494 35.9216C153.494 36.8897 153.494 36.8897 153.494 37.8578C154.462 38.8258 154.462 38.8258 154.462 39.7939C154.462 39.7939 154.462 40.7619 155.43 40.7619C155.43 40.7619 156.398 41.73 156.398 40.7619C159.302 40.7619 163.175 38.8258 168.015 33.0175ZM192.216 44.6342C190.28 44.6342 189.312 43.6661 189.312 40.7619C189.312 39.7939 189.312 37.8578 190.28 35.9216C191.248 33.9855 191.248 33.0175 192.216 31.0813C193.184 31.0813 193.184 31.0813 194.152 31.0813C194.152 31.0813 194.152 31.0813 195.12 31.0813V32.0494C195.12 33.0175 195.12 33.0175 195.12 33.0175C194.152 33.9855 194.152 35.9216 193.184 36.8897C192.216 37.8578 192.216 38.8258 192.216 39.7939C192.216 40.7619 192.216 40.7619 193.184 40.7619C193.184 40.7619 193.184 40.7619 194.152 39.7939C194.152 39.7939 195.12 39.7939 195.12 38.8258V37.8578C195.12 36.8897 195.12 35.9216 195.12 35.9216C194.152 35.9216 194.152 34.9536 194.152 34.9536L195.12 33.9855C195.12 33.0175 196.088 33.0175 196.088 33.0175C197.056 33.0175 197.056 33.0175 197.056 33.0175C198.024 33.9855 198.992 34.9536 199.961 34.9536C200.929 35.9216 202.865 35.9216 203.833 35.9216C205.769 35.9216 208.673 33.9855 211.577 31.0813C211.577 30.1133 212.545 30.1133 212.545 30.1133C213.513 30.1133 213.513 30.1133 213.513 30.1133C214.481 31.0813 214.481 31.0813 214.481 31.0813C214.481 32.0494 213.513 33.0175 213.513 33.0175C212.545 34.9536 210.609 35.9216 208.673 36.8897C206.737 37.8578 204.801 38.8258 203.833 38.8258C201.897 38.8258 199.961 38.8258 198.024 37.8578C198.024 38.8258 198.024 38.8258 198.024 39.7939C197.056 40.7619 196.088 41.73 195.12 42.6981C194.152 43.6661 193.184 44.6342 192.216 44.6342Z" fill="#0079D1"/>
<path d="M213.974 40.999C212.823 41.0597 211.841 40.6721 211.028 39.8361C210.212 38.9454 209.775 37.9521 209.717 36.8566C209.674 36.0348 209.77 35.2606 210.007 34.5341C210.295 33.7498 210.741 32.8473 211.346 31.8265C211.75 31.146 212.024 30.6097 212.168 30.2175C212.358 29.6582 212.755 29.3626 213.357 29.3308C213.796 29.3076 214.188 29.4517 214.534 29.763C214.88 30.0744 215.065 30.4492 215.088 30.8874C215.105 31.2161 215.063 31.4656 214.962 31.6356C214.711 32.0883 214.386 32.6823 213.985 33.4176C213.582 34.0981 213.283 34.6906 213.09 35.1953C212.947 35.5874 212.886 36.0026 212.909 36.4408C212.941 37.0434 213.238 37.4672 213.8 37.7121C214.642 38.0522 215.525 37.6211 216.451 36.4186C217.373 35.1614 218.158 33.8841 218.803 32.5865C219.503 31.2861 219.953 30.4382 220.152 30.0433C220.353 29.703 220.588 29.4709 220.857 29.3469C221.177 29.1651 221.504 29.1204 221.838 29.2126C222.282 29.299 222.624 29.5282 222.863 29.9001C223.155 30.2143 223.258 30.6208 223.175 31.1197C222.867 32.5642 222.72 33.9452 222.735 35.2629C222.74 35.3724 222.728 35.6478 222.696 36.0889C222.661 36.4753 222.702 36.7204 222.817 36.8241C223.163 37.1355 223.995 36.7619 225.313 35.7036C226.684 34.6423 228.8 32.5805 231.66 29.5181C231.972 29.172 232.318 28.9889 232.702 28.9686C233.086 28.9484 233.423 29.0954 233.714 29.4096C234.003 29.669 234.159 30.0179 234.182 30.4562C234.199 30.7848 234.081 31.1481 233.827 31.5461C233.316 32.2871 232.251 33.4146 230.627 34.9286C229.005 36.4425 227.373 37.7921 225.733 38.9774C224.144 40.105 222.989 40.6054 222.268 40.4787C221.277 40.4212 220.628 40.0983 220.322 39.5102C220.016 38.9221 219.774 37.9735 219.595 36.6646L218.436 38.1266C216.886 39.9664 215.398 40.9238 213.974 40.999Z" fill="#0079D1"/>
<path d="M246.257 20.0952C247.081 20.1066 247.515 20.5232 247.559 21.3449C247.584 21.8379 247.444 22.2849 247.135 22.6857C246.826 23.0865 246.397 23.2739 245.846 23.2481C243.868 23.2427 242.797 23.2443 242.632 23.2529C241.701 23.3021 240.908 23.3714 240.254 23.461L238.204 23.6516C236.786 26.9675 235.444 29.6203 234.174 31.6099L234.076 32.8512L234.149 34.2481C234.21 35.3984 234.561 36.3138 235.201 36.9941C235.84 37.6744 236.736 37.9842 237.887 37.9235C238.982 37.8656 239.983 37.5656 240.888 37.0234C241.793 36.4813 242.796 35.7142 243.898 34.7221C245.469 33.2659 246.825 31.9033 247.966 30.6345C249.217 29.3599 249.923 28.6635 250.08 28.5453C250.34 28.2569 250.689 28.1012 251.127 28.078C251.511 28.0578 251.848 28.2048 252.14 28.519C252.482 28.7755 252.666 29.123 252.688 29.5612C252.709 29.9446 252.564 30.3094 252.252 30.6555C251.474 31.5206 250.172 32.8802 248.348 34.7344C246.52 36.5338 245.213 37.7839 244.426 38.4847C243.48 39.3037 242.417 39.9915 241.238 40.5481C240.114 41.1018 238.977 41.4091 237.827 41.4699C237.114 41.5074 236.451 41.4326 235.838 41.2453C233.548 40.5422 232.055 38.8081 231.36 36.0432C231.098 35.2332 230.94 34.335 230.888 33.349C230.755 30.8291 231.448 27.8261 232.967 24.3401L228.712 24.8944C228.222 24.9751 227.832 24.8859 227.544 24.6264C227.198 24.3151 227.013 23.9403 226.991 23.502C226.97 23.1186 227.089 22.7827 227.349 22.4943C227.551 22.1541 227.87 21.945 228.304 21.8671C229.608 21.5785 231.623 21.2523 234.351 20.8886L235.466 18.605C236.359 16.7999 237.008 15.5572 237.412 14.8767C237.668 14.5335 238.016 14.3504 238.453 14.3272C238.947 14.3012 239.366 14.4439 239.712 14.7552C240.11 15.0088 240.293 15.3563 240.262 15.7974C240.247 16.5672 239.995 17.5144 239.505 18.6389C239.217 19.4232 239.029 20.0373 238.943 20.4814C240.422 20.4033 241.407 20.3238 241.897 20.243L243.54 20.1562C244.527 20.1042 245.432 20.0839 246.257 20.0952Z" fill="#0079D1"/>
<path d="M251.865 40.9772C250.855 40.5911 250.081 39.9728 249.541 39.1223C249.363 38.8571 249.266 38.5875 249.252 38.3136C249.232 37.9301 249.379 37.5928 249.692 37.3015C250.004 36.9555 250.352 36.7724 250.735 36.7521C251.173 36.729 251.536 36.8471 251.825 37.1065L252.08 37.2578C252.538 37.6181 252.966 37.9252 253.364 38.1788L253.611 38.1658C254.214 38.134 254.58 37.785 254.71 37.119C254.741 36.6779 254.611 36.3002 254.32 35.986C254.083 35.6689 253.682 35.333 253.113 34.9785C252.886 34.8258 252.372 34.4683 251.573 33.9062C250.772 33.2894 250.188 32.6335 249.822 31.9387C249.519 31.4053 249.355 30.9196 249.332 30.4813C249.29 29.6596 249.524 28.9056 250.037 28.2193C250.602 27.4754 251.348 27.0241 252.273 26.8653C252.818 26.7816 253.293 26.9214 253.696 27.2846C254.097 27.593 254.31 27.9938 254.336 28.4868C254.374 29.1989 254.014 29.6574 253.255 29.8622C252.707 29.8912 252.582 30.1175 252.879 30.5413C253.173 30.9103 253.607 31.3268 254.181 31.791C254.755 32.2551 255.156 32.5635 255.384 32.7163C256.297 33.3821 256.969 34.1432 257.399 34.9994C257.774 35.8586 257.967 36.3977 257.979 36.6168C257.993 36.8907 257.93 37.2512 257.789 37.698C261.176 36.3107 265.394 32.9568 270.442 27.6365C270.81 27.3423 271.132 27.188 271.406 27.1736C271.789 27.1533 272.127 27.3003 272.417 27.6145C272.706 27.8739 272.862 28.2228 272.885 28.6611C272.911 29.1541 272.767 29.5462 272.453 29.8375C270.172 32.4298 267.286 34.9719 263.791 37.4635C260.297 39.9552 257.235 41.2704 254.606 41.4093C253.565 41.4642 252.652 41.3202 251.865 40.9772Z" fill="#0079D1"/>
<path d="M271.497 24.2846C270.906 24.5355 270.383 24.5082 269.927 24.2027C269.526 23.8942 269.311 23.4661 269.282 22.9183C269.268 22.6444 269.338 22.3936 269.491 22.1658C269.64 21.8832 269.877 21.6785 270.199 21.5515C270.845 21.2977 271.925 20.9386 273.438 20.4741C273.98 20.3357 274.425 20.422 274.77 20.7333C275.117 21.0447 275.303 21.4469 275.329 21.9399C275.349 22.3234 275.258 22.6852 275.056 23.0255C274.852 23.311 274.559 23.4911 274.179 23.5662C273.8 23.696 273.34 23.8302 272.798 23.9687C272.309 24.0494 271.875 24.1548 271.497 24.2846ZM271.305 39.3739C269.515 38.7543 268.665 37.2335 268.757 34.8116C268.849 32.3897 269.165 30.5876 269.707 29.4054C270.249 28.2232 270.519 27.6047 270.516 27.5499C270.706 26.9906 271.102 26.695 271.705 26.6632C272.253 26.6342 272.704 26.8577 273.059 27.3333C273.465 27.7513 273.575 28.2674 273.388 28.8815L273.167 29.3876C273.173 29.4972 273.149 29.5533 273.094 29.5562C273.048 29.7235 272.836 30.3939 272.459 31.5674C272.078 32.6862 271.914 33.7385 271.966 34.7246C272.024 35.8202 272.519 36.3434 273.45 36.2942C273.887 36.2711 274.402 36.1341 274.994 35.8832C277.087 34.9486 279.21 33.5456 281.363 31.6741C283.569 29.7448 285.556 27.8546 287.326 26.0033C287.485 25.8851 287.701 25.8187 287.975 25.8042C288.358 25.784 288.696 25.9309 288.987 26.2452C289.276 26.5046 289.431 26.8534 289.454 27.2917C289.486 27.8943 289.189 28.5142 288.563 29.1515C286.488 31.4584 283.807 33.7423 280.52 36.0033C277.234 38.2643 274.605 39.4468 272.633 39.551C272.14 39.577 271.697 39.518 271.305 39.3739Z" fill="#0079D1"/>
<path d="M313.828 24.9324C314.088 24.644 314.381 24.4912 314.71 24.4738C315.094 24.4536 315.403 24.602 315.64 24.9191C315.931 25.2334 316.089 25.6096 316.112 26.0478C316.14 26.5956 315.974 27.0714 315.611 27.4751C313.63 29.5023 311.321 31.5469 308.683 33.6088C306.042 35.616 303.472 37.3997 300.973 38.9599C301.102 39.3375 301.19 39.9646 301.237 40.8411C301.369 43.3611 300.759 46.3596 299.404 49.837C298.105 53.3115 296.374 56.4242 294.212 59.1751C292.108 61.9779 290.029 63.7082 287.976 64.3659C287.328 64.565 286.757 64.6775 286.264 64.7035C284.292 64.8076 283.248 63.7641 283.132 61.5729C283.031 59.6555 283.617 57.235 284.891 54.3113C286.11 51.3903 287.85 48.442 290.11 45.4662C292.372 42.5451 294.824 40.081 297.465 38.0738C296.946 37.6068 296.517 37.2724 296.176 37.0707C295.836 36.869 295.447 36.7796 295.008 36.8027C294.187 36.8461 292.881 37.6018 291.091 39.0697L290.857 39.3291C290.646 39.5051 290.377 39.6017 290.048 39.619C289.611 39.6422 289.218 39.4981 288.872 39.1867C288.523 38.8207 288.337 38.4184 288.314 37.9802C288.297 37.6515 288.443 37.3142 288.755 36.9681L289.07 36.7043L289.386 36.4404C290.703 35.382 291.773 34.3093 292.595 33.2222C293.468 32.0775 294.277 30.7439 295.02 29.2214C294.21 29.4839 293.284 29.6426 292.244 29.6976C290.874 29.7699 289.382 29.6014 287.767 29.1922C287.044 29.0107 286.66 28.5092 286.617 27.6874C286.588 27.1397 286.728 26.6653 287.036 26.2645C287.4 25.8608 287.86 25.7541 288.42 25.9442C289.709 26.4255 291.01 26.6314 292.325 26.562C294.024 26.4724 295.612 25.8667 297.091 24.7449C297.356 24.5661 297.598 24.4708 297.818 24.4593C298.31 24.4333 298.733 24.6307 299.085 25.0516C299.489 25.4148 299.621 25.8473 299.483 26.349C298.967 28.0242 298.411 29.4544 297.814 30.6395C297.27 31.7669 296.56 32.903 295.687 34.0477C296.612 33.889 297.476 34.1181 298.278 34.735C299.131 35.2942 299.653 35.8159 299.844 36.3003L302.382 34.4358C304.552 32.893 306.534 31.415 308.328 30.0019C310.118 28.5342 311.951 26.8443 313.828 24.9324ZM295.638 51.8486C296.696 50.035 297.43 48.3208 297.838 46.7061C298.303 45.0886 298.561 43.7565 298.616 42.7098C298.673 41.7181 298.67 41.114 298.603 40.8977C296.686 42.0428 294.747 43.8205 292.787 46.2312C290.826 48.6419 289.2 51.1173 287.906 53.6577C286.67 56.2499 286.09 58.2855 286.168 59.7646C286.194 60.2577 286.325 60.6627 286.562 60.9798C286.801 61.3517 287.085 61.529 287.414 61.5116C288.126 61.474 289.21 60.6752 290.666 59.1152C292.122 57.5551 293.779 55.133 295.638 51.8486Z" fill="#0079D1"/>
<path d="M315.278 33.4261C315.678 33.7345 316.18 33.8728 316.783 33.841C317.276 33.8149 318.168 33.5481 319.459 33.0405C320.693 32.481 322.078 31.6661 323.615 30.5962C326.475 28.5776 328.918 26.471 330.944 24.2765C331.256 23.9305 331.603 23.7473 331.987 23.7271C332.425 23.704 332.817 23.848 333.163 24.1594C333.509 24.4708 333.692 24.8181 333.712 25.2015C333.73 25.5303 333.582 25.8676 333.272 26.2136C330.155 29.6192 327.134 32.2233 324.208 34.0257C321.334 35.7705 318.828 36.6994 316.692 36.8122C315.323 36.8845 314.24 36.6669 313.444 36.1596C312.086 35.4073 311.356 34.0725 311.255 32.1552C311.174 30.6213 311.472 28.9851 312.15 27.2464C312.49 26.4045 312.999 25.636 313.675 24.941C314.35 24.1913 315.092 23.6578 315.898 23.3405C316.383 23.1501 316.899 23.0404 317.447 23.0116C318.652 22.9479 319.693 23.4148 320.57 24.4123C321.097 25.0436 321.38 25.7154 321.417 26.4275C321.487 27.7422 320.922 29.008 319.723 30.225C318.777 31.044 317.977 31.4982 317.323 31.5876L317.076 31.6007C316.309 31.6412 315.529 31.4352 314.736 30.9826C314.639 31.2075 314.597 31.4569 314.611 31.7308C314.651 32.4977 314.874 33.0629 315.278 33.4261ZM316.241 28.2664C316.42 28.5317 316.646 28.657 316.92 28.6425C317.304 28.6223 317.62 28.3858 317.871 27.9331C318.174 27.4228 318.207 27.009 317.971 26.6919C317.907 26.5304 317.738 26.4569 317.464 26.4714C317.19 26.4859 316.947 26.5536 316.733 26.6748C316.143 26.9257 315.854 27.1881 315.869 27.4621C315.878 27.6263 316.002 27.8945 316.241 28.2664Z" fill="#0079D1"/>
<path d="M331.617 39.794H330.649C328.713 39.794 327.745 39.794 326.777 38.8259C325.809 36.8898 325.809 35.9217 325.809 33.9856C325.809 32.0495 325.809 30.1134 327.745 28.1772C328.713 26.2411 330.649 24.305 332.585 23.3369C333.553 23.3369 333.553 23.3369 333.553 23.3369C333.553 22.3689 333.553 22.3689 333.553 21.4008C333.553 20.4328 333.553 19.4647 333.553 18.4967C332.585 16.5605 333.553 13.6564 334.521 9.78411C335.489 6.87993 336.457 4.94381 338.393 3.00769C338.393 2.03964 339.361 1.07158 340.329 1.07158C341.297 0.103516 343.234 0.103516 344.202 0.103516C345.17 0.103516 346.138 0.103516 346.138 1.07158C347.106 1.07158 348.074 2.03964 348.074 3.00769C349.042 3.97575 349.042 5.91187 349.042 6.87993C349.042 8.81605 349.042 11.7202 348.074 13.6564C348.074 15.5925 347.106 17.5286 347.106 18.4967C346.138 20.4328 345.17 21.4008 345.17 21.4008C345.17 22.3689 344.202 25.2731 342.265 28.1772L341.297 29.1453C342.265 30.1134 342.265 30.1134 343.234 30.1134C345.17 30.1134 346.138 29.1453 348.074 28.1772C350.01 27.2092 351.946 25.2731 354.85 23.3369C354.85 22.3689 355.818 22.3689 355.818 22.3689H356.786C356.786 23.3369 356.786 23.3369 357.754 23.3369C357.754 24.305 356.786 25.2731 356.786 25.2731C353.882 28.1772 351.946 30.1134 349.042 32.0495C347.106 33.9856 345.17 33.9856 343.234 33.9856C342.265 33.9856 341.297 33.9856 341.297 33.9856C340.329 33.9856 340.329 33.0175 339.361 33.0175C337.425 35.9217 334.521 38.8259 331.617 39.794ZM338.393 27.2092C340.329 24.305 342.265 21.4008 344.202 16.5605C345.17 12.6883 346.138 8.81605 345.17 5.91187C345.17 4.94381 345.17 4.94381 345.17 3.97575C344.202 3.97575 344.202 3.97575 343.234 3.97575C343.234 3.97575 342.265 3.97575 341.297 3.97575C340.329 4.94381 340.329 4.94381 339.361 5.91187C338.393 7.84799 337.425 9.78411 337.425 12.6883C336.457 14.6244 336.457 17.5286 336.457 19.4647C336.457 20.4328 336.457 21.4008 336.457 21.4008C336.457 22.3689 337.425 23.3369 337.425 24.305C338.393 26.2411 338.393 27.2092 338.393 27.2092ZM328.713 33.9856C328.713 35.9217 329.681 35.9217 329.681 35.9217C330.649 35.9217 331.617 35.9217 332.585 33.9856C334.521 33.0175 335.489 32.0495 335.489 32.0495C336.457 31.0814 336.457 31.0814 336.457 30.1134C336.457 29.1453 335.489 27.2092 334.521 25.2731C334.521 25.2731 333.553 26.2411 332.585 27.2092C331.617 28.1772 330.649 29.1453 329.681 31.0814C328.713 32.0495 328.713 33.0175 328.713 33.9856ZM380.02 18.4967H379.051C378.083 18.4967 378.083 17.5286 378.083 17.5286C378.083 16.5605 378.083 16.5605 378.083 16.5605L379.051 15.5925C380.02 15.5925 380.988 15.5925 381.956 14.6244C382.924 14.6244 382.924 14.6244 383.892 14.6244C383.892 15.5925 383.892 15.5925 383.892 16.5605C383.892 16.5605 383.892 16.5605 383.892 17.5286H382.924L381.956 18.4967C380.988 18.4967 380.988 18.4967 380.02 18.4967ZM380.02 33.9856C378.083 33.0175 377.115 31.0814 377.115 29.1453C377.115 26.2411 378.083 25.2731 378.083 23.3369C379.051 22.3689 379.051 21.4008 379.051 21.4008H380.02C380.988 20.4328 380.988 21.4008 381.956 21.4008C381.956 22.3689 381.956 22.3689 381.956 23.3369C381.956 24.305 381.956 24.305 380.988 26.2411C380.988 27.2092 380.988 28.1772 380.988 29.1453C380.988 30.1134 380.988 31.0814 381.956 30.1134C382.924 30.1134 382.924 30.1134 383.892 30.1134C385.828 29.1453 387.764 28.1772 389.7 26.2411C392.604 24.305 394.54 22.3689 396.476 20.4328C397.444 20.4328 397.444 20.4328 397.444 20.4328C398.413 20.4328 398.413 21.4008 398.413 21.4008C398.413 22.3689 397.444 22.3689 397.444 23.3369C395.508 25.2731 392.604 28.1772 389.7 30.1134C385.828 32.0495 382.924 33.9856 380.988 33.9856H380.02Z" fill="#0079D1"/>
<path d="M394.96 33.3388C394.59 33.633 394.242 33.7888 393.913 33.8061C393.475 33.8293 393.084 33.7125 392.741 33.456C392.398 33.1994 392.242 32.8506 392.274 32.4095C392.371 30.0971 392.646 28.0227 393.098 26.186C393.496 24.3522 394.196 22.5299 395.2 20.719C395.499 20.1539 395.95 19.8554 396.553 19.8236C397.046 19.7975 397.493 19.9388 397.894 20.2472C398.292 20.5008 398.501 20.8194 398.521 21.2029C398.533 21.422 398.463 21.6729 398.313 21.9554C397.313 23.821 396.566 25.7831 396.07 27.8418L402.872 20.8908C403.131 20.6024 403.48 20.4466 403.918 20.4235C404.357 20.4003 404.721 20.5459 405.012 20.8602C405.359 21.1715 405.545 21.5736 405.571 22.0667C405.588 22.3953 405.493 23.1969 405.285 24.4713C405.133 25.7429 405.195 26.3987 405.472 26.4391C405.694 26.4823 406.164 26.018 406.882 25.0463C407.599 24.0745 408.036 23.5021 408.191 23.3291C408.872 22.6889 409.424 22.2203 409.848 21.9233C410.327 21.6233 410.865 21.4301 411.465 21.3434C412.232 21.303 412.933 21.5681 413.567 22.1389C414.029 22.554 414.382 23.0023 414.627 23.4837C414.872 23.9652 415.061 24.4221 415.194 24.8546C415.387 25.3937 415.572 25.7685 415.748 25.979C415.92 26.1346 416.223 26.1461 416.656 26.0134C417.143 25.8778 417.856 25.3458 418.796 24.4172C419.736 23.4886 420.648 22.5615 421.533 21.6359L423.722 19.378C424.085 18.9743 424.457 18.7623 424.841 18.7421C425.225 18.7218 425.535 18.8702 425.771 19.1874C426.06 19.4468 426.215 19.7957 426.239 20.2339C426.259 20.6174 426.116 21.0368 425.811 21.4925C425.453 22.0058 424.539 22.9055 423.069 24.1917C421.654 25.4749 420.151 26.6529 418.559 27.7257C416.965 28.7438 415.674 29.2788 414.689 29.3309C414.086 29.3626 413.665 29.1926 413.426 28.8207C413.246 28.5555 413.061 28.1533 412.867 27.6142C412.729 27.0722 412.568 26.6137 412.383 26.239C412.253 25.8614 412.048 25.625 411.768 25.5298C411.267 25.3916 410.778 25.4997 410.303 25.8544C409.827 26.2092 409.357 26.6734 408.893 27.2472C408.428 27.8211 408.067 28.2522 407.808 28.5406C406.977 29.4633 406.352 30.1006 405.931 30.4524C405.51 30.8043 404.943 30.9989 404.231 31.0365C403.793 31.0596 403.463 31.0497 403.241 31.0064C402.91 30.969 402.627 30.8191 402.394 30.5567C402.215 30.2916 402.088 29.9686 402.012 29.5881L401.97 28.7664C401.941 28.2186 401.951 27.394 402.004 26.2926L394.96 33.3388Z" fill="#0079D1"/>
<path d="M418.246 56.4992C417.955 57.2287 417.481 57.6108 416.824 57.6455C416.33 57.6715 415.909 57.5015 415.561 57.1354C415.214 56.8241 415.081 56.3642 415.158 55.7558C415.734 51.0561 416.897 44.9796 418.645 37.5262C420.339 30.0757 421.947 24.113 423.469 19.638C423.708 18.9662 424.211 18.61 424.978 18.5695C425.526 18.5406 425.974 18.7092 426.324 19.0754C426.669 19.3867 426.746 19.7946 426.553 20.2992C425.55 23.1537 424.525 26.6411 423.479 30.7614C424.724 28.3336 426.012 26.1781 427.34 24.2952C428.666 22.3575 430.1 20.9084 431.643 19.9481C432.496 19.4635 433.306 19.201 434.073 19.1605C435.059 19.1085 435.926 19.3923 436.672 20.0121C437.419 20.6319 437.826 21.5717 437.893 22.8317C437.976 24.4203 437.324 26.1028 435.934 27.8791C439.1 27.4921 442.072 26.5662 444.851 25.101C447.686 23.6331 450.659 21.1689 453.773 17.7085C454.032 17.4202 454.325 17.2673 454.655 17.2499C455.038 17.2296 455.375 17.3767 455.666 17.6909C456.013 18.0023 456.197 18.377 456.22 18.8152C456.243 19.2535 456.099 19.6456 455.788 19.9917C451.582 24.6084 447.19 27.7792 442.612 29.5041C440.62 30.2684 438.533 30.7906 436.35 31.0707C436.076 31.0852 435.721 31.1314 435.286 31.2093C434.905 31.2843 434.469 31.3348 433.976 31.3608C432.277 31.4505 431.396 30.8927 431.333 29.6876C431.258 29.307 431.323 28.974 431.528 28.6885C431.729 28.3483 431.96 28.034 432.219 27.7456C432.478 27.4572 432.658 27.228 432.76 27.0579C433.123 26.6542 433.4 26.1726 433.59 25.6132C433.779 25.0539 433.755 24.5883 433.516 24.2163C433.452 24.0549 433.31 23.9525 433.088 23.9094C432.918 23.8085 432.752 23.7897 432.591 23.8532C432.317 23.8676 432.024 24.0479 431.713 24.394C431.188 24.8612 430.823 25.2374 430.619 25.5229C429.172 27.2473 427.647 29.5801 426.044 32.5212C425.096 34.3291 424.057 37.0208 422.928 40.5961C421.852 44.1686 420.571 48.521 419.084 53.6534L418.246 56.4992Z" fill="#0079D1"/>
<path d="M451.442 31.0159C450.464 31.2323 449.704 30.8606 449.159 29.9005C448.558 28.9434 448.317 28.0222 448.435 27.1371C448.588 25.8656 449.061 24.4123 449.854 22.7775C450.644 21.0877 451.611 19.6359 452.755 18.4219C453.954 17.205 455.156 16.5647 456.361 16.501C457.84 16.423 459.122 17.2891 460.206 19.0997L460.211 19.1818C460.874 19.2567 461.304 19.5911 461.499 20.185C462.365 23.0507 463.866 24.4272 466.003 24.3144C467.482 24.2363 469.225 23.4576 471.235 21.9781C471.552 21.7417 472.028 21.387 472.662 20.914C473.348 20.3834 473.926 19.886 474.396 19.4217L476.502 17.1681C477.28 16.3031 477.915 15.8575 478.409 15.8314C478.737 15.8141 479.047 15.9625 479.339 16.2767C479.633 16.6458 479.792 17.0494 479.815 17.4876C479.936 17.701 479.892 17.9229 479.685 18.1536C479.175 18.8948 478.474 19.6733 477.583 20.4894C476.433 21.5938 475.279 22.6162 474.12 23.5563C472.958 24.4416 471.632 25.3356 470.142 26.2383C468.542 27.1468 467.002 27.64 465.522 27.7181C463.167 27.8425 461.296 26.7328 459.909 24.389C457.744 28.1288 454.922 30.3378 451.442 31.0159ZM451.614 26.4749C451.635 26.8583 451.809 27.0414 452.137 27.024C452.905 26.9836 453.944 26.3793 455.255 25.2115C456.619 23.9859 457.491 22.8137 457.871 21.695L458.018 21.3576L457.585 20.9684C457.228 20.4379 456.83 20.1843 456.392 20.2075C455.79 20.2392 455.127 20.6863 454.402 21.5484C453.679 22.4107 453.043 23.378 452.496 24.4508C451.948 25.5234 451.654 26.1981 451.614 26.4749Z" fill="#0079D1"/>
<path d="M474.428 27.5771C473.447 26.695 472.922 25.5966 472.853 24.2819C472.783 22.9671 473.124 21.6033 473.873 20.1904C474.619 18.7227 475.572 17.5188 476.731 16.5787C477.942 15.581 479.15 15.0502 480.355 14.9866C481.834 14.9085 482.985 15.397 483.81 16.4521C484.044 16.7145 484.171 17.0374 484.191 17.4209C484.22 17.9687 484.03 18.528 483.62 19.099C483.209 19.6151 482.783 19.8848 482.345 19.9079C482.016 19.9252 481.735 19.8028 481.501 19.5404C481.153 19.1743 480.732 19.0043 480.239 19.0304C479.417 19.0737 478.595 19.639 477.774 20.726C476.949 21.7583 476.562 22.7402 476.611 23.6714C476.683 25.0409 477.761 25.6708 479.842 25.5608C482.033 25.4451 484.514 24.5726 487.284 22.9431C490.109 21.3107 493.082 18.8191 496.201 15.4684C496.461 15.18 496.809 15.0242 497.248 15.0011C497.685 14.978 498.078 15.1221 498.424 15.4334C498.766 15.69 498.948 16.01 498.969 16.3935C498.983 16.6673 498.863 17.0032 498.61 17.4012C496.235 20.2732 493.131 22.8816 489.3 25.2262C485.523 27.5681 482.157 28.817 479.198 28.9732C477.171 29.0803 475.581 28.6148 474.428 27.5771Z" fill="#0079D1"/>
<path d="M510.823 6.1265C511.648 6.1379 512.082 6.55445 512.125 7.37615C512.151 7.86918 512.01 8.31609 511.701 8.71691C511.393 9.11773 510.963 9.30521 510.413 9.27935C508.435 9.2739 507.363 9.27553 507.2 9.2842C506.268 9.33337 505.476 9.40269 504.82 9.49218L502.771 9.68281C501.353 12.9988 500.01 15.6515 498.742 17.6411L498.642 18.8823L498.716 20.2792C498.777 21.4297 499.127 22.345 499.767 23.0253C500.408 23.7057 501.302 24.0155 502.453 23.9548C503.549 23.8969 504.549 23.5969 505.454 23.0547C506.359 22.5125 507.362 21.7454 508.464 20.7534C510.035 19.2971 511.391 17.9346 512.533 16.6658C513.784 15.3912 514.489 14.6948 514.647 14.5766C514.906 14.2882 515.256 14.1324 515.694 14.1093C516.078 14.0891 516.415 14.236 516.706 14.5503C517.049 14.8068 517.233 15.1542 517.256 15.5925C517.275 15.9759 517.13 16.3407 516.819 16.6867C516.041 17.5518 514.739 18.9115 512.914 20.7656C511.086 22.565 509.78 23.8152 508.993 24.5159C508.047 25.3348 506.985 26.0226 505.806 26.5794C504.681 27.1331 503.543 27.4404 502.393 27.5011C501.681 27.5387 501.018 27.4638 500.404 27.2765C498.115 26.5734 496.622 24.8394 495.927 22.0745C495.664 21.2643 495.507 20.3663 495.455 19.3802C495.322 16.8603 496.015 13.8573 497.534 10.3713L493.278 10.9256C492.788 11.0064 492.399 10.917 492.111 10.6576C491.764 10.3463 491.58 9.97153 491.557 9.53327C491.537 9.14982 491.656 8.8139 491.915 8.52554C492.117 8.18529 492.436 7.9762 492.872 7.89829C494.175 7.60975 496.189 7.28362 498.917 6.91989L500.032 4.63621C500.926 2.83117 501.574 1.58841 501.978 0.907903C502.235 0.56476 502.582 0.381617 503.02 0.358481C503.513 0.332451 503.932 0.475104 504.279 0.786431C504.677 1.04009 504.86 1.38749 504.828 1.82862C504.813 2.59843 504.562 3.54561 504.072 4.67015C503.783 5.45442 503.597 6.06858 503.509 6.51261C504.989 6.43451 505.973 6.35507 506.464 6.27425L508.107 6.18748C509.093 6.13543 509.998 6.1151 510.823 6.1265Z" fill="#0079D1"/>
</g>
<defs>
<clipPath id="clip0_2225_4375">
<rect width="516.94" height="64.86" fill="white" transform="translate(0.542969 0.103516)"/>
</clipPath>
</defs>
</svg>
