<svg width="501" height="500" viewBox="0 0 501 500" fill="none" xmlns="http://www.w3.org/2000/svg">
<path d="M357.883 86.1872C417.364 108.025 447.878 173.947 426.037 233.427C404.196 292.908 338.271 323.422 278.789 301.585C219.308 279.747 188.793 213.826 210.634 154.345C232.476 94.8649 298.401 64.3493 357.883 86.1872Z" fill="#2F363B" stroke="#007AD9" stroke-width="0.532829"/>
<g filter="url(#filter0_f_2346_11094)">
<circle cx="301.209" cy="239.083" r="55.4518" transform="rotate(20.16 301.209 239.083)" fill="url(#paint0_linear_2346_11094)"/>
</g>
<path d="M308.197 268.29L303.822 300.023L303.803 300.159L303.668 300.137L303.667 300.136C303.665 300.136 303.664 300.136 303.662 300.136C303.657 300.135 303.649 300.134 303.64 300.132C303.622 300.129 303.594 300.125 303.558 300.119C303.485 300.107 303.379 300.089 303.241 300.066C302.965 300.019 302.563 299.951 302.063 299.864C301.063 299.69 299.667 299.439 298.083 299.134C294.914 298.525 290.988 297.699 287.97 296.834C284.952 295.968 281.185 294.588 278.175 293.426C276.67 292.845 275.353 292.318 274.413 291.936C273.943 291.745 273.566 291.589 273.307 291.482C273.178 291.429 273.078 291.388 273.01 291.36C272.977 291.346 272.951 291.335 272.933 291.327C272.925 291.324 272.918 291.321 272.913 291.319C272.911 291.318 272.91 291.317 272.909 291.316L272.907 291.316L272.781 291.263L272.837 291.138L285.992 261.966L286.046 261.848L286.166 261.899L286.17 261.901C286.173 261.902 286.177 261.904 286.183 261.906C286.195 261.911 286.213 261.919 286.236 261.928C286.281 261.948 286.349 261.977 286.437 262.014C286.613 262.089 286.87 262.196 287.192 262.33C287.837 262.597 288.745 262.966 289.797 263.377C291.903 264.2 294.584 265.187 296.89 265.849C299.204 266.513 302.002 267.086 304.224 267.493C305.334 267.696 306.3 267.858 306.988 267.968C307.332 268.024 307.606 268.067 307.795 268.096C307.889 268.111 307.962 268.121 308.011 268.129C308.035 268.132 308.054 268.135 308.066 268.137C308.072 268.137 308.077 268.138 308.08 268.138L308.085 268.14L308.215 268.159L308.197 268.29Z" fill="#1E2224" stroke="#007AD9" stroke-width="0.266414"/>
<path d="M288.135 296.744L288.098 296.872L287.97 296.835C284.952 295.97 281.185 294.59 278.175 293.427C276.67 292.846 275.354 292.319 274.413 291.937C273.943 291.746 273.566 291.591 273.308 291.484C273.178 291.431 273.078 291.39 273.011 291.361C272.977 291.347 272.951 291.336 272.933 291.329C272.925 291.325 272.918 291.322 272.914 291.32C272.912 291.32 272.91 291.319 272.909 291.319L272.907 291.318L272.781 291.265L272.837 291.14L285.992 261.968L286.046 261.849L286.166 261.901L286.171 261.902C286.173 261.903 286.178 261.906 286.183 261.908C286.195 261.913 286.213 261.92 286.236 261.93C286.282 261.95 286.349 261.979 286.437 262.016C286.613 262.09 286.87 262.198 287.192 262.331C287.837 262.598 288.745 262.968 289.798 263.379C291.903 264.202 294.584 265.189 296.89 265.851L297.019 265.888L296.982 266.015L288.135 296.744Z" fill="#1E2224" stroke="#007AD9" stroke-width="0.266414"/>
<path d="M327.194 118.798L327.199 118.799C327.202 118.799 327.207 118.8 327.213 118.801C327.226 118.803 327.244 118.806 327.269 118.81C327.318 118.817 327.391 118.829 327.486 118.844C327.674 118.874 327.95 118.918 328.294 118.975C328.983 119.09 329.95 119.257 331.061 119.465C333.285 119.881 336.083 120.461 338.389 121.122C340.704 121.785 343.403 122.778 345.526 123.606C346.587 124.02 347.503 124.392 348.153 124.661C348.479 124.796 348.738 124.904 348.916 124.979C349.004 125.017 349.073 125.046 349.119 125.065C349.142 125.075 349.16 125.082 349.172 125.087C349.178 125.09 349.182 125.092 349.185 125.093C349.186 125.094 349.187 125.095 349.188 125.095L349.189 125.095L349.31 125.147L349.363 125.027L362.358 95.8835L362.413 95.7594L362.287 95.7069L362.285 95.7064C362.284 95.706 362.283 95.705 362.281 95.7041C362.277 95.7023 362.27 95.699 362.261 95.6954C362.244 95.6881 362.217 95.6781 362.184 95.6641C362.116 95.6359 362.016 95.5938 361.887 95.5404C361.628 95.4334 361.252 95.2792 360.781 95.0882C359.841 94.7062 358.524 94.1782 357.019 93.597C354.01 92.4346 350.242 91.0552 347.223 90.1897C344.205 89.3243 340.28 88.4977 337.112 87.8885C335.527 87.5839 334.131 87.3341 333.131 87.1596C332.631 87.0723 332.23 87.0035 331.954 86.9571C331.816 86.9339 331.709 86.9167 331.636 86.9048C331.6 86.8988 331.573 86.8934 331.554 86.8903C331.545 86.8888 331.537 86.888 331.533 86.8872C331.531 86.8869 331.529 86.887 331.528 86.8868L331.526 86.8863L331.391 86.8639L331.373 86.9997L327.082 118.649L327.065 118.778L327.194 118.798Z" fill="#1E2224" stroke="#007AD9" stroke-width="0.266414"/>
<path d="M349.366 125.028L362.361 95.8855L362.416 95.761L362.291 95.7079L362.29 95.7077L362.289 95.7074C362.288 95.7069 362.286 95.7058 362.284 95.7048C362.279 95.703 362.273 95.7008 362.264 95.6973C362.247 95.6901 362.221 95.6791 362.187 95.665C362.12 95.6369 362.019 95.5957 361.89 95.5423C361.632 95.4353 361.255 95.2802 360.785 95.0892C359.844 94.7072 358.527 94.18 357.022 93.5986C354.012 92.4363 350.245 91.0562 347.227 90.1907L347.098 90.1538L347.062 90.2827L338.301 120.959L338.264 121.087L338.393 121.124C340.707 121.787 343.406 122.779 345.529 123.607C346.589 124.021 347.506 124.393 348.157 124.662C348.482 124.797 348.741 124.905 348.919 124.98C349.008 125.018 349.076 125.047 349.122 125.067C349.145 125.077 349.163 125.084 349.174 125.089C349.18 125.092 349.185 125.094 349.188 125.095L349.193 125.096L349.313 125.148L349.366 125.028Z" fill="#1E2224" stroke="#007AD9" stroke-width="0.266414"/>
<path d="M257.856 147.604L232.474 128.062L232.365 127.979L232.451 127.873L232.453 127.872C232.453 127.871 232.454 127.869 232.455 127.867C232.458 127.864 232.463 127.858 232.469 127.85C232.481 127.836 232.498 127.814 232.521 127.785C232.568 127.729 232.636 127.645 232.725 127.537C232.902 127.32 233.16 127.005 233.484 126.614C234.132 125.832 235.042 124.745 236.092 123.52C238.193 121.071 240.858 118.072 243.107 115.88C245.355 113.689 248.422 111.103 250.925 109.067C252.176 108.048 253.287 107.166 254.085 106.539C254.484 106.226 254.805 105.976 255.027 105.804C255.137 105.718 255.223 105.652 255.281 105.607C255.31 105.585 255.332 105.568 255.347 105.556C255.354 105.55 255.361 105.546 255.364 105.543C255.366 105.542 255.368 105.541 255.368 105.541L255.37 105.539L255.478 105.456L255.559 105.566L274.362 131.46L274.439 131.565L274.334 131.644L274.331 131.648C274.329 131.649 274.325 131.652 274.32 131.656C274.31 131.663 274.294 131.675 274.275 131.69C274.235 131.72 274.176 131.764 274.1 131.822C273.948 131.938 273.727 132.108 273.451 132.322C272.9 132.75 272.128 133.354 271.249 134.064C269.491 135.485 267.304 137.322 265.585 138.996C263.861 140.676 261.975 142.822 260.52 144.549C259.792 145.412 259.173 146.171 258.735 146.713C258.517 146.984 258.343 147.201 258.224 147.35C258.165 147.425 258.12 147.483 258.089 147.522C258.074 147.541 258.062 147.556 258.054 147.566C258.051 147.571 258.048 147.574 258.046 147.577L258.043 147.58L257.961 147.684L257.856 147.604Z" fill="#1E2224" stroke="#007AD9" stroke-width="0.266414"/>
<path d="M243.103 116.069L243.01 115.973L243.105 115.88C245.354 113.689 248.421 111.103 250.923 109.066C252.175 108.048 253.285 107.166 254.084 106.539C254.483 106.225 254.804 105.975 255.025 105.804C255.136 105.718 255.221 105.651 255.279 105.607C255.308 105.584 255.331 105.567 255.346 105.556C255.353 105.55 255.359 105.546 255.363 105.543C255.365 105.542 255.366 105.54 255.367 105.539L255.369 105.539L255.477 105.455L255.557 105.566L274.361 131.46L274.438 131.565L274.333 131.644L274.33 131.647C274.327 131.649 274.323 131.652 274.319 131.655C274.308 131.663 274.293 131.675 274.273 131.69C274.234 131.72 274.175 131.764 274.099 131.822C273.947 131.938 273.726 132.108 273.45 132.322C272.899 132.749 272.127 133.354 271.248 134.064C269.489 135.484 267.303 137.322 265.584 138.996L265.488 139.089L265.395 138.994L243.103 116.069Z" fill="#1E2224" stroke="#007AD9" stroke-width="0.266414"/>
<path d="M378.231 238.256L378.227 238.26C378.225 238.262 378.222 238.266 378.218 238.271C378.21 238.281 378.198 238.296 378.183 238.315C378.152 238.354 378.106 238.412 378.046 238.487C377.927 238.636 377.752 238.853 377.531 239.123C377.09 239.665 376.465 240.422 375.733 241.283C374.269 243.007 372.377 245.149 370.659 246.824C368.935 248.505 366.734 250.356 364.962 251.788C364.076 252.504 363.298 253.114 362.742 253.546C362.464 253.762 362.241 253.933 362.088 254.05C362.011 254.108 361.952 254.154 361.912 254.184C361.892 254.2 361.877 254.211 361.867 254.219C361.862 254.223 361.858 254.225 361.856 254.227C361.854 254.228 361.853 254.229 361.852 254.229L361.851 254.23L361.746 254.309L361.824 254.415L380.683 280.155L380.763 280.265L380.871 280.182L380.873 280.18C380.873 280.18 380.875 280.179 380.877 280.178C380.881 280.175 380.887 280.17 380.894 280.165C380.909 280.153 380.931 280.135 380.96 280.113C381.018 280.068 381.104 280.002 381.214 279.917C381.436 279.745 381.756 279.495 382.155 279.181C382.954 278.554 384.065 277.673 385.317 276.654C387.819 274.618 390.886 272.03 393.134 269.839C395.383 267.648 398.048 264.649 400.149 262.201C401.199 260.976 402.109 259.888 402.756 259.106C403.08 258.715 403.339 258.401 403.516 258.184C403.605 258.076 403.673 257.991 403.719 257.935C403.742 257.906 403.76 257.885 403.772 257.87C403.778 257.863 403.783 257.857 403.786 257.853C403.787 257.852 403.788 257.85 403.788 257.849L403.79 257.848L403.876 257.742L403.767 257.658L378.416 238.233L378.312 238.154L378.231 238.256Z" fill="#1E2224" stroke="#007AD9" stroke-width="0.266414"/>
<path d="M361.824 254.413L380.683 280.153L380.763 280.262L380.871 280.18L380.872 280.179L380.873 280.178C380.874 280.178 380.876 280.177 380.878 280.175C380.881 280.172 380.887 280.168 380.894 280.162C380.909 280.151 380.931 280.134 380.96 280.111C381.018 280.066 381.103 280 381.214 279.914C381.435 279.743 381.757 279.493 382.156 279.179C382.954 278.552 384.065 277.67 385.317 276.651C387.819 274.614 390.886 272.029 393.135 269.837L393.23 269.744L393.136 269.649L370.847 246.823L370.754 246.728L370.659 246.821C368.935 248.502 366.735 250.353 364.963 251.786C364.077 252.501 363.299 253.113 362.742 253.544C362.464 253.76 362.241 253.931 362.088 254.048C362.012 254.106 361.952 254.151 361.912 254.181C361.892 254.196 361.877 254.208 361.867 254.216C361.862 254.22 361.858 254.223 361.855 254.225L361.852 254.228L361.747 254.307L361.824 254.413Z" fill="#1E2224" stroke="#007AD9" stroke-width="0.266414"/>
<path d="M242.976 183.619L211.243 179.244L211.107 179.225L211.129 179.09L211.13 179.088C211.13 179.087 211.13 179.086 211.13 179.083C211.131 179.079 211.132 179.071 211.133 179.062C211.136 179.044 211.141 179.016 211.147 178.98C211.159 178.907 211.177 178.8 211.2 178.663C211.246 178.387 211.314 177.985 211.401 177.485C211.576 176.485 211.827 175.089 212.131 173.505C212.741 170.336 213.566 166.41 214.432 163.392C215.297 160.373 216.677 156.607 217.84 153.597C218.421 152.092 218.948 150.775 219.33 149.835C219.521 149.364 219.676 148.988 219.783 148.729C219.837 148.6 219.878 148.5 219.906 148.432C219.92 148.399 219.931 148.372 219.938 148.355C219.942 148.347 219.945 148.34 219.947 148.335C219.948 148.333 219.949 148.332 219.949 148.331L219.95 148.329L220.002 148.203L220.127 148.259L249.299 161.414L249.418 161.467L249.366 161.588L249.365 161.592C249.364 161.595 249.362 161.599 249.359 161.605C249.354 161.617 249.347 161.635 249.337 161.658C249.318 161.703 249.288 161.771 249.251 161.858C249.177 162.034 249.069 162.292 248.936 162.614C248.669 163.259 248.299 164.167 247.888 165.219C247.066 167.325 246.079 170.006 245.417 172.312C244.752 174.625 244.18 177.424 243.773 179.646C243.569 180.756 243.408 181.722 243.297 182.41C243.242 182.754 243.198 183.028 243.169 183.216C243.155 183.311 243.144 183.384 243.137 183.433C243.133 183.457 243.131 183.476 243.129 183.488C243.128 183.494 243.128 183.499 243.127 183.502L243.126 183.507L243.107 183.637L242.976 183.619Z" fill="#1E2224" stroke="#007AD9" stroke-width="0.266414"/>
<path d="M214.526 163.557L214.397 163.52L214.434 163.392C215.3 160.374 216.68 156.607 217.842 153.597C218.423 152.092 218.95 150.775 219.332 149.835C219.523 149.365 219.678 148.988 219.785 148.729C219.839 148.6 219.88 148.5 219.908 148.432C219.922 148.399 219.933 148.373 219.94 148.355C219.944 148.347 219.947 148.34 219.949 148.335C219.95 148.334 219.95 148.332 219.951 148.331L219.952 148.329L220.004 148.203L220.13 148.259L249.302 161.414L249.42 161.468L249.369 161.588L249.367 161.592C249.366 161.595 249.364 161.599 249.362 161.605C249.357 161.617 249.349 161.635 249.339 161.658C249.32 161.703 249.29 161.771 249.253 161.859C249.179 162.035 249.072 162.292 248.938 162.614C248.671 163.259 248.301 164.167 247.89 165.219C247.068 167.325 246.081 170.006 245.419 172.312L245.382 172.441L245.254 172.404L214.526 163.557Z" fill="#1E2224" stroke="#007AD9" stroke-width="0.266414"/>
<path d="M392.468 202.616L392.467 202.621C392.466 202.624 392.466 202.629 392.465 202.635C392.463 202.648 392.46 202.666 392.456 202.691C392.448 202.74 392.437 202.813 392.422 202.907C392.392 203.096 392.348 203.372 392.291 203.716C392.176 204.405 392.009 205.372 391.801 206.483C391.385 208.707 390.804 211.505 390.144 213.811C389.481 216.126 388.488 218.825 387.659 220.948C387.246 222.009 386.873 222.925 386.604 223.575C386.47 223.901 386.361 224.16 386.286 224.337C386.249 224.426 386.22 224.495 386.2 224.541C386.191 224.564 386.183 224.582 386.178 224.594C386.176 224.599 386.174 224.604 386.173 224.607C386.172 224.608 386.171 224.609 386.17 224.61L386.17 224.611L386.118 224.732L386.238 224.785L415.382 237.779L415.506 237.835L415.559 237.709L415.559 237.707C415.56 237.706 415.561 237.705 415.562 237.703C415.563 237.698 415.567 237.692 415.57 237.683C415.577 237.666 415.588 237.639 415.602 237.606C415.63 237.538 415.672 237.438 415.725 237.309C415.832 237.05 415.986 236.673 416.177 236.203C416.559 235.263 417.087 233.946 417.669 232.441C418.831 229.431 420.21 225.664 421.076 222.645C421.941 219.627 422.768 215.702 423.377 212.533C423.682 210.949 423.932 209.553 424.106 208.553C424.193 208.053 424.262 207.652 424.309 207.376C424.332 207.238 424.349 207.131 424.361 207.058C424.367 207.022 424.372 206.995 424.375 206.976C424.377 206.967 424.378 206.959 424.378 206.955C424.379 206.953 424.379 206.951 424.379 206.95L424.379 206.948L424.402 206.813L424.266 206.794L392.617 202.504L392.488 202.486L392.468 202.616Z" fill="#1E2224" stroke="#007AD9" stroke-width="0.266414"/>
<path d="M386.237 224.784L415.38 237.779L415.505 237.834L415.558 237.709L415.558 237.708L415.558 237.707C415.559 237.706 415.56 237.704 415.561 237.701C415.563 237.697 415.565 237.691 415.568 237.682C415.576 237.665 415.587 237.639 415.601 237.605C415.629 237.538 415.67 237.437 415.723 237.308C415.83 237.049 415.985 236.673 416.176 236.203C416.558 235.262 417.086 233.945 417.667 232.44C418.829 229.43 420.209 225.663 421.075 222.645L421.112 222.516L420.983 222.48L390.306 213.719L390.179 213.682L390.142 213.811C389.479 216.125 388.487 218.824 387.659 220.947C387.245 222.007 386.872 222.924 386.603 223.575C386.469 223.9 386.36 224.159 386.285 224.337C386.248 224.426 386.218 224.494 386.199 224.54C386.189 224.563 386.182 224.581 386.176 224.592C386.174 224.598 386.172 224.603 386.171 224.606L386.169 224.611L386.117 224.731L386.237 224.784Z" fill="#1E2224" stroke="#007AD9" stroke-width="0.266414"/>
<path d="M271.674 253.133L252.018 278.427L251.934 278.535L251.829 278.449L251.827 278.447C251.826 278.446 251.825 278.446 251.823 278.444C251.82 278.441 251.814 278.437 251.806 278.431C251.792 278.419 251.77 278.401 251.742 278.378C251.685 278.331 251.602 278.262 251.494 278.173C251.278 277.995 250.964 277.736 250.575 277.41C249.796 276.759 248.712 275.844 247.493 274.788C245.053 272.676 242.066 269.997 239.885 267.739C237.704 265.48 235.131 262.402 233.106 259.89C232.093 258.634 231.217 257.52 230.593 256.718C230.281 256.318 230.033 255.995 229.862 255.773C229.777 255.663 229.711 255.577 229.667 255.519C229.644 255.489 229.627 255.467 229.616 255.452C229.61 255.445 229.606 255.438 229.603 255.435C229.602 255.433 229.601 255.431 229.6 255.43L229.599 255.429L229.516 255.32L229.627 255.24L255.606 236.554L255.711 236.478L255.79 236.583L255.793 236.586C255.795 236.589 255.797 236.593 255.801 236.597C255.809 236.608 255.821 236.623 255.836 236.643C255.865 236.683 255.909 236.742 255.966 236.818C256.082 236.97 256.251 237.192 256.463 237.469C256.889 238.022 257.49 238.797 258.196 239.679C259.608 241.444 261.436 243.639 263.102 245.365C264.774 247.097 266.911 248.993 268.632 250.456C269.491 251.187 270.247 251.81 270.788 252.25C271.058 252.47 271.274 252.645 271.422 252.764C271.497 252.823 271.554 252.869 271.593 252.9C271.613 252.915 271.628 252.927 271.638 252.935C271.642 252.938 271.646 252.941 271.648 252.943L271.652 252.947L271.755 253.029L271.674 253.133Z" fill="#1E2224" stroke="#007AD9" stroke-width="0.266414"/>
<path d="M240.073 267.74L239.977 267.833L239.884 267.736C237.703 265.478 235.131 262.399 233.106 259.888C232.093 258.632 231.216 257.517 230.593 256.716C230.281 256.315 230.033 255.993 229.862 255.771C229.777 255.66 229.711 255.574 229.666 255.516C229.644 255.487 229.627 255.464 229.616 255.45C229.61 255.442 229.606 255.436 229.603 255.432C229.601 255.43 229.6 255.429 229.599 255.429L229.599 255.426L229.516 255.318L229.627 255.238L255.605 236.551L255.711 236.475L255.789 236.58L255.793 236.584C255.795 236.586 255.797 236.59 255.801 236.595C255.808 236.605 255.82 236.621 255.835 236.64C255.865 236.68 255.909 236.739 255.966 236.815C256.081 236.968 256.251 237.19 256.463 237.466C256.888 238.02 257.489 238.794 258.195 239.676C259.608 241.441 261.436 243.636 263.102 245.363L263.195 245.459L263.099 245.551L240.073 267.74Z" fill="#1E2224" stroke="#007AD9" stroke-width="0.266414"/>
<path d="M362.87 133.166L362.873 133.17C362.876 133.172 362.88 133.175 362.885 133.179C362.895 133.187 362.909 133.199 362.928 133.214C362.967 133.245 363.025 133.292 363.099 133.352C363.248 133.472 363.464 133.648 363.734 133.87C364.273 134.314 365.027 134.942 365.885 135.677C367.603 137.15 369.736 139.051 371.403 140.777C373.076 142.508 374.917 144.718 376.341 146.496C377.053 147.385 377.66 148.166 378.089 148.724C378.304 149.003 378.474 149.227 378.59 149.38C378.648 149.457 378.694 149.517 378.724 149.557C378.739 149.577 378.751 149.592 378.758 149.602C378.762 149.607 378.764 149.611 378.766 149.614C378.767 149.615 378.768 149.616 378.768 149.617L378.769 149.618L378.848 149.723L378.954 149.646L404.779 130.904L404.89 130.824L404.807 130.716L404.805 130.714C404.805 130.713 404.804 130.712 404.803 130.71C404.8 130.706 404.795 130.7 404.79 130.693C404.778 130.678 404.761 130.656 404.738 130.627C404.694 130.569 404.628 130.482 404.543 130.371C404.373 130.149 404.124 129.827 403.812 129.427C403.188 128.626 402.312 127.51 401.299 126.254C399.274 123.743 396.701 120.664 394.52 118.406C392.338 116.147 389.352 113.469 386.913 111.357C385.693 110.301 384.609 109.386 383.83 108.735C383.441 108.41 383.128 108.15 382.912 107.971C382.804 107.882 382.72 107.814 382.663 107.767C382.635 107.744 382.614 107.726 382.599 107.714C382.592 107.708 382.586 107.703 382.582 107.7C382.581 107.699 382.579 107.698 382.578 107.697L382.577 107.696L382.471 107.609L382.387 107.718L362.847 132.981L362.768 133.084L362.87 133.166Z" fill="#1E2224" stroke="#007AD9" stroke-width="0.266414"/>
<path d="M378.953 149.646L404.778 130.904L404.888 130.824L404.806 130.716L404.805 130.715L404.805 130.714C404.804 130.713 404.803 130.711 404.801 130.709C404.798 130.706 404.794 130.701 404.788 130.693C404.777 130.678 404.76 130.656 404.738 130.627C404.693 130.569 404.627 130.483 404.542 130.372C404.371 130.15 404.123 129.827 403.811 129.427C403.188 128.626 402.31 127.511 401.297 126.254C399.272 123.743 396.7 120.664 394.519 118.406L394.426 118.31L394.33 118.403L371.404 140.589L371.309 140.681L371.402 140.778C373.074 142.509 374.916 144.717 376.34 146.496C377.052 147.385 377.659 148.166 378.089 148.724C378.303 149.003 378.473 149.227 378.59 149.381C378.648 149.457 378.692 149.517 378.722 149.557C378.737 149.577 378.749 149.592 378.756 149.602C378.76 149.608 378.763 149.612 378.765 149.614L378.768 149.618L378.847 149.723L378.953 149.646Z" fill="#1E2224" stroke="#007AD9" stroke-width="0.266414"/>
<path d="M248.334 223.632L218.664 235.709L218.537 235.761L218.489 235.633L218.489 235.631C218.489 235.63 218.488 235.629 218.487 235.627C218.485 235.622 218.482 235.615 218.479 235.607C218.472 235.589 218.462 235.563 218.449 235.529C218.423 235.46 218.386 235.358 218.337 235.227C218.239 234.965 218.097 234.583 217.923 234.107C217.574 233.154 217.093 231.819 216.565 230.295C215.508 227.246 214.26 223.433 213.5 220.386C212.741 217.34 212.053 213.388 211.554 210.2C211.305 208.606 211.103 207.202 210.964 206.197C210.894 205.694 210.84 205.29 210.804 205.013C210.785 204.874 210.771 204.767 210.761 204.694C210.757 204.658 210.753 204.63 210.751 204.611C210.75 204.602 210.749 204.594 210.748 204.59C210.748 204.588 210.748 204.586 210.748 204.585L210.748 204.583L210.73 204.447L210.867 204.433L242.708 201.24L242.837 201.227L242.853 201.357L242.854 201.362C242.854 201.365 242.854 201.369 242.855 201.375C242.857 201.388 242.859 201.407 242.862 201.432C242.868 201.481 242.876 201.554 242.888 201.649C242.912 201.838 242.947 202.115 242.993 202.461C243.084 203.153 243.218 204.124 243.388 205.241C243.729 207.476 244.214 210.291 244.794 212.619C245.376 214.955 246.279 217.665 247.037 219.792C247.417 220.856 247.76 221.773 248.008 222.424C248.131 222.749 248.231 223.009 248.3 223.186C248.335 223.275 248.362 223.344 248.38 223.39C248.389 223.413 248.397 223.43 248.401 223.442C248.404 223.448 248.405 223.452 248.407 223.455L248.408 223.46L248.456 223.582L248.334 223.632Z" fill="#1E2224" stroke="#007AD9" stroke-width="0.266414"/>
<path d="M213.661 220.485L213.531 220.517L213.499 220.388C212.74 217.341 212.051 213.389 211.553 210.201C211.304 208.607 211.102 207.203 210.963 206.198C210.893 205.695 210.839 205.292 210.802 205.014C210.784 204.876 210.77 204.768 210.76 204.695C210.755 204.659 210.752 204.631 210.75 204.613C210.748 204.603 210.748 204.596 210.747 204.591C210.747 204.589 210.746 204.587 210.746 204.586L210.746 204.584L210.729 204.449L210.865 204.435L242.706 201.241L242.836 201.228L242.851 201.358L242.853 201.363C242.853 201.366 242.853 201.371 242.854 201.377C242.855 201.389 242.858 201.409 242.861 201.433C242.867 201.483 242.875 201.556 242.887 201.65C242.911 201.84 242.946 202.116 242.992 202.462C243.083 203.154 243.217 204.126 243.387 205.242C243.728 207.477 244.213 210.292 244.793 212.621L244.825 212.75L244.696 212.782L213.661 220.485Z" fill="#1E2224" stroke="#007AD9" stroke-width="0.266414"/>
<path d="M387.294 165.339L387.295 165.344C387.296 165.347 387.298 165.352 387.3 165.358C387.305 165.369 387.311 165.387 387.32 165.41C387.338 165.456 387.365 165.525 387.399 165.615C387.468 165.793 387.567 166.054 387.69 166.381C387.935 167.035 388.274 167.956 388.65 169.022C389.401 171.155 390.297 173.869 390.878 176.197C391.461 178.532 391.951 181.367 392.295 183.619C392.467 184.745 392.603 185.724 392.695 186.422C392.741 186.771 392.777 187.05 392.801 187.241C392.813 187.337 392.822 187.411 392.828 187.461C392.831 187.486 392.834 187.505 392.835 187.518C392.836 187.524 392.836 187.528 392.837 187.531C392.837 187.533 392.837 187.535 392.837 187.535L392.837 187.536L392.853 187.667L392.983 187.653L424.719 184.335L424.855 184.321L424.837 184.185L424.837 184.184C424.837 184.182 424.837 184.181 424.837 184.179C424.836 184.174 424.835 184.166 424.834 184.157C424.832 184.138 424.827 184.111 424.823 184.074C424.813 184.002 424.8 183.894 424.781 183.756C424.745 183.478 424.69 183.075 424.62 182.572C424.481 181.566 424.28 180.162 424.03 178.568C423.532 175.381 422.843 171.428 422.083 168.381C421.324 165.335 420.077 161.522 419.02 158.473C418.492 156.949 418.01 155.615 417.661 154.662C417.487 154.185 417.346 153.803 417.248 153.541C417.199 153.41 417.161 153.309 417.135 153.24C417.122 153.206 417.113 153.179 417.106 153.162C417.103 153.153 417.1 153.146 417.098 153.141C417.097 153.139 417.096 153.138 417.096 153.137L417.095 153.135L417.047 153.007L416.92 153.059L387.367 165.168L387.246 165.217L387.294 165.339Z" fill="#1E2224" stroke="#007AD9" stroke-width="0.266414"/>
<path d="M392.982 187.653L424.718 184.335L424.853 184.321L424.837 184.186L424.836 184.185L424.836 184.184C424.836 184.183 424.836 184.18 424.836 184.178C424.835 184.173 424.834 184.167 424.833 184.158C424.83 184.139 424.827 184.111 424.822 184.075C424.813 184.002 424.798 183.895 424.78 183.756C424.743 183.479 424.689 183.075 424.62 182.572C424.48 181.567 424.278 180.162 424.029 178.568C423.531 175.38 422.842 171.428 422.083 168.382L422.051 168.252L421.921 168.285L390.973 176.035L390.844 176.068L390.877 176.197C391.46 178.533 391.95 181.367 392.294 183.619C392.466 184.745 392.602 185.725 392.695 186.423C392.741 186.772 392.776 187.05 392.8 187.242C392.812 187.337 392.821 187.411 392.827 187.461C392.83 187.485 392.832 187.505 392.834 187.517C392.834 187.524 392.835 187.529 392.835 187.532L392.836 187.537L392.852 187.667L392.982 187.653Z" fill="#1E2224" stroke="#007AD9" stroke-width="0.266414"/>
<path d="M348.343 262.439L360.42 292.109L360.472 292.236L360.344 292.284L360.342 292.284C360.341 292.285 360.34 292.286 360.338 292.287C360.333 292.288 360.326 292.291 360.318 292.295C360.3 292.301 360.274 292.311 360.239 292.324C360.171 292.35 360.069 292.388 359.938 292.436C359.676 292.534 359.294 292.676 358.818 292.851C357.864 293.2 356.53 293.68 355.006 294.209C351.957 295.265 348.144 296.513 345.097 297.273C342.051 298.033 338.099 298.721 334.911 299.219C333.317 299.468 331.913 299.67 330.908 299.81C330.405 299.879 330.001 299.933 329.724 299.97C329.585 299.988 329.478 300.003 329.405 300.012C329.369 300.017 329.341 300.02 329.322 300.023C329.313 300.024 329.305 300.024 329.301 300.025C329.298 300.025 329.297 300.025 329.296 300.025L329.294 300.026L329.158 300.043L329.144 299.907L325.951 268.066L325.938 267.936L326.068 267.921L326.073 267.92C326.076 267.919 326.08 267.919 326.086 267.918C326.099 267.917 326.118 267.914 326.143 267.911C326.192 267.905 326.265 267.897 326.36 267.885C326.549 267.862 326.826 267.826 327.172 267.78C327.864 267.689 328.835 267.555 329.952 267.385C332.187 267.044 335.002 266.559 337.33 265.979C339.666 265.398 342.376 264.494 344.503 263.736C345.567 263.357 346.484 263.014 347.135 262.766C347.46 262.642 347.72 262.542 347.897 262.473C347.986 262.439 348.055 262.411 348.101 262.393C348.124 262.384 348.141 262.377 348.153 262.372C348.159 262.37 348.163 262.368 348.166 262.367L348.17 262.366L348.293 262.317L348.343 262.439Z" fill="#1E2224" stroke="#007AD9" stroke-width="0.266414"/>
<path d="M345.196 297.112L345.228 297.242L345.099 297.274C342.052 298.034 338.1 298.722 334.912 299.22C333.318 299.469 331.914 299.671 330.909 299.811C330.406 299.881 330.003 299.934 329.725 299.971C329.587 299.989 329.479 300.004 329.406 300.013C329.37 300.018 329.342 300.022 329.324 300.024C329.314 300.025 329.307 300.026 329.302 300.026C329.3 300.027 329.298 300.027 329.297 300.027L329.295 300.027L329.16 300.045L329.146 299.908L325.952 268.067L325.939 267.937L326.069 267.922L326.074 267.921C326.077 267.921 326.082 267.92 326.088 267.92C326.1 267.918 326.119 267.915 326.144 267.912C326.194 267.906 326.267 267.898 326.361 267.887C326.551 267.863 326.827 267.827 327.173 267.782C327.865 267.69 328.837 267.557 329.953 267.386C332.188 267.046 335.003 266.56 337.331 265.981L337.461 265.948L337.493 266.077L345.196 297.112Z" fill="#1E2224" stroke="#007AD9" stroke-width="0.266414"/>
<path d="M290.05 124.011L290.055 124.01C290.058 124.009 290.063 124.007 290.069 124.005C290.08 124 290.098 123.993 290.121 123.984C290.167 123.966 290.236 123.939 290.326 123.905C290.504 123.837 290.765 123.737 291.091 123.615C291.746 123.369 292.666 123.031 293.733 122.655C295.866 121.904 298.58 121.008 300.908 120.426C303.243 119.843 306.078 119.354 308.33 119.01C309.456 118.838 310.435 118.702 311.133 118.61C311.482 118.563 311.761 118.528 311.952 118.504C312.048 118.492 312.122 118.483 312.172 118.476C312.197 118.473 312.216 118.471 312.229 118.469C312.234 118.469 312.239 118.468 312.242 118.468C312.244 118.468 312.245 118.468 312.246 118.468L312.247 118.468L312.378 118.452L312.364 118.322L309.046 86.5853L309.032 86.4498L308.896 86.4675L308.894 86.4679C308.893 86.4681 308.892 86.4679 308.889 86.4682C308.885 86.4688 308.877 86.4693 308.868 86.4705C308.849 86.4729 308.822 86.4774 308.785 86.4821C308.713 86.4915 308.605 86.505 308.466 86.5233C308.189 86.5601 307.785 86.6149 307.283 86.6846C306.277 86.8241 304.873 87.025 303.279 87.2742C300.091 87.7724 296.139 88.4617 293.092 89.2213C290.046 89.9809 286.233 91.2278 283.184 92.2844C281.66 92.8128 280.326 93.2945 279.373 93.6434C278.896 93.8178 278.514 93.9588 278.252 94.0567C278.121 94.1056 278.02 94.1442 277.951 94.17C277.917 94.1828 277.89 94.1919 277.872 94.1986C277.864 94.2019 277.857 94.2049 277.852 94.2066C277.85 94.2074 277.849 94.2083 277.848 94.2087L277.846 94.2092L277.718 94.2572L277.77 94.3842L289.879 123.938L289.928 124.059L290.05 124.011Z" fill="#1E2224" stroke="#007AD9" stroke-width="0.266414"/>
<path d="M312.364 118.322L309.046 86.5867L309.032 86.4515L308.897 86.468L308.896 86.4682L308.895 86.4684C308.894 86.4686 308.891 86.4686 308.889 86.4689C308.884 86.4695 308.877 86.4708 308.869 86.472C308.85 86.4744 308.822 86.4779 308.786 86.4826C308.713 86.492 308.606 86.5064 308.467 86.5248C308.19 86.5615 307.786 86.6153 307.283 86.6851C306.278 86.8246 304.873 87.0267 303.279 87.2759C300.091 87.7741 296.139 88.4622 293.093 89.2218L292.963 89.2542L292.996 89.3837L300.746 120.331L300.778 120.46L300.908 120.428C303.244 119.845 306.077 119.354 308.33 119.01C309.455 118.838 310.436 118.703 311.134 118.61C311.483 118.564 311.761 118.528 311.953 118.505C312.048 118.493 312.122 118.484 312.172 118.478C312.196 118.475 312.215 118.473 312.228 118.471C312.235 118.47 312.24 118.47 312.243 118.469L312.248 118.468L312.378 118.453L312.364 118.322Z" fill="#1E2224" stroke="#007AD9" stroke-width="0.266414"/>
<path d="M317.609 118.254C359.175 118.254 392.871 151.95 392.871 193.516C392.871 235.082 359.175 268.777 317.609 268.777C276.043 268.777 242.348 235.082 242.348 193.516C242.348 151.95 276.043 118.254 317.609 118.254Z" fill="#3B4146" stroke="#007AD9" stroke-width="0.266414"/>
<path d="M317.61 131.309C351.967 131.309 379.818 159.16 379.818 193.517C379.818 227.873 351.967 255.725 317.61 255.725C283.254 255.725 255.402 227.873 255.402 193.517C255.402 159.16 283.254 131.309 317.61 131.309Z" fill="#2F363B" stroke="#007AD9" stroke-width="0.266414"/>
<path d="M360.623 137.788C349.117 128.924 335.158 123.824 320.647 123.184L320.298 131.1C333.18 131.668 345.573 136.196 355.788 144.065L360.623 137.788Z" fill="#3B4146" stroke="#007AD9" stroke-width="0.266414" stroke-linejoin="round"/>
<path d="M274.596 249.251C286.101 258.115 300.061 263.215 314.571 263.855L314.92 255.939C302.039 255.371 289.646 250.843 279.431 242.974L274.596 249.251Z" fill="#3B4146" stroke="#007AD9" stroke-width="0.266414" stroke-linejoin="round"/>
<path d="M385.164 173.715C381.066 159.78 372.77 147.449 361.407 138.403L356.472 144.601C366.56 152.633 373.925 163.58 377.563 175.95L385.164 173.715Z" fill="#3B4146" stroke="#007AD9" stroke-width="0.266414" stroke-linejoin="round"/>
<path d="M250.05 213.321C254.149 227.255 262.445 239.586 273.808 248.633L278.743 242.434C268.655 234.403 261.29 223.455 257.652 211.085L250.05 213.321Z" fill="#3B4146" stroke="#007AD9" stroke-width="0.266414" stroke-linejoin="round"/>
<path d="M383.907 217.201C388.782 203.52 389.318 188.667 385.443 174.669L377.807 176.783C381.247 189.21 380.771 202.396 376.443 214.542L383.907 217.201Z" fill="#3B4146" stroke="#007AD9" stroke-width="0.266414" stroke-linejoin="round"/>
<path d="M251.315 169.826C246.441 183.508 245.904 198.36 249.779 212.358L257.416 210.244C253.975 197.817 254.451 184.632 258.779 172.485L251.315 169.826Z" fill="#3B4146" stroke="#007AD9" stroke-width="0.266414" stroke-linejoin="round"/>
<path d="M357.325 251.648C369.311 243.444 378.475 231.743 383.567 218.141L376.147 215.363C371.626 227.439 363.49 237.826 352.85 245.109L357.325 251.648Z" fill="#3B4146" stroke="#007AD9" stroke-width="0.266414" stroke-linejoin="round"/>
<path d="M277.902 135.384C265.916 143.587 256.752 155.288 251.659 168.89L259.08 171.668C263.601 159.593 271.736 149.205 282.377 141.922L277.902 135.384Z" fill="#3B4146" stroke="#007AD9" stroke-width="0.266414" stroke-linejoin="round"/>
<path d="M315.568 263.888C330.087 264.296 344.378 260.217 356.493 252.206L352.123 245.597C341.367 252.709 328.68 256.33 315.791 255.968L315.568 263.888Z" fill="#3B4146" stroke="#007AD9" stroke-width="0.266414" stroke-linejoin="round"/>
<path d="M319.654 123.147C305.136 122.739 290.845 126.818 278.729 134.829L283.1 141.439C293.855 134.327 306.543 130.705 319.432 131.067L319.654 123.147Z" fill="#3B4146" stroke="#007AD9" stroke-width="0.266414" stroke-linejoin="round"/>
<ellipse cx="317.612" cy="193.515" rx="15.452" ry="15.452" fill="#007AD9"/>
<ellipse cx="93.9113" cy="93.9112" rx="93.9113" ry="93.9112" transform="matrix(0.938734 0.344643 -0.344695 0.938715 88.8398 225.934)" fill="#2F363B"/>
<g filter="url(#filter1_f_2346_11094)">
<circle cx="126.327" cy="379.843" r="47.4083" transform="rotate(-28.3814 126.327 379.843)" fill="url(#paint1_linear_2346_11094)"/>
</g>
<circle cx="144.674" cy="346.466" r="57.5955" fill="#2F363B" stroke="#007AD9" stroke-width="0.218579"/>
<circle cx="144.675" cy="346.467" r="56.2831" fill="#2F363B" stroke="#007AD9" stroke-width="0.220286"/>
<path d="M178.077 382.743C179.935 382.658 181.416 384.221 181.357 386.09C181.299 387.919 179.779 389.352 177.941 389.448C173.84 389.662 169.845 390.458 166.055 392.268C162.239 394.09 158.716 396.897 155.752 400.077C154.496 401.426 152.406 401.659 150.986 400.502C149.59 399.363 149.364 397.312 150.569 395.985C154.202 391.986 158.572 388.484 163.333 386.211C168.015 383.976 172.98 382.975 178.077 382.743Z" fill="#1E2224" stroke="#0C90ED" stroke-width="0.218579"/>
<path d="M187.126 373.923C188.916 374.386 189.844 376.313 189.231 378.072C188.619 379.825 186.7 380.743 184.882 380.304C177.094 378.425 168.86 379.245 161.552 382.69C154.244 386.136 148.371 391.967 144.866 399.17C144.047 400.852 142.118 401.749 140.377 401.105C138.63 400.459 137.733 398.518 138.515 396.841C142.651 387.98 149.769 380.8 158.679 376.598C167.59 372.397 177.658 371.475 187.126 373.923Z" fill="#1E2224" stroke="#0C90ED" stroke-width="0.218579"/>
<path d="M192.683 365.158C194.541 365.785 195.397 367.88 194.637 369.699C193.878 371.513 191.791 372.361 189.91 371.751C185.225 370.231 180.313 369.492 175.371 369.572C169.2 369.671 163.115 371.046 157.5 373.609C151.885 376.172 146.861 379.868 142.742 384.465C139.445 388.146 136.785 392.342 134.864 396.878C134.092 398.699 132.085 399.719 130.217 399.104C128.345 398.487 127.323 396.467 128.067 394.653C130.31 389.182 133.474 384.125 137.432 379.708C142.206 374.378 148.031 370.094 154.54 367.123C161.049 364.152 168.102 362.558 175.256 362.443C181.186 362.347 187.08 363.268 192.683 365.158Z" fill="#1E2224" stroke="#0C90ED" stroke-width="0.218579"/>
<path d="M95.7226 352.512C94.3605 351.245 92.2204 351.479 91.0561 352.942C89.9165 354.374 90.1479 356.45 91.4871 357.713C94.4756 360.529 97.0065 363.721 98.7256 367.553C100.456 371.412 101.325 375.832 101.527 380.174C101.613 382.015 103.055 383.546 104.887 383.582C106.687 383.617 108.187 382.199 108.127 380.408C107.945 375.008 106.879 369.511 104.72 364.697C102.596 359.963 99.4587 355.987 95.7226 352.512Z" fill="#1E2224" stroke="#0C90ED" stroke-width="0.218579"/>
<path d="M94.529 339.93C92.8637 339.124 90.9097 339.994 90.2392 341.731C89.5707 343.464 90.4405 345.405 92.1108 346.247C99.2637 349.854 105.012 355.806 108.355 363.162C111.697 370.518 112.402 378.764 110.414 386.524C109.949 388.336 110.839 390.268 112.584 390.904C114.333 391.542 116.274 390.642 116.762 388.858C119.343 379.425 118.562 369.345 114.486 360.376C110.411 351.407 103.332 344.19 94.529 339.93Z" fill="#1E2224" stroke="#0C90ED" stroke-width="0.218579"/>
<path d="M95.9675 329.653C94.1454 328.928 92.1366 329.971 91.5394 331.85C90.9437 333.724 91.9864 335.721 93.8159 336.473C98.3712 338.346 102.595 340.961 106.31 344.219C110.951 348.288 114.701 353.273 117.324 358.861C119.946 364.448 121.386 370.517 121.551 376.687C121.684 381.628 120.997 386.548 119.527 391.249C118.937 393.137 119.807 395.214 121.629 395.953C123.456 396.694 125.542 395.815 126.149 393.951C127.979 388.328 128.838 382.425 128.679 376.496C128.487 369.344 126.818 362.308 123.778 355.831C120.738 349.354 116.391 343.576 111.011 338.858C106.552 334.948 101.462 331.837 95.9675 329.653Z" fill="#1E2224" stroke="#0C90ED" stroke-width="0.218579"/>
<path d="M193.617 340.418C194.979 341.684 197.119 341.451 198.284 339.988C199.423 338.556 199.192 336.479 197.853 335.217C194.864 332.401 192.333 329.209 190.614 325.376C188.884 321.518 188.014 317.098 187.813 312.756C187.727 310.915 186.285 309.384 184.453 309.348C182.652 309.313 181.153 310.731 181.213 312.521C181.394 317.922 182.461 323.419 184.62 328.233C186.744 332.967 189.881 336.942 193.617 340.418Z" fill="#1E2224" stroke="#0C90ED" stroke-width="0.218579"/>
<path d="M194.811 353C196.476 353.805 198.43 352.936 199.101 351.199C199.769 349.466 198.899 347.525 197.229 346.682C190.076 343.076 184.328 337.123 180.985 329.768C177.643 322.412 176.938 314.166 178.926 306.406C179.39 304.594 178.501 302.661 176.756 302.025C175.007 301.388 173.066 302.288 172.578 304.072C169.997 313.505 170.778 323.585 174.854 332.553C178.929 341.522 186.008 348.74 194.811 353Z" fill="#1E2224" stroke="#0C90ED" stroke-width="0.218579"/>
<path d="M193.372 363.277C195.194 364.002 197.203 362.958 197.8 361.08C198.396 359.205 197.353 357.208 195.524 356.456C190.969 354.583 186.745 351.969 183.029 348.711C178.388 344.641 174.639 339.656 172.016 334.069C169.394 328.482 167.954 322.412 167.789 316.242C167.656 311.302 168.343 306.382 169.813 301.681C170.403 299.793 169.533 297.716 167.711 296.977C165.884 296.236 163.798 297.114 163.191 298.979C161.361 304.602 160.502 310.505 160.661 316.433C160.853 323.586 162.522 330.621 165.562 337.098C168.602 343.575 172.949 349.354 178.328 354.071C182.788 357.981 187.878 361.092 193.372 363.277Z" fill="#1E2224" stroke="#0C90ED" stroke-width="0.218579"/>
<path d="M111.267 310.183C109.409 310.268 107.928 308.705 107.987 306.836C108.045 305.007 109.565 303.573 111.403 303.477C115.504 303.264 119.499 302.468 123.289 300.658C127.105 298.836 130.628 296.028 133.591 292.848C134.848 291.5 136.938 291.266 138.358 292.424C139.754 293.562 139.979 295.614 138.775 296.94C135.142 300.94 130.772 304.441 126.011 306.714C121.328 308.95 116.364 309.951 111.267 310.183Z" fill="#1E2224" stroke="#0C90ED" stroke-width="0.218579"/>
<path d="M102.214 319.007C100.423 318.544 99.496 316.616 100.109 314.858C100.72 313.104 102.64 312.187 104.458 312.626C112.245 314.504 120.48 313.685 127.788 310.24C135.096 306.794 140.969 300.963 144.474 293.76C145.293 292.078 147.221 291.18 148.963 291.824C150.71 292.47 151.607 294.412 150.825 296.088C146.689 304.95 139.571 312.13 130.66 316.331C121.75 320.532 111.682 321.455 102.214 319.007Z" fill="#1E2224" stroke="#0C90ED" stroke-width="0.218579"/>
<path d="M96.6611 327.772C94.8031 327.145 93.9466 325.05 94.7068 323.231C95.4655 321.417 97.5526 320.569 99.4342 321.179C104.119 322.699 109.031 323.438 113.972 323.358C120.144 323.258 126.228 321.884 131.843 319.321C137.458 316.758 142.483 313.062 146.601 308.464C149.899 304.783 152.559 300.587 154.48 296.052C155.252 294.231 157.259 293.21 159.127 293.826C160.999 294.443 162.021 296.463 161.277 298.277C159.034 303.748 155.87 308.805 151.912 313.222C147.138 318.551 141.313 322.836 134.804 325.807C128.295 328.778 121.242 330.371 114.088 330.487C108.158 330.583 102.264 329.661 96.6611 327.772Z" fill="#1E2224" stroke="#0C90ED" stroke-width="0.218579"/>
<mask id="path-56-inside-1_2346_11094" fill="white">
<path d="M152.971 289.577L150.373 289.258L150.579 287.577L153.177 287.896L152.971 289.577ZM153.202 287.898L150.564 287.574L148.527 286.336L155.467 287.187L153.202 287.898Z"/>
</mask>
<path d="M152.971 289.577L150.373 289.258L150.579 287.577L153.177 287.896L152.971 289.577ZM153.202 287.898L150.564 287.574L148.527 286.336L155.467 287.187L153.202 287.898Z" fill="#2F363B"/>
<path d="M152.971 289.577L152.917 290.011L153.351 290.064L153.404 289.63L152.971 289.577ZM150.373 289.258L149.939 289.205L149.886 289.639L150.32 289.692L150.373 289.258ZM150.579 287.577L150.632 287.143L150.198 287.09L150.145 287.524L150.579 287.577ZM153.177 287.896L153.611 287.949L153.664 287.515L153.23 287.462L153.177 287.896ZM153.202 287.898L153.149 288.332L153.243 288.344L153.333 288.315L153.202 287.898ZM150.564 287.574L150.336 287.948L150.417 287.997L150.51 288.008L150.564 287.574ZM148.527 286.336L148.581 285.902L148.3 286.709L148.527 286.336ZM155.467 287.187L155.598 287.604L155.52 286.753L155.467 287.187ZM152.971 289.577L153.024 289.143L150.426 288.824L150.373 289.258L150.32 289.692L152.917 290.011L152.971 289.577ZM150.373 289.258L150.807 289.311L151.013 287.631L150.579 287.577L150.145 287.524L149.939 289.205L150.373 289.258ZM150.579 287.577L150.526 288.011L153.123 288.33L153.177 287.896L153.23 287.462L150.632 287.143L150.579 287.577ZM153.177 287.896L152.743 287.843L152.537 289.524L152.971 289.577L153.404 289.63L153.611 287.949L153.177 287.896ZM153.202 287.898L153.255 287.464L150.617 287.141L150.564 287.574L150.51 288.008L153.149 288.332L153.202 287.898ZM150.564 287.574L150.791 287.201L148.755 285.962L148.527 286.336L148.3 286.709L150.336 287.948L150.564 287.574ZM148.527 286.336L148.474 286.77L155.413 287.621L155.467 287.187L155.52 286.753L148.581 285.902L148.527 286.336ZM155.467 287.187L155.336 286.77L153.071 287.481L153.202 287.898L153.333 288.315L155.598 287.604L155.467 287.187Z" fill="#007AD9" mask="url(#path-56-inside-1_2346_11094)"/>
<path d="M151.908 286.971C153.492 287.165 154.738 287.318 155.475 287.409C156.013 287.475 156.517 287.137 156.662 286.615L162.105 266.927C162.282 266.284 161.849 265.632 161.185 265.551L148.197 263.958C147.539 263.877 146.963 264.397 146.973 265.059L147.27 285.452C147.278 285.998 147.686 286.454 148.228 286.521C148.998 286.616 150.304 286.775 151.908 286.971Z" fill="#1E2224" stroke="#007AD9" stroke-width="0.437157"/>
<mask id="path-59-inside-2_2346_11094" fill="white">
<path d="M138.977 403.68L136.379 403.361L136.173 405.042L136.157 405.04L133.883 405.75L140.821 406.601L138.795 405.364L138.771 405.361L138.977 403.68Z"/>
</mask>
<path d="M138.977 403.68L136.379 403.361L136.173 405.042L136.157 405.04L133.883 405.75L140.821 406.601L138.795 405.364L138.771 405.361L138.977 403.68Z" fill="#2F363B"/>
<path d="M138.977 403.68L139.031 403.246L139.465 403.299L139.411 403.733L138.977 403.68ZM136.379 403.361L135.945 403.308L135.998 402.874L136.432 402.927L136.379 403.361ZM136.173 405.042L136.606 405.095L136.553 405.529L136.119 405.476L136.173 405.042ZM136.157 405.04L136.027 404.623L136.117 404.595L136.21 404.606L136.157 405.04ZM133.883 405.75L133.83 406.184L133.753 405.333L133.883 405.75ZM140.821 406.601L141.049 406.228L140.768 407.035L140.821 406.601ZM138.795 405.364L138.849 404.93L138.943 404.941L139.023 404.991L138.795 405.364ZM138.771 405.361L138.718 405.795L138.284 405.741L138.337 405.308L138.771 405.361ZM138.977 403.68L138.924 404.114L136.325 403.795L136.379 403.361L136.432 402.927L139.031 403.246L138.977 403.68ZM136.379 403.361L136.813 403.415L136.606 405.095L136.173 405.042L135.739 404.989L135.945 403.308L136.379 403.361ZM136.173 405.042L136.119 405.476L136.104 405.474L136.157 405.04L136.21 404.606L136.226 404.608L136.173 405.042ZM136.157 405.04L136.287 405.457L134.013 406.167L133.883 405.75L133.753 405.333L136.027 404.623L136.157 405.04ZM133.883 405.75L133.936 405.316L140.874 406.167L140.821 406.601L140.768 407.035L133.83 406.184L133.883 405.75ZM140.821 406.601L140.593 406.974L138.568 405.737L138.795 405.364L139.023 404.991L141.049 406.228L140.821 406.601ZM138.795 405.364L138.742 405.798L138.718 405.795L138.771 405.361L138.824 404.927L138.849 404.93L138.795 405.364ZM138.771 405.361L138.337 405.308L138.543 403.627L138.977 403.68L139.411 403.733L139.205 405.414L138.771 405.361Z" fill="#007AD9" mask="url(#path-59-inside-2_2346_11094)"/>
<path d="M137.313 405.949C138.896 406.144 140.142 406.296 140.88 406.387C141.418 406.452 141.825 406.903 141.839 407.444L142.363 427.864C142.38 428.53 141.801 429.058 141.138 428.977L128.15 427.384C127.492 427.303 127.058 426.659 127.228 426.019L132.445 406.303C132.585 405.775 133.091 405.431 133.633 405.497C134.403 405.591 135.709 405.752 137.313 405.949Z" fill="#1E2224" stroke="#007AD9" stroke-width="0.437157"/>
<mask id="path-62-inside-3_2346_11094" fill="white">
<path d="M137.966 289.37L135.374 289.735L135.138 288.058L135.122 288.06L132.836 287.391L139.758 286.417L137.756 287.69L137.73 287.693L137.966 289.37Z"/>
</mask>
<path d="M137.966 289.37L135.374 289.735L135.138 288.058L135.122 288.06L132.836 287.391L139.758 286.417L137.756 287.69L137.73 287.693L137.966 289.37Z" fill="#2F363B"/>
<path d="M137.966 289.37L138.027 289.803L138.46 289.742L138.399 289.309L137.966 289.37ZM135.374 289.735L134.941 289.796L135.002 290.229L135.435 290.168L135.374 289.735ZM135.138 288.058L135.571 287.997L135.51 287.564L135.077 287.625L135.138 288.058ZM135.122 288.06L135 288.48L135.09 288.506L135.183 288.493L135.122 288.06ZM132.836 287.391L132.775 286.958L132.713 287.81L132.836 287.391ZM139.758 286.417L139.993 286.786L139.697 285.984L139.758 286.417ZM137.756 287.69L137.817 288.123L137.91 288.109L137.99 288.059L137.756 287.69ZM137.73 287.693L137.67 287.26L137.237 287.321L137.298 287.754L137.73 287.693ZM137.966 289.37L137.905 288.937L135.313 289.302L135.374 289.735L135.435 290.168L138.027 289.803L137.966 289.37ZM135.374 289.735L135.807 289.674L135.571 287.997L135.138 288.058L134.705 288.119L134.941 289.796L135.374 289.735ZM135.138 288.058L135.077 287.625L135.061 287.627L135.122 288.06L135.183 288.493L135.199 288.491L135.138 288.058ZM135.122 288.06L135.245 287.641L132.959 286.971L132.836 287.391L132.713 287.81L135 288.48L135.122 288.06ZM132.836 287.391L132.897 287.824L139.819 286.85L139.758 286.417L139.697 285.984L132.775 286.958L132.836 287.391ZM139.758 286.417L139.524 286.048L137.521 287.321L137.756 287.69L137.99 288.059L139.993 286.786L139.758 286.417ZM137.756 287.69L137.695 287.257L137.67 287.26L137.73 287.693L137.791 288.126L137.817 288.123L137.756 287.69ZM137.73 287.693L137.298 287.754L137.533 289.431L137.966 289.37L138.399 289.309L138.163 287.632L137.73 287.693Z" fill="#007AD9" mask="url(#path-62-inside-3_2346_11094)"/>
<path d="M136.264 287.126C137.844 286.903 139.087 286.729 139.823 286.625C140.359 286.55 140.759 286.093 140.763 285.551L140.925 265.125C140.931 264.458 140.343 263.941 139.681 264.034L126.723 265.857C126.066 265.95 125.645 266.601 125.825 267.238L131.391 286.859C131.54 287.384 132.052 287.719 132.593 287.643C133.361 287.536 134.664 287.352 136.264 287.126Z" fill="#1E2224" stroke="#007AD9" stroke-width="0.437157"/>
<mask id="path-65-inside-4_2346_11094" fill="white">
<path d="M153.983 403.205L151.39 403.57L151.626 405.247L151.611 405.249L149.598 406.523L156.52 405.55L154.244 404.879L154.219 404.882L153.983 403.205Z"/>
</mask>
<path d="M153.983 403.205L151.39 403.57L151.626 405.247L151.611 405.249L149.598 406.523L156.52 405.55L154.244 404.879L154.219 404.882L153.983 403.205Z" fill="#2F363B"/>
<path d="M153.983 403.205L153.922 402.773L154.355 402.712L154.416 403.145L153.983 403.205ZM151.39 403.57L150.957 403.631L150.896 403.198L151.329 403.137L151.39 403.57ZM151.626 405.247L152.059 405.186L152.12 405.619L151.687 405.68L151.626 405.247ZM151.611 405.249L151.377 404.88L151.456 404.829L151.55 404.816L151.611 405.249ZM149.598 406.523L149.659 406.956L149.364 406.154L149.598 406.523ZM156.52 405.55L156.643 405.13L156.581 405.983L156.52 405.55ZM154.244 404.879L154.183 404.446L154.277 404.433L154.368 404.459L154.244 404.879ZM154.219 404.882L154.28 405.315L153.847 405.376L153.786 404.943L154.219 404.882ZM153.983 403.205L154.044 403.638L151.451 404.003L151.39 403.57L151.329 403.137L153.922 402.773L153.983 403.205ZM151.39 403.57L151.823 403.509L152.059 405.186L151.626 405.247L151.193 405.308L150.957 403.631L151.39 403.57ZM151.626 405.247L151.687 405.68L151.672 405.682L151.611 405.249L151.55 404.816L151.565 404.814L151.626 405.247ZM151.611 405.249L151.844 405.619L149.831 406.893L149.598 406.523L149.364 406.154L151.377 404.88L151.611 405.249ZM149.598 406.523L149.537 406.091L156.459 405.117L156.52 405.55L156.581 405.983L149.659 406.956L149.598 406.523ZM156.52 405.55L156.396 405.969L154.12 405.298L154.244 404.879L154.368 404.459L156.643 405.13L156.52 405.55ZM154.244 404.879L154.305 405.312L154.28 405.315L154.219 404.882L154.158 404.449L154.183 404.446L154.244 404.879ZM154.219 404.882L153.786 404.943L153.55 403.266L153.983 403.205L154.416 403.145L154.652 404.821L154.219 404.882Z" fill="#007AD9" mask="url(#path-65-inside-4_2346_11094)"/>
<path d="M152.965 405.831C154.545 405.61 155.788 405.434 156.524 405.331C157.06 405.255 157.571 405.584 157.724 406.104L163.515 425.692C163.704 426.332 163.282 426.991 162.62 427.084L149.662 428.907C149.005 428.999 148.42 428.49 148.418 427.828L148.355 407.432C148.353 406.887 148.753 406.423 149.294 406.347C150.062 406.239 151.365 406.056 152.965 405.831Z" fill="#1E2224" stroke="#007AD9" stroke-width="0.437157"/>
<mask id="path-68-inside-5_2346_11094" fill="white">
<path d="M123.413 293.049L121.003 294.072L120.342 292.514L120.328 292.519L117.945 292.465L124.38 289.733L122.775 291.48L122.751 291.49L123.413 293.049Z"/>
</mask>
<path d="M123.413 293.049L121.003 294.072L120.342 292.514L120.328 292.519L117.945 292.465L124.38 289.733L122.775 291.48L122.751 291.49L123.413 293.049Z" fill="#2F363B"/>
<path d="M123.413 293.049L123.584 293.451L123.987 293.28L123.816 292.878L123.413 293.049ZM121.003 294.072L120.601 294.243L120.772 294.646L121.174 294.475L121.003 294.072ZM120.342 292.514L120.744 292.343L120.573 291.94L120.171 292.111L120.342 292.514ZM120.328 292.519L120.318 292.956L120.412 292.959L120.499 292.922L120.328 292.519ZM117.945 292.465L117.774 292.062L117.935 292.902L117.945 292.465ZM124.38 289.733L124.702 290.028L124.209 289.33L124.38 289.733ZM122.775 291.48L122.946 291.883L123.033 291.846L123.097 291.776L122.775 291.48ZM122.751 291.49L122.581 291.088L122.178 291.259L122.349 291.661L122.751 291.49ZM123.413 293.049L123.242 292.647L120.832 293.67L121.003 294.072L121.174 294.475L123.584 293.451L123.413 293.049ZM121.003 294.072L121.406 293.901L120.744 292.343L120.342 292.514L119.939 292.684L120.601 294.243L121.003 294.072ZM120.342 292.514L120.171 292.111L120.157 292.117L120.328 292.519L120.499 292.922L120.512 292.916L120.342 292.514ZM120.328 292.519L120.338 292.082L117.955 292.028L117.945 292.465L117.935 292.902L120.318 292.956L120.328 292.519ZM117.945 292.465L118.116 292.867L124.55 290.135L124.38 289.733L124.209 289.33L117.774 292.062L117.945 292.465ZM124.38 289.733L124.058 289.437L122.453 291.185L122.775 291.48L123.097 291.776L124.702 290.028L124.38 289.733ZM122.775 291.48L122.604 291.078L122.581 291.088L122.751 291.49L122.922 291.893L122.946 291.883L122.775 291.48ZM122.751 291.49L122.349 291.661L123.011 293.22L123.413 293.049L123.816 292.878L123.154 291.319L122.751 291.49Z" fill="#007AD9" mask="url(#path-68-inside-5_2346_11094)"/>
<path d="M121.191 291.321C122.659 290.697 123.815 290.207 124.499 289.917C124.998 289.705 125.265 289.16 125.129 288.636L119.999 268.864C119.832 268.218 119.13 267.871 118.515 268.132L106.47 273.247C105.86 273.506 105.621 274.244 105.96 274.812L116.415 292.324C116.694 292.793 117.276 292.984 117.779 292.771C118.493 292.468 119.704 291.953 121.191 291.321Z" fill="#1E2224" stroke="#007AD9" stroke-width="0.437157"/>
<mask id="path-71-inside-6_2346_11094" fill="white">
<path d="M168.346 398.864L165.936 399.887L166.598 401.445L169.008 400.422L168.346 398.864ZM169.031 400.413L166.584 401.452L164.969 403.203L171.403 400.471L169.031 400.413Z"/>
</mask>
<path d="M168.346 398.864L165.936 399.887L166.598 401.445L169.008 400.422L168.346 398.864ZM169.031 400.413L166.584 401.452L164.969 403.203L171.403 400.471L169.031 400.413Z" fill="#2F363B"/>
<path d="M168.346 398.864L168.175 398.462L168.578 398.291L168.749 398.693L168.346 398.864ZM165.936 399.887L165.534 400.058L165.363 399.656L165.765 399.485L165.936 399.887ZM166.598 401.445L166.769 401.848L166.366 402.018L166.195 401.616L166.598 401.445ZM169.008 400.422L169.41 400.251L169.581 400.653L169.179 400.824L169.008 400.422ZM169.031 400.413L168.861 400.01L168.948 399.973L169.042 399.976L169.031 400.413ZM166.584 401.452L166.262 401.156L166.326 401.087L166.413 401.05L166.584 401.452ZM164.969 403.203L165.14 403.606L164.647 402.907L164.969 403.203ZM171.403 400.471L171.414 400.034L171.574 400.873L171.403 400.471ZM168.346 398.864L168.517 399.266L166.107 400.29L165.936 399.887L165.765 399.485L168.175 398.462L168.346 398.864ZM165.936 399.887L166.339 399.717L167 401.274L166.598 401.445L166.195 401.616L165.534 400.058L165.936 399.887ZM166.598 401.445L166.427 401.043L168.837 400.019L169.008 400.422L169.179 400.824L166.769 401.848L166.598 401.445ZM169.008 400.422L168.605 400.593L167.944 399.035L168.346 398.864L168.749 398.693L169.41 400.251L169.008 400.422ZM169.031 400.413L169.202 400.815L166.755 401.855L166.584 401.452L166.413 401.05L168.861 400.01L169.031 400.413ZM166.584 401.452L166.905 401.749L165.29 403.5L164.969 403.203L164.647 402.907L166.262 401.156L166.584 401.452ZM164.969 403.203L164.798 402.801L171.232 400.069L171.403 400.471L171.574 400.873L165.14 403.606L164.969 403.203ZM171.403 400.471L171.392 400.908L169.021 400.85L169.031 400.413L169.042 399.976L171.414 400.034L171.403 400.471Z" fill="#007AD9" mask="url(#path-71-inside-6_2346_11094)"/>
<path d="M168.04 401.663C169.509 401.04 170.664 400.549 171.348 400.258C171.847 400.046 172.425 400.232 172.708 400.694L183.371 418.116C183.719 418.685 183.482 419.431 182.867 419.692L170.822 424.807C170.212 425.066 169.515 424.725 169.341 424.086L164.002 404.402C163.859 403.876 164.125 403.324 164.628 403.111C165.341 402.807 166.553 402.293 168.04 401.663Z" fill="#1E2224" stroke="#007AD9" stroke-width="0.437157"/>
<mask id="path-74-inside-7_2346_11094" fill="white">
<path d="M110.308 300.372L108.245 301.984L107.202 300.65L109.265 299.037L110.308 300.372ZM109.285 299.021L107.189 300.658L104.875 301.223L110.383 296.918L109.285 299.021Z"/>
</mask>
<path d="M110.308 300.372L108.245 301.984L107.202 300.65L109.265 299.037L110.308 300.372ZM109.285 299.021L107.189 300.658L104.875 301.223L110.383 296.918L109.285 299.021Z" fill="#2F363B"/>
<path d="M110.308 300.372L110.577 300.716L110.921 300.447L110.652 300.102L110.308 300.372ZM108.245 301.984L107.9 302.253L108.17 302.597L108.514 302.328L108.245 301.984ZM107.202 300.65L106.933 300.305L106.589 300.574L106.858 300.919L107.202 300.65ZM109.265 299.037L109.61 298.768L109.34 298.424L108.996 298.693L109.265 299.037ZM109.285 299.021L109.554 299.365L109.628 299.307L109.672 299.223L109.285 299.021ZM107.189 300.658L107.293 301.083L107.384 301.061L107.458 301.003L107.189 300.658ZM104.875 301.223L104.606 300.878L104.979 301.647L104.875 301.223ZM110.383 296.918L110.77 297.121L110.114 296.574L110.383 296.918ZM110.308 300.372L110.039 300.027L107.976 301.639L108.245 301.984L108.514 302.328L110.577 300.716L110.308 300.372ZM108.245 301.984L108.589 301.715L107.547 300.38L107.202 300.65L106.858 300.919L107.9 302.253L108.245 301.984ZM107.202 300.65L107.471 300.994L109.534 299.382L109.265 299.037L108.996 298.693L106.933 300.305L107.202 300.65ZM109.265 299.037L108.921 299.307L109.963 300.641L110.308 300.372L110.652 300.102L109.61 298.768L109.265 299.037ZM109.285 299.021L109.015 298.677L106.92 300.314L107.189 300.658L107.458 301.003L109.554 299.365L109.285 299.021ZM107.189 300.658L107.086 300.234L104.771 300.798L104.875 301.223L104.979 301.647L107.293 301.083L107.189 300.658ZM104.875 301.223L105.144 301.567L110.652 297.263L110.383 296.918L110.114 296.574L104.606 300.878L104.875 301.223ZM110.383 296.918L109.995 296.716L108.897 298.819L109.285 299.021L109.672 299.223L110.77 297.121L110.383 296.918Z" fill="#007AD9" mask="url(#path-74-inside-7_2346_11094)"/>
<path d="M107.716 299.284C108.973 298.301 109.962 297.529 110.548 297.072C110.975 296.738 111.093 296.142 110.826 295.671L100.753 277.901C100.424 277.321 99.6564 277.166 99.1299 277.578L88.8191 285.636C88.2968 286.044 88.2572 286.819 88.7322 287.28L103.363 301.489C103.754 301.87 104.366 301.904 104.796 301.568C105.407 301.091 106.444 300.28 107.716 299.284Z" fill="#1E2224" stroke="#007AD9" stroke-width="0.437157"/>
<mask id="path-77-inside-8_2346_11094" fill="white">
<path d="M181.1 390.953L179.037 392.566L180.079 393.9L180.067 393.909L178.961 396.02L184.469 391.715L182.162 392.272L182.142 392.288L181.1 390.953Z"/>
</mask>
<path d="M181.1 390.953L179.037 392.566L180.079 393.9L180.067 393.909L178.961 396.02L184.469 391.715L182.162 392.272L182.142 392.288L181.1 390.953Z" fill="#2F363B"/>
<path d="M181.1 390.953L180.83 390.609L181.175 390.34L181.444 390.684L181.1 390.953ZM179.037 392.566L178.692 392.835L178.423 392.49L178.768 392.221L179.037 392.566ZM180.079 393.9L180.424 393.631L180.693 393.975L180.349 394.244L180.079 393.9ZM180.067 393.909L179.68 393.706L179.724 393.623L179.798 393.565L180.067 393.909ZM178.961 396.02L179.23 396.364L178.574 395.817L178.961 396.02ZM184.469 391.715L184.366 391.29L184.738 392.06L184.469 391.715ZM182.162 392.272L181.893 391.928L181.968 391.869L182.06 391.847L182.162 392.272ZM182.142 392.288L182.412 392.632L182.067 392.901L181.798 392.557L182.142 392.288ZM181.1 390.953L181.369 391.298L179.306 392.91L179.037 392.566L178.768 392.221L180.83 390.609L181.1 390.953ZM179.037 392.566L179.381 392.296L180.424 393.631L180.079 393.9L179.735 394.169L178.692 392.835L179.037 392.566ZM180.079 393.9L180.349 394.244L180.336 394.254L180.067 393.909L179.798 393.565L179.81 393.555L180.079 393.9ZM180.067 393.909L180.454 394.112L179.348 396.223L178.961 396.02L178.574 395.817L179.68 393.706L180.067 393.909ZM178.961 396.02L178.692 395.675L184.2 391.371L184.469 391.715L184.738 392.06L179.23 396.364L178.961 396.02ZM184.469 391.715L184.571 392.14L182.265 392.697L182.162 392.272L182.06 391.847L184.366 391.29L184.469 391.715ZM182.162 392.272L182.432 392.616L182.412 392.632L182.142 392.288L181.873 391.943L181.893 391.928L182.162 392.272ZM182.142 392.288L181.798 392.557L180.755 391.223L181.1 390.953L181.444 390.684L182.487 392.018L182.142 392.288Z" fill="#007AD9" mask="url(#path-77-inside-8_2346_11094)"/>
<path d="M181.53 393.734C182.788 392.752 183.777 391.979 184.362 391.521C184.789 391.187 185.395 391.218 185.788 391.591L200.597 405.659C201.081 406.119 201.045 406.901 200.518 407.312L190.208 415.37C189.685 415.778 188.924 415.629 188.591 415.057L178.338 397.426C178.064 396.954 178.179 396.353 178.609 396.016C179.22 395.538 180.257 394.729 181.53 393.734Z" fill="#1E2224" stroke="#007AD9" stroke-width="0.437157"/>
<mask id="path-80-inside-9_2346_11094" fill="white">
<path d="M99.5542 310.839L97.9788 312.93L96.6263 311.911L96.6175 311.923L94.5273 313.066L98.7335 307.483L98.2176 309.799L98.2017 309.82L99.5542 310.839Z"/>
</mask>
<path d="M99.5542 310.839L97.9788 312.93L96.6263 311.911L96.6175 311.923L94.5273 313.066L98.7335 307.483L98.2176 309.799L98.2017 309.82L99.5542 310.839Z" fill="#2F363B"/>
<path d="M99.5542 310.839L99.9034 311.102L100.166 310.753L99.8172 310.49L99.5542 310.839ZM97.9788 312.93L97.7158 313.279L98.0649 313.542L98.328 313.193L97.9788 312.93ZM96.6263 311.911L96.8894 311.562L96.5402 311.299L96.2771 311.648L96.6263 311.911ZM96.6175 311.923L96.8273 312.307L96.91 312.261L96.9667 312.186L96.6175 311.923ZM94.5273 313.066L94.1782 312.803L94.7371 313.45L94.5273 313.066ZM98.7335 307.483L99.1602 307.578L98.3843 307.22L98.7335 307.483ZM98.2176 309.799L98.5667 310.062L98.6237 309.987L98.6443 309.894L98.2176 309.799ZM98.2017 309.82L97.8525 309.557L97.5895 309.906L97.9386 310.169L98.2017 309.82ZM99.5542 310.839L99.205 310.576L97.6297 312.667L97.9788 312.93L98.328 313.193L99.9034 311.102L99.5542 310.839ZM97.9788 312.93L98.2419 312.581L96.8894 311.562L96.6263 311.911L96.3633 312.26L97.7158 313.279L97.9788 312.93ZM96.6263 311.911L96.2771 311.648L96.2683 311.66L96.6175 311.923L96.9667 312.186L96.9755 312.174L96.6263 311.911ZM96.6175 311.923L96.4077 311.54L94.3175 312.683L94.5273 313.066L94.7371 313.45L96.8273 312.307L96.6175 311.923ZM94.5273 313.066L94.8765 313.329L99.0826 307.746L98.7335 307.483L98.3843 307.22L94.1782 312.803L94.5273 313.066ZM98.7335 307.483L98.3068 307.388L97.7909 309.704L98.2176 309.799L98.6443 309.894L99.1602 307.578L98.7335 307.483ZM98.2176 309.799L97.8684 309.536L97.8525 309.557L98.2017 309.82L98.5509 310.083L98.5667 310.062L98.2176 309.799ZM98.2017 309.82L97.9386 310.169L99.2912 311.188L99.5542 310.839L99.8172 310.49L98.4647 309.471L98.2017 309.82Z" fill="#007AD9" mask="url(#path-80-inside-9_2346_11094)"/>
<path d="M96.7645 310.456C97.724 309.181 98.4796 308.179 98.9269 307.586C99.2531 307.153 99.2123 306.547 98.8325 306.161L84.5039 291.603C84.036 291.128 83.2545 291.178 82.8525 291.712L74.9785 302.164C74.5797 302.693 74.742 303.452 75.3202 303.774L93.13 313.713C93.6063 313.979 94.2059 313.854 94.5347 313.418C95.0014 312.799 95.7929 311.747 96.7645 310.456Z" fill="#1E2224" stroke="#007AD9" stroke-width="0.437157"/>
<mask id="path-83-inside-10_2346_11094" fill="white">
<path d="M191.376 380.01L189.8 382.101L191.153 383.12L191.144 383.132L190.621 385.457L194.827 379.874L192.744 381.009L192.728 381.029L191.376 380.01Z"/>
</mask>
<path d="M191.376 380.01L189.8 382.101L191.153 383.12L191.144 383.132L190.621 385.457L194.827 379.874L192.744 381.009L192.728 381.029L191.376 380.01Z" fill="#2F363B"/>
<path d="M191.376 380.01L191.027 379.747L191.29 379.398L191.639 379.661L191.376 380.01ZM189.8 382.101L189.537 382.45L189.188 382.187L189.451 381.838L189.8 382.101ZM191.153 383.12L191.416 382.771L191.765 383.034L191.502 383.383L191.153 383.12ZM191.144 383.132L190.718 383.036L190.738 382.944L190.795 382.869L191.144 383.132ZM190.621 385.457L190.97 385.72L190.195 385.361L190.621 385.457ZM194.827 379.874L194.618 379.49L195.176 380.137L194.827 379.874ZM192.744 381.009L192.394 380.746L192.451 380.67L192.534 380.625L192.744 381.009ZM192.728 381.029L193.077 381.292L192.814 381.641L192.465 381.378L192.728 381.029ZM191.376 380.01L191.725 380.273L190.15 382.364L189.8 382.101L189.451 381.838L191.027 379.747L191.376 380.01ZM189.8 382.101L190.063 381.752L191.416 382.771L191.153 383.12L190.89 383.469L189.537 382.45L189.8 382.101ZM191.153 383.12L191.502 383.383L191.493 383.395L191.144 383.132L190.795 382.869L190.804 382.857L191.153 383.12ZM191.144 383.132L191.571 383.228L191.048 385.553L190.621 385.457L190.195 385.361L190.718 383.036L191.144 383.132ZM190.621 385.457L190.272 385.194L194.478 379.611L194.827 379.874L195.176 380.137L190.97 385.72L190.621 385.457ZM194.827 379.874L195.036 380.258L192.953 381.393L192.744 381.009L192.534 380.625L194.618 379.49L194.827 379.874ZM192.744 381.009L193.093 381.272L193.077 381.292L192.728 381.029L192.379 380.766L192.394 380.746L192.744 381.009ZM192.728 381.029L192.465 381.378L191.113 380.359L191.376 380.01L191.639 379.661L192.991 380.68L192.728 381.029Z" fill="#007AD9" mask="url(#path-83-inside-10_2346_11094)"/>
<path d="M192.514 382.585C193.475 381.311 194.23 380.308 194.677 379.714C195.003 379.282 195.596 379.154 196.072 379.412L214.018 389.168C214.604 389.487 214.772 390.252 214.37 390.786L206.496 401.238C206.096 401.767 205.323 401.82 204.853 401.354L190.387 386.977C190 386.592 189.954 385.981 190.283 385.545C190.749 384.926 191.542 383.875 192.514 382.585Z" fill="#1E2224" stroke="#007AD9" stroke-width="0.437157"/>
<mask id="path-86-inside-11_2346_11094" fill="white">
<path d="M91.8654 323.726L90.8849 326.154L89.3148 325.52L89.3093 325.533L87.5859 327.18L90.2041 320.697L90.3048 323.069L90.2953 323.092L91.8654 323.726Z"/>
</mask>
<path d="M91.8654 323.726L90.8849 326.154L89.3148 325.52L89.3093 325.533L87.5859 327.18L90.2041 320.697L90.3048 323.069L90.2953 323.092L91.8654 323.726Z" fill="#2F363B"/>
<path d="M91.8654 323.726L92.2707 323.89L92.4345 323.485L92.0291 323.321L91.8654 323.726ZM90.8849 326.154L90.7212 326.559L91.1266 326.723L91.2903 326.318L90.8849 326.154ZM89.3148 325.52L89.4785 325.114L89.0732 324.951L88.9094 325.356L89.3148 325.52ZM89.3093 325.533L89.6113 325.85L89.6794 325.784L89.7147 325.697L89.3093 325.533ZM87.5859 327.18L87.1806 327.016L87.8879 327.496L87.5859 327.18ZM90.2041 320.697L90.6408 320.679L89.7987 320.534L90.2041 320.697ZM90.3048 323.069L90.7101 323.232L90.7456 323.145L90.7415 323.05L90.3048 323.069ZM90.2953 323.092L89.8899 322.928L89.7262 323.334L90.1316 323.498L90.2953 323.092ZM91.8654 323.726L91.4601 323.563L90.4796 325.99L90.8849 326.154L91.2903 326.318L92.2707 323.89L91.8654 323.726ZM90.8849 326.154L91.0486 325.749L89.4785 325.114L89.3148 325.52L89.1511 325.925L90.7212 326.559L90.8849 326.154ZM89.3148 325.52L88.9094 325.356L88.904 325.37L89.3093 325.533L89.7147 325.697L89.7201 325.684L89.3148 325.52ZM89.3093 325.533L89.0073 325.217L87.284 326.864L87.5859 327.18L87.8879 327.496L89.6113 325.85L89.3093 325.533ZM87.5859 327.18L87.9913 327.343L90.6094 320.861L90.2041 320.697L89.7987 320.534L87.1806 327.016L87.5859 327.18ZM90.2041 320.697L89.7673 320.716L89.868 323.087L90.3048 323.069L90.7415 323.05L90.6408 320.679L90.2041 320.697ZM90.3048 323.069L89.8994 322.905L89.8899 322.928L90.2953 323.092L90.7006 323.256L90.7101 323.232L90.3048 323.069ZM90.2953 323.092L90.1316 323.498L91.7017 324.132L91.8654 323.726L92.0291 323.321L90.459 322.687L90.2953 323.092Z" fill="#007AD9" mask="url(#path-86-inside-11_2346_11094)"/>
<path d="M89.0719 324.077C89.6688 322.598 90.1392 321.434 90.4177 320.745C90.6208 320.243 90.4246 319.668 89.9578 319.394L72.3496 309.04C71.7746 308.702 71.0326 308.953 70.7824 309.572L65.8819 321.706C65.6338 322.321 65.9868 323.011 66.6288 323.173L86.4041 328.164C86.933 328.297 87.4799 328.022 87.6845 327.515C87.9751 326.796 88.4675 325.576 89.0719 324.077Z" fill="#1E2224" stroke="#007AD9" stroke-width="0.437157"/>
<mask id="path-89-inside-12_2346_11094" fill="white">
<path d="M198.461 366.778L197.48 369.206L199.05 369.84L199.045 369.853L199.141 372.234L201.758 365.753L200.04 367.389L200.031 367.412L198.461 366.778Z"/>
</mask>
<path d="M198.461 366.778L197.48 369.206L199.05 369.84L199.045 369.853L199.141 372.234L201.758 365.753L200.04 367.389L200.031 367.412L198.461 366.778Z" fill="#2F363B"/>
<path d="M198.461 366.778L198.055 366.614L198.219 366.209L198.624 366.373L198.461 366.778ZM197.48 369.206L197.316 369.611L196.911 369.447L197.075 369.042L197.48 369.206ZM199.05 369.84L199.214 369.434L199.619 369.598L199.456 370.003L199.05 369.84ZM199.045 369.853L198.608 369.871L198.604 369.777L198.639 369.69L199.045 369.853ZM199.141 372.234L199.546 372.398L198.704 372.252L199.141 372.234ZM201.758 365.753L201.457 365.436L202.164 365.917L201.758 365.753ZM200.04 367.389L199.635 367.225L199.67 367.137L199.739 367.072L200.04 367.389ZM200.031 367.412L200.436 367.576L200.272 367.981L199.867 367.817L200.031 367.412ZM198.461 366.778L198.866 366.942L197.886 369.369L197.48 369.206L197.075 369.042L198.055 366.614L198.461 366.778ZM197.48 369.206L197.644 368.8L199.214 369.434L199.05 369.84L198.887 370.245L197.316 369.611L197.48 369.206ZM199.05 369.84L199.456 370.003L199.45 370.017L199.045 369.853L198.639 369.69L198.645 369.676L199.05 369.84ZM199.045 369.853L199.482 369.836L199.577 372.217L199.141 372.234L198.704 372.252L198.608 369.871L199.045 369.853ZM199.141 372.234L198.735 372.071L201.353 365.589L201.758 365.753L202.164 365.917L199.546 372.398L199.141 372.234ZM201.758 365.753L202.06 366.069L200.342 367.705L200.04 367.389L199.739 367.072L201.457 365.436L201.758 365.753ZM200.04 367.389L200.446 367.552L200.436 367.576L200.031 367.412L199.625 367.248L199.635 367.225L200.04 367.389ZM200.031 367.412L199.867 367.817L198.297 367.183L198.461 366.778L198.624 366.373L200.195 367.007L200.031 367.412Z" fill="#007AD9" mask="url(#path-89-inside-12_2346_11094)"/>
<path d="M200.227 368.969C200.825 367.49 201.294 366.326 201.572 365.637C201.775 365.134 202.316 364.857 202.842 364.984L222.702 369.763C223.35 369.919 223.71 370.614 223.46 371.234L218.559 383.368C218.311 383.982 217.577 384.234 217.003 383.905L199.308 373.762C198.835 373.491 198.633 372.912 198.837 372.406C199.128 371.687 199.621 370.467 200.227 368.969Z" fill="#1E2224" stroke="#007AD9" stroke-width="0.437157"/>
<mask id="path-92-inside-13_2346_11094" fill="white">
<path d="M86.1012 337.939L86.0981 337.964L87.7779 338.17L87.4592 340.769L85.7794 340.563L85.7775 340.578L84.5391 342.613L85.3901 335.675L86.1012 337.939Z"/>
</mask>
<path d="M86.1012 337.939L86.0981 337.964L87.7779 338.17L87.4592 340.769L85.7794 340.563L85.7775 340.578L84.5391 342.613L85.3901 335.675L86.1012 337.939Z" fill="#2F363B"/>
<path d="M86.1012 337.939L86.5351 337.992L86.5467 337.898L86.5183 337.808L86.1012 337.939ZM86.0981 337.964L85.6642 337.911L85.611 338.345L86.0449 338.398L86.0981 337.964ZM87.7779 338.17L88.2118 338.223L88.2651 337.789L87.8312 337.736L87.7779 338.17ZM87.4592 340.769L87.406 341.202L87.8399 341.256L87.8931 340.822L87.4592 340.769ZM85.7794 340.563L85.8326 340.129L85.3987 340.075L85.3455 340.509L85.7794 340.563ZM85.7775 340.578L86.151 340.805L86.1999 340.725L86.2114 340.631L85.7775 340.578ZM84.5391 342.613L84.1052 342.56L84.9125 342.841L84.5391 342.613ZM85.3901 335.675L85.8071 335.544L84.9562 335.622L85.3901 335.675ZM86.1012 337.939L85.6673 337.885L85.6642 337.911L86.0981 337.964L86.532 338.017L86.5351 337.992L86.1012 337.939ZM86.0981 337.964L86.0449 338.398L87.7247 338.604L87.7779 338.17L87.8312 337.736L86.1514 337.53L86.0981 337.964ZM87.7779 338.17L87.344 338.117L87.0253 340.715L87.4592 340.769L87.8931 340.822L88.2118 338.223L87.7779 338.17ZM87.4592 340.769L87.5124 340.335L85.8326 340.129L85.7794 340.563L85.7262 340.996L87.406 341.202L87.4592 340.769ZM85.7794 340.563L85.3455 340.509L85.3436 340.525L85.7775 340.578L86.2114 340.631L86.2133 340.616L85.7794 340.563ZM85.7775 340.578L85.404 340.351L84.1656 342.386L84.5391 342.613L84.9125 342.841L86.151 340.805L85.7775 340.578ZM84.5391 342.613L84.973 342.667L85.824 335.728L85.3901 335.675L84.9562 335.622L84.1052 342.56L84.5391 342.613ZM85.3901 335.675L84.973 335.806L85.6842 338.07L86.1012 337.939L86.5183 337.808L85.8071 335.544L85.3901 335.675Z" fill="#007AD9" mask="url(#path-92-inside-13_2346_11094)"/>
<path d="M85.1744 339.233C85.368 337.649 85.5213 336.403 85.6119 335.666C85.6781 335.128 85.3398 334.623 84.8179 334.479L65.13 329.036C64.4872 328.858 63.8353 329.292 63.7539 329.955L62.1608 342.944C62.0803 343.602 62.6001 344.178 63.2622 344.168L83.6552 343.87C84.2006 343.862 84.6575 343.454 84.7241 342.912C84.8187 342.143 84.9784 340.836 85.1744 339.233Z" fill="#1E2224" stroke="#007AD9" stroke-width="0.437157"/>
<mask id="path-95-inside-14_2346_11094" fill="white">
<path d="M201.883 352.168L201.564 354.767L203.245 354.973L203.243 354.987L203.953 357.262L204.804 350.323L203.567 352.348L203.564 352.374L201.883 352.168Z"/>
</mask>
<path d="M201.883 352.168L201.564 354.767L203.245 354.973L203.243 354.987L203.953 357.262L204.804 350.323L203.567 352.348L203.564 352.374L201.883 352.168Z" fill="#2F363B"/>
<path d="M201.883 352.168L201.449 352.115L201.502 351.681L201.936 351.734L201.883 352.168ZM201.564 354.767L201.511 355.201L201.077 355.147L201.13 354.714L201.564 354.767ZM203.245 354.973L203.298 354.539L203.732 354.592L203.679 355.026L203.245 354.973ZM203.243 354.987L202.826 355.118L202.798 355.028L202.809 354.934L203.243 354.987ZM203.953 357.262L204.387 357.315L203.536 357.392L203.953 357.262ZM204.804 350.323L204.431 350.096L205.238 350.377L204.804 350.323ZM203.567 352.348L203.133 352.295L203.145 352.201L203.194 352.12L203.567 352.348ZM203.564 352.374L203.998 352.427L203.944 352.861L203.511 352.808L203.564 352.374ZM201.883 352.168L202.317 352.221L201.998 354.82L201.564 354.767L201.13 354.714L201.449 352.115L201.883 352.168ZM201.564 354.767L201.618 354.333L203.298 354.539L203.245 354.973L203.192 355.407L201.511 355.201L201.564 354.767ZM203.245 354.973L203.679 355.026L203.677 355.041L203.243 354.987L202.809 354.934L202.811 354.92L203.245 354.973ZM203.243 354.987L203.661 354.857L204.37 357.131L203.953 357.262L203.536 357.392L202.826 355.118L203.243 354.987ZM203.953 357.262L203.519 357.208L204.37 350.27L204.804 350.323L205.238 350.377L204.387 357.315L203.953 357.262ZM204.804 350.323L205.177 350.551L203.94 352.576L203.567 352.348L203.194 352.12L204.431 350.096L204.804 350.323ZM203.567 352.348L204.001 352.401L203.998 352.427L203.564 352.374L203.13 352.321L203.133 352.295L203.567 352.348ZM203.564 352.374L203.511 352.808L201.83 352.602L201.883 352.168L201.936 351.734L203.617 351.94L203.564 352.374Z" fill="#007AD9" mask="url(#path-95-inside-14_2346_11094)"/>
<path d="M204.16 353.828C204.355 352.244 204.507 350.999 204.598 350.261C204.663 349.723 205.114 349.315 205.655 349.302L226.075 348.778C226.741 348.761 227.269 349.339 227.188 350.002L225.595 362.991C225.514 363.649 224.87 364.082 224.23 363.913L204.514 358.695C203.986 358.556 203.641 358.049 203.708 357.507C203.802 356.738 203.963 355.432 204.16 353.828Z" fill="#1E2224" stroke="#007AD9" stroke-width="0.437157"/>
<mask id="path-98-inside-15_2346_11094" fill="white">
<path d="M87.5732 353.182L87.9379 355.775L86.261 356.011L86.2631 356.025L85.5938 358.312L84.62 351.39L85.8928 353.393L85.8963 353.418L87.5732 353.182Z"/>
</mask>
<path d="M87.5732 353.182L87.9379 355.775L86.261 356.011L86.2631 356.025L85.5938 358.312L84.62 351.39L85.8928 353.393L85.8963 353.418L87.5732 353.182Z" fill="#2F363B"/>
<path d="M87.5732 353.182L88.0061 353.121L87.9452 352.688L87.5123 352.749L87.5732 353.182ZM87.9379 355.775L87.9988 356.208L88.4317 356.147L88.3708 355.714L87.9379 355.775ZM86.261 356.011L86.2001 355.578L85.7673 355.639L85.8281 356.071L86.261 356.011ZM86.2631 356.025L86.6826 356.148L86.7091 356.057L86.696 355.964L86.2631 356.025ZM85.5938 358.312L85.1609 358.373L86.0133 358.435L85.5938 358.312ZM84.62 351.39L84.9889 351.156L84.1871 351.451L84.62 351.39ZM85.8928 353.393L86.3257 353.332L86.3125 353.238L86.2617 353.158L85.8928 353.393ZM85.8963 353.418L85.4634 353.479L85.5243 353.912L85.9572 353.851L85.8963 353.418ZM87.5732 353.182L87.1403 353.243L87.505 355.836L87.9379 355.775L88.3708 355.714L88.0061 353.121L87.5732 353.182ZM87.9379 355.775L87.877 355.342L86.2001 355.578L86.261 356.011L86.3219 356.443L87.9988 356.208L87.9379 355.775ZM86.261 356.011L85.8281 356.071L85.8302 356.086L86.2631 356.025L86.696 355.964L86.6939 355.95L86.261 356.011ZM86.2631 356.025L85.8435 355.902L85.1742 358.19L85.5938 358.312L86.0133 358.435L86.6826 356.148L86.2631 356.025ZM85.5938 358.312L86.0266 358.252L85.0529 351.33L84.62 351.39L84.1871 351.451L85.1609 358.373L85.5938 358.312ZM84.62 351.39L84.2511 351.625L85.5239 353.627L85.8928 353.393L86.2617 353.158L84.9889 351.156L84.62 351.39ZM85.8928 353.393L85.4599 353.454L85.4634 353.479L85.8963 353.418L86.3292 353.357L86.3257 353.332L85.8928 353.393ZM85.8963 353.418L85.9572 353.851L87.6341 353.615L87.5732 353.182L87.5123 352.749L85.8354 352.985L85.8963 353.418Z" fill="#007AD9" mask="url(#path-98-inside-15_2346_11094)"/>
<path d="M85.3291 354.881C85.1061 353.301 84.9317 352.058 84.8285 351.322C84.7531 350.785 84.2958 350.386 83.7543 350.381L63.3285 350.219C62.6616 350.214 62.1442 350.802 62.2373 351.463L64.0601 364.422C64.1527 365.078 64.8038 365.5 65.4408 365.319L85.0619 359.753C85.5867 359.605 85.9223 359.092 85.8464 358.551C85.7386 357.783 85.5548 356.48 85.3291 354.881Z" fill="#1E2224" stroke="#007AD9" stroke-width="0.437157"/>
<mask id="path-101-inside-16_2346_11094" fill="white">
<path d="M201.413 337.167L201.777 339.759L203.454 339.523L203.456 339.537L204.73 341.551L203.757 334.629L203.086 336.905L203.089 336.931L201.413 337.167Z"/>
</mask>
<path d="M201.413 337.167L201.777 339.759L203.454 339.523L203.456 339.537L204.73 341.551L203.757 334.629L203.086 336.905L203.089 336.931L201.413 337.167Z" fill="#2F363B"/>
<path d="M201.413 337.167L200.98 337.227L200.919 336.795L201.352 336.734L201.413 337.167ZM201.777 339.759L201.838 340.192L201.405 340.253L201.344 339.82L201.777 339.759ZM203.454 339.523L203.393 339.09L203.826 339.029L203.887 339.462L203.454 339.523ZM203.456 339.537L203.087 339.771L203.036 339.691L203.023 339.598L203.456 339.537ZM204.73 341.551L205.163 341.49L204.361 341.785L204.73 341.551ZM203.757 334.629L203.337 334.505L204.19 334.568L203.757 334.629ZM203.086 336.905L202.653 336.965L202.64 336.872L202.666 336.781L203.086 336.905ZM203.089 336.931L203.522 336.87L203.583 337.303L203.15 337.364L203.089 336.931ZM201.413 337.167L201.845 337.106L202.21 339.698L201.777 339.759L201.344 339.82L200.98 337.227L201.413 337.167ZM201.777 339.759L201.716 339.326L203.393 339.09L203.454 339.523L203.515 339.956L201.838 340.192L201.777 339.759ZM203.454 339.523L203.887 339.462L203.889 339.476L203.456 339.537L203.023 339.598L203.021 339.584L203.454 339.523ZM203.456 339.537L203.825 339.303L205.1 341.317L204.73 341.551L204.361 341.785L203.087 339.771L203.456 339.537ZM204.73 341.551L204.298 341.612L203.324 334.69L203.757 334.629L204.19 334.568L205.163 341.49L204.73 341.551ZM203.757 334.629L204.176 334.752L203.505 337.028L203.086 336.905L202.666 336.781L203.337 334.505L203.757 334.629ZM203.086 336.905L203.519 336.844L203.522 336.87L203.089 336.931L202.657 336.992L202.653 336.965L203.086 336.905ZM203.089 336.931L203.15 337.364L201.473 337.599L201.413 337.167L201.352 336.734L203.029 336.498L203.089 336.931Z" fill="#007AD9" mask="url(#path-101-inside-16_2346_11094)"/>
<path d="M204.034 338.183C203.813 336.603 203.638 335.36 203.534 334.625C203.458 334.088 203.788 333.578 204.307 333.424L223.895 327.633C224.535 327.444 225.194 327.867 225.287 328.528L227.11 341.487C227.202 342.143 226.693 342.728 226.031 342.73L205.636 342.793C205.09 342.795 204.626 342.395 204.55 341.854C204.442 341.087 204.259 339.783 204.034 338.183Z" fill="#1E2224" stroke="#007AD9" stroke-width="0.437157"/>
<mask id="path-104-inside-17_2346_11094" fill="white">
<path d="M91.2521 367.731L92.2754 370.141L90.7167 370.803L90.7225 370.817L90.668 373.199L87.9355 366.764L89.6835 368.37L89.6934 368.393L91.2521 367.731Z"/>
</mask>
<path d="M91.2521 367.731L92.2754 370.141L90.7167 370.803L90.7225 370.817L90.668 373.199L87.9355 366.764L89.6835 368.37L89.6934 368.393L91.2521 367.731Z" fill="#2F363B"/>
<path d="M91.2521 367.731L91.6545 367.56L91.4836 367.158L91.0812 367.329L91.2521 367.731ZM92.2754 370.141L92.4463 370.544L92.8487 370.373L92.6778 369.97L92.2754 370.141ZM90.7167 370.803L90.5459 370.401L90.1435 370.572L90.3144 370.974L90.7167 370.803ZM90.7225 370.817L91.1595 370.827L91.1617 370.732L91.1249 370.646L90.7225 370.817ZM90.668 373.199L90.2656 373.37L91.105 373.209L90.668 373.199ZM87.9355 366.764L88.2312 366.442L87.5331 366.935L87.9355 366.764ZM89.6835 368.37L90.0859 368.199L90.0489 368.112L89.9792 368.048L89.6835 368.37ZM89.6934 368.393L89.2911 368.564L89.4619 368.966L89.8643 368.796L89.6934 368.393ZM91.2521 367.731L90.8497 367.902L91.873 370.312L92.2754 370.141L92.6778 369.97L91.6545 367.56L91.2521 367.731ZM92.2754 370.141L92.1045 369.739L90.5459 370.401L90.7167 370.803L90.8876 371.205L92.4463 370.544L92.2754 370.141ZM90.7167 370.803L90.3144 370.974L90.3201 370.987L90.7225 370.817L91.1249 370.646L91.1191 370.632L90.7167 370.803ZM90.7225 370.817L90.2854 370.807L90.2309 373.189L90.668 373.199L91.105 373.209L91.1595 370.827L90.7225 370.817ZM90.668 373.199L91.0704 373.028L88.3378 366.593L87.9355 366.764L87.5331 366.935L90.2656 373.37L90.668 373.199ZM87.9355 366.764L87.6397 367.086L89.3878 368.692L89.6835 368.37L89.9792 368.048L88.2312 366.442L87.9355 366.764ZM89.6835 368.37L89.2811 368.541L89.2911 368.564L89.6934 368.393L90.0958 368.222L90.0859 368.199L89.6835 368.37ZM89.6934 368.393L89.8643 368.796L91.423 368.134L91.2521 367.731L91.0812 367.329L89.5226 367.991L89.6934 368.393Z" fill="#007AD9" mask="url(#path-104-inside-17_2346_11094)"/>
<path d="M89.5283 369.954C88.9041 368.485 88.414 367.33 88.1237 366.646C87.912 366.147 87.3669 365.879 86.8428 366.015L67.071 371.145C66.4254 371.313 66.0778 372.015 66.3389 372.63L71.4536 384.675C71.7129 385.285 72.4509 385.524 73.0195 385.184L90.5314 374.73C90.9998 374.45 91.1914 373.868 90.9781 373.366C90.6753 372.652 90.1604 371.441 89.5283 369.954Z" fill="#1E2224" stroke="#007AD9" stroke-width="0.437157"/>
<mask id="path-107-inside-18_2346_11094" fill="white">
<path d="M198.619 322.114L198.629 322.137L197.071 322.798L198.094 325.208L199.652 324.547L199.658 324.56L201.41 326.176L198.678 319.742L198.619 322.114Z"/>
</mask>
<path d="M198.619 322.114L198.629 322.137L197.071 322.798L198.094 325.208L199.652 324.547L199.658 324.56L201.41 326.176L198.678 319.742L198.619 322.114Z" fill="#2F363B"/>
<path d="M198.619 322.114L198.217 322.284L198.18 322.197L198.182 322.103L198.619 322.114ZM198.629 322.137L199.031 321.966L199.202 322.368L198.8 322.539L198.629 322.137ZM197.071 322.798L196.669 322.969L196.498 322.567L196.9 322.396L197.071 322.798ZM198.094 325.208L198.265 325.611L197.863 325.781L197.692 325.379L198.094 325.208ZM199.652 324.547L199.481 324.144L199.884 323.974L200.055 324.376L199.652 324.547ZM199.658 324.56L199.362 324.882L199.292 324.818L199.256 324.731L199.658 324.56ZM201.41 326.176L201.813 326.005L201.114 326.497L201.41 326.176ZM198.678 319.742L198.241 319.731L199.08 319.571L198.678 319.742ZM198.619 322.114L199.021 321.943L199.031 321.966L198.629 322.137L198.226 322.308L198.217 322.284L198.619 322.114ZM198.629 322.137L198.8 322.539L197.242 323.201L197.071 322.798L196.9 322.396L198.458 321.734L198.629 322.137ZM197.071 322.798L197.473 322.627L198.497 325.037L198.094 325.208L197.692 325.379L196.669 322.969L197.071 322.798ZM198.094 325.208L197.924 324.806L199.481 324.144L199.652 324.547L199.823 324.949L198.265 325.611L198.094 325.208ZM199.652 324.547L200.055 324.376L200.06 324.389L199.658 324.56L199.256 324.731L199.25 324.718L199.652 324.547ZM199.658 324.56L199.954 324.239L201.706 325.854L201.41 326.176L201.114 326.497L199.362 324.882L199.658 324.56ZM201.41 326.176L201.008 326.347L198.276 319.912L198.678 319.742L199.08 319.571L201.813 326.005L201.41 326.176ZM198.678 319.742L199.115 319.752L199.056 322.124L198.619 322.114L198.182 322.103L198.241 319.731L198.678 319.742Z" fill="#007AD9" mask="url(#path-107-inside-18_2346_11094)"/>
<path d="M199.87 323.104C199.247 321.636 198.756 320.48 198.465 319.797C198.253 319.298 198.439 318.72 198.901 318.437L216.323 307.773C216.892 307.425 217.638 307.663 217.899 308.278L223.014 320.323C223.273 320.933 222.932 321.63 222.293 321.803L202.609 327.143C202.083 327.286 201.531 327.02 201.318 326.517C201.014 325.803 200.5 324.592 199.87 323.104Z" fill="#1E2224" stroke="#007AD9" stroke-width="0.437157"/>
<mask id="path-110-inside-19_2346_11094" fill="white">
<path d="M98.576 380.83L100.188 382.893L98.8547 383.935L97.2425 381.873L98.576 380.83ZM97.2255 381.852L98.8623 383.947L99.4258 386.262L95.1215 380.754L97.2255 381.852Z"/>
</mask>
<path d="M98.576 380.83L100.188 382.893L98.8547 383.935L97.2425 381.873L98.576 380.83ZM97.2255 381.852L98.8623 383.947L99.4258 386.262L95.1215 380.754L97.2255 381.852Z" fill="#2F363B"/>
<path d="M98.576 380.83L98.9205 380.561L98.6513 380.217L98.3068 380.486L98.576 380.83ZM100.188 382.893L100.457 383.238L100.802 382.969L100.533 382.624L100.188 382.893ZM98.8547 383.935L98.5102 384.205L98.7794 384.549L99.1239 384.28L98.8547 383.935ZM97.2425 381.873L96.9733 381.528L96.6289 381.797L96.8981 382.142L97.2425 381.873ZM97.2255 381.852L97.57 381.583L97.5117 381.509L97.4278 381.465L97.2255 381.852ZM98.8623 383.947L99.2871 383.843L99.2648 383.752L99.2068 383.678L98.8623 383.947ZM99.4258 386.262L99.0813 386.531L99.8505 386.158L99.4258 386.262ZM95.1215 380.754L95.3238 380.366L94.777 381.023L95.1215 380.754ZM98.576 380.83L98.2316 381.1L99.8437 383.163L100.188 382.893L100.533 382.624L98.9205 380.561L98.576 380.83ZM100.188 382.893L99.919 382.549L98.5855 383.591L98.8547 383.935L99.1239 384.28L100.457 383.238L100.188 382.893ZM98.8547 383.935L99.1991 383.666L97.587 381.603L97.2425 381.873L96.8981 382.142L98.5102 384.205L98.8547 383.935ZM97.2425 381.873L97.5117 382.217L98.8452 381.175L98.576 380.83L98.3068 380.486L96.9733 381.528L97.2425 381.873ZM97.2255 381.852L96.8811 382.122L98.5179 384.216L98.8623 383.947L99.2068 383.678L97.57 381.583L97.2255 381.852ZM98.8623 383.947L98.4376 384.05L99.001 386.365L99.4258 386.262L99.8505 386.158L99.2871 383.843L98.8623 383.947ZM99.4258 386.262L99.7702 385.993L95.4659 380.485L95.1215 380.754L94.777 381.023L99.0813 386.531L99.4258 386.262ZM95.1215 380.754L94.9191 381.141L97.0232 382.24L97.2255 381.852L97.4278 381.465L95.3238 380.366L95.1215 380.754Z" fill="#007AD9" mask="url(#path-110-inside-19_2346_11094)"/>
<path d="M97.4837 383.428C96.5006 382.171 95.7282 381.182 95.2708 380.596C94.9372 380.169 94.3413 380.052 93.8703 380.319L76.0999 390.391C75.5198 390.72 75.3656 391.488 75.777 392.015L83.8348 402.325C84.2433 402.848 85.0179 402.887 85.4792 402.412L99.6887 387.782C100.069 387.39 100.103 386.779 99.7671 386.348C99.2898 385.737 98.479 384.701 97.4837 383.428Z" fill="#1E2224" stroke="#007AD9" stroke-width="0.437157"/>
<mask id="path-113-inside-20_2346_11094" fill="white">
<path d="M189.153 310.046L190.765 312.108L192.099 311.065L192.109 311.077L194.219 312.184L189.914 306.676L190.471 308.982L190.487 309.003L189.153 310.046Z"/>
</mask>
<path d="M189.153 310.046L190.765 312.108L192.099 311.065L192.109 311.077L194.219 312.184L189.914 306.676L190.471 308.982L190.487 309.003L189.153 310.046Z" fill="#2F363B"/>
<path d="M189.153 310.046L188.809 310.315L188.54 309.97L188.884 309.701L189.153 310.046ZM190.765 312.108L191.034 312.452L190.69 312.721L190.42 312.377L190.765 312.108ZM192.099 311.065L191.83 310.721L192.174 310.451L192.444 310.796L192.099 311.065ZM192.109 311.077L191.906 311.465L191.822 311.421L191.764 311.347L192.109 311.077ZM194.219 312.184L194.563 311.914L194.016 312.571L194.219 312.184ZM189.914 306.676L189.489 306.778L190.259 306.407L189.914 306.676ZM190.471 308.982L190.127 309.251L190.069 309.177L190.046 309.085L190.471 308.982ZM190.487 309.003L190.832 308.734L191.101 309.078L190.757 309.347L190.487 309.003ZM189.153 310.046L189.498 309.776L191.109 311.839L190.765 312.108L190.42 312.377L188.809 310.315L189.153 310.046ZM190.765 312.108L190.496 311.763L191.83 310.721L192.099 311.065L192.368 311.41L191.034 312.452L190.765 312.108ZM192.099 311.065L192.444 310.796L192.453 310.808L192.109 311.077L191.764 311.347L191.755 311.334L192.099 311.065ZM192.109 311.077L192.312 310.69L194.422 311.796L194.219 312.184L194.016 312.571L191.906 311.465L192.109 311.077ZM194.219 312.184L193.874 312.453L189.57 306.945L189.914 306.676L190.259 306.407L194.563 311.914L194.219 312.184ZM189.914 306.676L190.339 306.573L190.896 308.88L190.471 308.982L190.046 309.085L189.489 306.778L189.914 306.676ZM190.471 308.982L190.816 308.713L190.832 308.734L190.487 309.003L190.143 309.272L190.127 309.251L190.471 308.982ZM190.487 309.003L190.757 309.347L189.422 310.39L189.153 310.046L188.884 309.701L190.218 308.658L190.487 309.003Z" fill="#007AD9" mask="url(#path-113-inside-20_2346_11094)"/>
<path d="M191.937 309.61C190.955 308.353 190.182 307.364 189.724 306.779C189.391 306.352 189.421 305.745 189.794 305.353L203.862 290.543C204.322 290.06 205.104 290.096 205.515 290.622L213.573 300.933C213.981 301.456 213.832 302.217 213.26 302.55L195.629 312.802C195.157 313.076 194.556 312.962 194.219 312.532C193.742 311.921 192.932 310.884 191.937 309.61Z" fill="#1E2224" stroke="#007AD9" stroke-width="0.437157"/>
<mask id="path-116-inside-21_2346_11094" fill="white">
<path d="M109.038 391.594L111.129 393.169L110.11 394.522L110.122 394.531L111.266 396.621L105.682 392.415L107.998 392.931L108.019 392.946L109.038 391.594Z"/>
</mask>
<path d="M109.038 391.594L111.129 393.169L110.11 394.522L110.122 394.531L111.266 396.621L105.682 392.415L107.998 392.931L108.019 392.946L109.038 391.594Z" fill="#2F363B"/>
<path d="M109.038 391.594L109.301 391.244L108.951 390.981L108.688 391.331L109.038 391.594ZM111.129 393.169L111.478 393.432L111.741 393.083L111.392 392.82L111.129 393.169ZM110.11 394.522L109.761 394.258L109.498 394.608L109.847 394.871L110.11 394.522ZM110.122 394.531L110.506 394.321L110.461 394.238L110.385 394.182L110.122 394.531ZM111.266 396.621L111.003 396.97L111.649 396.411L111.266 396.621ZM105.682 392.415L105.777 391.988L105.419 392.764L105.682 392.415ZM107.998 392.931L108.261 392.582L108.186 392.525L108.093 392.504L107.998 392.931ZM108.019 392.946L107.756 393.295L108.105 393.558L108.368 393.209L108.019 392.946ZM109.038 391.594L108.774 391.943L110.866 393.518L111.129 393.169L111.392 392.82L109.301 391.244L109.038 391.594ZM111.129 393.169L110.78 392.906L109.761 394.258L110.11 394.522L110.459 394.785L111.478 393.432L111.129 393.169ZM110.11 394.522L109.847 394.871L109.859 394.88L110.122 394.531L110.385 394.182L110.373 394.172L110.11 394.522ZM110.122 394.531L109.739 394.741L110.882 396.831L111.266 396.621L111.649 396.411L110.506 394.321L110.122 394.531ZM111.266 396.621L111.529 396.272L105.945 392.066L105.682 392.415L105.419 392.764L111.003 396.97L111.266 396.621ZM105.682 392.415L105.587 392.842L107.903 393.358L107.998 392.931L108.093 392.504L105.777 391.988L105.682 392.415ZM107.998 392.931L107.735 393.28L107.756 393.295L108.019 392.946L108.282 392.597L108.261 392.582L107.998 392.931ZM108.019 392.946L108.368 393.209L109.387 391.857L109.038 391.594L108.688 391.331L107.669 392.683L108.019 392.946Z" fill="#007AD9" mask="url(#path-116-inside-21_2346_11094)"/>
<path d="M108.659 394.38C107.385 393.42 106.382 392.665 105.789 392.218C105.356 391.891 104.75 391.932 104.364 392.312L89.8065 406.641C89.3313 407.109 89.3811 407.89 89.9147 408.292L100.367 416.166C100.896 416.565 101.655 416.403 101.978 415.824L111.916 398.015C112.182 397.538 112.057 396.939 111.621 396.61C111.002 396.143 109.95 395.352 108.659 394.38Z" fill="#1E2224" stroke="#007AD9" stroke-width="0.437157"/>
<mask id="path-119-inside-22_2346_11094" fill="white">
<path d="M179.208 298.405L179.229 298.421L178.211 299.773L180.302 301.348L181.32 299.996L181.332 300.005L183.656 300.527L178.073 296.321L179.208 298.405Z"/>
</mask>
<path d="M179.208 298.405L179.229 298.421L178.211 299.773L180.302 301.348L181.32 299.996L181.332 300.005L183.656 300.527L178.073 296.321L179.208 298.405Z" fill="#2F363B"/>
<path d="M179.208 298.405L178.945 298.754L178.869 298.697L178.824 298.614L179.208 298.405ZM179.229 298.421L179.492 298.072L179.841 298.335L179.578 298.684L179.229 298.421ZM178.211 299.773L177.948 300.122L177.598 299.859L177.861 299.509L178.211 299.773ZM180.302 301.348L180.651 301.611L180.388 301.96L180.039 301.697L180.302 301.348ZM181.32 299.996L180.971 299.733L181.234 299.384L181.583 299.647L181.32 299.996ZM181.332 300.005L181.236 300.431L181.144 300.411L181.069 300.354L181.332 300.005ZM183.656 300.527L183.919 300.178L183.56 300.954L183.656 300.527ZM178.073 296.321L177.689 296.53L178.336 295.972L178.073 296.321ZM179.208 298.405L179.471 298.056L179.492 298.072L179.229 298.421L178.966 298.77L178.945 298.754L179.208 298.405ZM179.229 298.421L179.578 298.684L178.56 300.036L178.211 299.773L177.861 299.509L178.88 298.158L179.229 298.421ZM178.211 299.773L178.474 299.423L180.565 300.999L180.302 301.348L180.039 301.697L177.948 300.122L178.211 299.773ZM180.302 301.348L179.953 301.085L180.971 299.733L181.32 299.996L181.669 300.259L180.651 301.611L180.302 301.348ZM181.32 299.996L181.583 299.647L181.595 299.656L181.332 300.005L181.069 300.354L181.057 300.345L181.32 299.996ZM181.332 300.005L181.428 299.578L183.752 300.101L183.656 300.527L183.56 300.954L181.236 300.431L181.332 300.005ZM183.656 300.527L183.393 300.877L177.81 296.67L178.073 296.321L178.336 295.972L183.919 300.178L183.656 300.527ZM178.073 296.321L178.457 296.112L179.592 298.196L179.208 298.405L178.824 298.614L177.689 296.53L178.073 296.321Z" fill="#007AD9" mask="url(#path-119-inside-22_2346_11094)"/>
<path d="M180.784 298.634C179.51 297.674 178.507 296.919 177.914 296.472C177.481 296.146 177.353 295.552 177.611 295.076L187.368 277.13C187.686 276.545 188.451 276.377 188.985 276.779L199.437 284.653C199.966 285.052 200.019 285.826 199.553 286.295L185.176 300.762C184.791 301.149 184.181 301.194 183.744 300.866C183.125 300.399 182.074 299.607 180.784 298.634Z" fill="#1E2224" stroke="#007AD9" stroke-width="0.437157"/>
<mask id="path-122-inside-23_2346_11094" fill="white">
<path d="M121.929 399.275L124.357 400.256L123.723 401.826L123.737 401.831L125.383 403.555L118.901 400.937L121.272 400.836L121.295 400.845L121.929 399.275Z"/>
</mask>
<path d="M121.929 399.275L124.357 400.256L123.723 401.826L123.737 401.831L125.383 403.555L118.901 400.937L121.272 400.836L121.295 400.845L121.929 399.275Z" fill="#2F363B"/>
<path d="M121.929 399.275L122.093 398.87L121.688 398.706L121.524 399.112L121.929 399.275ZM124.357 400.256L124.762 400.419L124.926 400.014L124.521 399.85L124.357 400.256ZM123.723 401.826L123.318 401.662L123.154 402.067L123.559 402.231L123.723 401.826ZM123.737 401.831L124.053 401.529L123.988 401.461L123.9 401.426L123.737 401.831ZM125.383 403.555L125.219 403.96L125.699 403.253L125.383 403.555ZM118.901 400.937L118.883 400.5L118.738 401.342L118.901 400.937ZM121.272 400.836L121.435 400.431L121.348 400.395L121.253 400.399L121.272 400.836ZM121.295 400.845L121.132 401.251L121.537 401.414L121.701 401.009L121.295 400.845ZM121.929 399.275L121.766 399.681L124.193 400.661L124.357 400.256L124.521 399.85L122.093 398.87L121.929 399.275ZM124.357 400.256L123.952 400.092L123.318 401.662L123.723 401.826L124.128 401.99L124.762 400.419L124.357 400.256ZM123.723 401.826L123.559 402.231L123.573 402.237L123.737 401.831L123.9 401.426L123.887 401.42L123.723 401.826ZM123.737 401.831L123.42 402.133L125.067 403.857L125.383 403.555L125.699 403.253L124.053 401.529L123.737 401.831ZM125.383 403.555L125.547 403.149L119.065 400.532L118.901 400.937L118.738 401.342L125.219 403.96L125.383 403.555ZM118.901 400.937L118.92 401.374L121.29 401.273L121.272 400.836L121.253 400.399L118.883 400.5L118.901 400.937ZM121.272 400.836L121.108 401.241L121.132 401.251L121.295 400.845L121.459 400.44L121.435 400.431L121.272 400.836ZM121.295 400.845L121.701 401.009L122.335 399.439L121.929 399.275L121.524 399.112L120.89 400.682L121.295 400.845Z" fill="#007AD9" mask="url(#path-122-inside-23_2346_11094)"/>
<path d="M122.285 402.069C120.805 401.472 119.641 401.001 118.952 400.723C118.45 400.52 117.875 400.716 117.601 401.183L107.247 418.791C106.909 419.366 107.16 420.108 107.779 420.358L119.913 425.259C120.528 425.507 121.218 425.154 121.38 424.512L126.371 404.737C126.504 404.208 126.229 403.661 125.722 403.456C125.003 403.166 123.783 402.673 122.285 402.069Z" fill="#1E2224" stroke="#007AD9" stroke-width="0.437157"/>
<mask id="path-125-inside-24_2346_11094" fill="white">
<path d="M164.986 292.681L167.412 293.661L168.046 292.091L168.06 292.097L170.441 292L163.96 289.382L165.595 291.101L165.62 291.111L164.986 292.681Z"/>
</mask>
<path d="M164.986 292.681L167.412 293.661L168.046 292.091L168.06 292.097L170.441 292L163.96 289.382L165.595 291.101L165.62 291.111L164.986 292.681Z" fill="#2F363B"/>
<path d="M164.986 292.681L164.822 293.087L164.417 292.923L164.58 292.518L164.986 292.681ZM167.412 293.661L167.818 293.825L167.654 294.23L167.249 294.067L167.412 293.661ZM168.046 292.091L167.641 291.927L167.805 291.522L168.21 291.686L168.046 292.091ZM168.06 292.097L168.078 292.533L167.984 292.537L167.896 292.502L168.06 292.097ZM170.441 292L170.605 291.595L170.459 292.437L170.441 292ZM163.96 289.382L163.643 289.684L164.124 288.977L163.96 289.382ZM165.595 291.101L165.432 291.507L165.344 291.471L165.279 291.403L165.595 291.101ZM165.62 291.111L165.783 290.706L166.189 290.869L166.025 291.275L165.62 291.111ZM164.986 292.681L165.149 292.276L167.576 293.256L167.412 293.661L167.249 294.067L164.822 293.087L164.986 292.681ZM167.412 293.661L167.007 293.498L167.641 291.927L168.046 292.091L168.452 292.255L167.818 293.825L167.412 293.661ZM168.046 292.091L168.21 291.686L168.224 291.691L168.06 292.097L167.896 292.502L167.883 292.497L168.046 292.091ZM168.06 292.097L168.042 291.66L170.424 291.563L170.441 292L170.459 292.437L168.078 292.533L168.06 292.097ZM170.441 292L170.278 292.405L163.796 289.788L163.96 289.382L164.124 288.977L170.605 291.595L170.441 292ZM163.96 289.382L164.277 289.081L165.912 290.8L165.595 291.101L165.279 291.403L163.643 289.684L163.96 289.382ZM165.595 291.101L165.759 290.696L165.783 290.706L165.62 291.111L165.456 291.516L165.432 291.507L165.595 291.101ZM165.62 291.111L166.025 291.275L165.391 292.845L164.986 292.681L164.58 292.518L165.214 290.947L165.62 291.111Z" fill="#007AD9" mask="url(#path-125-inside-24_2346_11094)"/>
<path d="M167.176 290.914C165.697 290.316 164.533 289.846 163.844 289.568C163.341 289.365 163.064 288.825 163.191 288.299L167.97 268.439C168.126 267.791 168.821 267.431 169.441 267.681L181.575 272.581C182.189 272.83 182.441 273.564 182.112 274.138L171.969 291.832C171.698 292.306 171.12 292.508 170.613 292.303C169.894 292.013 168.674 291.52 167.176 290.914Z" fill="#1E2224" stroke="#007AD9" stroke-width="0.437157"/>
<defs>
<filter id="filter0_f_2346_11094" x="199.163" y="137.038" width="204.093" height="204.093" filterUnits="userSpaceOnUse" color-interpolation-filters="sRGB">
<feFlood flood-opacity="0" result="BackgroundImageFix"/>
<feBlend mode="normal" in="SourceGraphic" in2="BackgroundImageFix" result="shape"/>
<feGaussianBlur stdDeviation="23.2897" result="effect1_foregroundBlur_2346_11094"/>
</filter>
<filter id="filter1_f_2346_11094" x="28.5934" y="282.109" width="195.47" height="195.47" filterUnits="userSpaceOnUse" color-interpolation-filters="sRGB">
<feFlood flood-opacity="0" result="BackgroundImageFix"/>
<feBlend mode="normal" in="SourceGraphic" in2="BackgroundImageFix" result="shape"/>
<feGaussianBlur stdDeviation="25.1584" result="effect1_foregroundBlur_2346_11094"/>
</filter>
<linearGradient id="paint0_linear_2346_11094" x1="301.209" y1="183.632" x2="301.209" y2="294.535" gradientUnits="userSpaceOnUse">
<stop stop-color="#37E4FF"/>
<stop offset="1" stop-color="#39FF14"/>
</linearGradient>
<linearGradient id="paint1_linear_2346_11094" x1="126.327" y1="332.435" x2="126.327" y2="427.251" gradientUnits="userSpaceOnUse">
<stop stop-color="#37E4FF"/>
<stop offset="1" stop-color="#39FF14"/>
</linearGradient>
</defs>
</svg>
