<svg width="246" height="95" viewBox="0 0 246 95" fill="none" xmlns="http://www.w3.org/2000/svg">
<path d="M77.2024 70.6634C62.9682 70.6634 51.3911 59.6762 51.3911 46.1672V23.6523H60.6591C63.2845 23.6523 65.7019 25.6637 65.7019 28.1553V46.1672C65.7019 51.2406 68.9782 55.2396 73.8495 56.6055C75.8422 57.1609 77.2024 58.9471 77.2024 60.9134V70.6634Z" fill="#0079D1"/>
<path d="M18.7764 70.808V61.4235C18.7764 59.4814 20.1411 57.7617 22.1247 57.1835C26.6156 55.8492 29.6547 51.9353 29.6547 47.3098C29.6547 41.5873 24.9018 36.9321 18.7922 36.9321V23.7969C32.6617 23.7969 43.9604 34.3377 43.9604 47.3098C43.9445 60.2523 32.6617 70.808 18.7764 70.808Z" fill="#0079D1"/>
<path d="M28.9092 35.8379C29.3778 36.1618 29.8181 36.5193 30.2246 36.9092H28.9092V35.8379ZM60.7773 23.6875C63.5011 23.6875 65.7002 25.6878 65.7002 28.165V36.9092H46.4258C44.428 31.2501 40.1888 26.537 34.6963 23.6875H60.7773Z" fill="#0079D1"/>
<path d="M62.2174 9.0524C62.2174 7.92069 62.8522 6.92212 63.7976 6.41618C63.6085 5.81704 63.3519 5.2179 63.0143 4.6587C62.6766 4.08619 62.2985 3.56694 61.8663 3.10094C61.7718 3.15419 61.6637 3.20745 61.5557 3.26071C60.6914 3.64682 59.6514 3.64682 58.7601 3.12757C57.7607 2.56837 57.207 1.51654 57.234 0.464721C55.978 0.185122 54.6545 0.171808 53.358 0.464721C53.3715 1.52986 52.8313 2.56837 51.8319 3.14088C50.8325 3.71339 49.644 3.66014 48.7257 3.11425C47.8343 4.07288 47.1726 5.2179 46.7944 6.42949C47.7398 6.93543 48.3746 7.934 48.3746 9.06571C48.3746 10.1974 47.7398 11.196 46.7944 11.7019C46.9835 12.3011 47.2401 12.9002 47.5777 13.4594C47.9154 14.0319 48.2935 14.5512 48.7257 15.0039C48.8202 14.9506 48.9283 14.8973 49.0363 14.8441C49.9006 14.458 50.9406 14.4713 51.8319 14.9772C52.8313 15.5364 53.385 16.5882 53.358 17.6401C54.614 17.9197 55.9375 17.933 57.234 17.6401C57.2205 16.5749 57.7607 15.5364 58.7601 14.9639C59.7595 14.3914 60.948 14.4447 61.8663 14.9905C62.7577 14.0319 63.4194 12.8869 63.7976 11.6753C62.8522 11.1694 62.2174 10.1841 62.2174 9.0524ZM54.9381 14.8441V9.85125H51.8724L55.6404 3.24739V8.24023H58.7061L54.9381 14.8441Z" fill="#0079D1"/>
<path d="M124 22.9102C135.244 22.9102 143.145 27.6609 143.145 39.9443V69.8184H135.026C132.557 69.8184 130.555 67.8165 130.555 65.3477V64.2969C127.256 69.1332 122.35 70.8027 116.836 70.8027C107.807 70.8027 101.034 66.3513 101.034 57.1924C101.034 45.5509 112.061 42.4268 122.089 42.4268H125.174V49.918C120.564 49.9349 113.624 50.3917 113.624 56.4219C113.624 60.4877 116.706 61.9424 120.44 61.9424C125.476 61.9423 130.424 59.3321 130.424 53.7686L130.276 49.916H130.242V42.4268H130.276C130.276 36.2638 129.817 32.1115 122.524 32.1113C118.443 32.1113 114.405 33.9519 113.016 38.0176L103.161 33.7812C106.2 25.521 115.621 22.9102 124 22.9102Z" fill="#008A00"/>
<path d="M82.2578 70.7667V8.90985C82.2578 7.10093 83.3479 5.47028 85.0195 4.77882L95.9674 0.25V66.2961C95.9674 68.7651 93.9659 70.7667 91.4969 70.7667H82.2578Z" fill="#008A00"/>
<path d="M0 94.3682V23.8516H13.733C13.733 28.4058 13.733 30.3975 13.733 47.0633C13.733 66.5228 13.733 56.0982 13.733 63.5906V68.7915V89.8977C13.733 92.3667 11.7315 94.3682 9.26245 94.3682H0Z" fill="#0079D1"/>
<path d="M161.684 39.3105L161.78 43.8984C161.719 44.7044 161.703 45.5551 161.734 46.4492C162.02 54.5629 164.739 60.3115 173.866 60.3115C182.993 60.3114 186.158 54.3168 186.158 46.4492C186.158 38.5815 182.856 33.8009 173.866 33.8008C170.918 33.8008 168.567 34.2877 166.75 35.2295V26.7676C169.357 24.7177 172.81 23.4912 178.04 23.4912C187.368 23.4913 199.562 27.3696 199.562 46.4492C199.562 65.5288 188.91 70.8018 178.452 70.8018C167.995 70.8017 164.83 67.9986 161.895 62.0752V69.7617H148.272V0.34375H161.684V39.3105Z" fill="#008A00"/>
<path d="M245.531 28.7979L220.751 60.6826H241.198C243.667 60.6826 245.668 62.6844 245.668 65.1533V70.7266H202.377V65.6826L221.463 41.4717L235.475 23.7539H245.531V28.7979ZM221.107 33.7979H206.848C204.379 33.7977 202.377 31.796 202.377 29.3271V23.7539H229.05L221.107 33.7979Z" fill="#008A00"/>
</svg>
