<svg width="61" height="61" viewBox="0 0 61 61" fill="none" xmlns="http://www.w3.org/2000/svg">
<path d="M42.8469 9.33798C41.7777 9.33151 40.7346 9.66792 39.8707 10.2979C39.0068 10.9278 38.3676 11.818 38.0469 12.838L36.0469 19.213C35.1259 19.2469 34.2191 19.4503 33.3719 19.813L28.7969 14.888L25.4719 11.188C24.9868 11.6323 24.5941 12.168 24.3164 12.7643C24.0387 13.3607 23.8814 14.006 23.8536 14.6632C23.8257 15.3205 23.9278 15.9767 24.154 16.5945C24.3802 17.2122 24.7261 17.7792 25.1719 18.263L29.6969 23.188C29.4745 23.5951 29.2904 24.0219 29.1469 24.463C29.0155 24.8955 28.9234 25.3389 28.8719 25.788L22.3469 27.238L17.4469 28.338C17.5888 28.9803 17.8561 29.5882 18.2335 30.127C18.6108 30.6658 19.0908 31.1249 19.6458 31.4779C20.2009 31.8309 20.8201 32.0709 21.4681 32.1842C22.116 32.2975 22.78 32.2818 23.4219 32.138L29.9469 30.663C30.4338 31.446 31.061 32.1324 31.7969 32.688L29.7969 39.063L28.2969 43.838C29.56 44.2296 30.9268 44.1048 32.0981 43.491C33.2695 42.8772 34.1499 41.8244 34.5469 40.563L36.5719 34.213C37.4928 34.179 38.3996 33.9756 39.2469 33.613L43.7969 38.538L47.1219 42.213C48.0976 41.3198 48.6796 40.0765 48.7405 38.7551C48.8014 37.4338 48.3363 36.1421 47.4469 35.163L42.9219 30.238C43.1357 29.83 43.3114 29.4032 43.4469 28.963C43.6052 28.5248 43.7224 28.0729 43.7969 27.613L50.2719 26.163L55.1469 25.088C54.8599 23.7961 54.0724 22.6707 52.9571 21.9584C51.8418 21.2461 50.4896 21.005 49.1969 21.288L42.6719 22.738C42.1825 21.964 41.5555 21.2861 40.8219 20.738L42.8219 14.338L44.3219 9.58798C43.8455 9.43115 43.3483 9.34687 42.8469 9.33798ZM36.4469 22.963C36.7782 22.9779 37.106 23.0368 37.4219 23.138C38.3697 23.4368 39.1601 24.0997 39.6195 24.981C40.0789 25.8623 40.1696 26.8898 39.8719 27.838C39.573 28.7858 38.9101 29.5762 38.0289 30.0356C37.1476 30.495 36.12 30.5858 35.1719 30.288C34.2241 29.9891 33.4336 29.3262 32.9743 28.445C32.5149 27.5637 32.4241 26.5361 32.7219 25.588C32.9672 24.8063 33.4618 24.1266 34.1299 23.6525C34.7981 23.1785 35.6031 22.9363 36.4219 22.963M20.0469 34.638C16.9969 36.788 13.5219 37.963 10.0469 37.963H5.04688V42.963H10.0469C13.4719 42.963 16.8969 42.088 20.0469 40.463C21.9719 41.463 23.9969 42.113 26.0719 42.488L27.3969 38.313L27.6219 37.663C24.9719 37.288 22.3719 36.263 20.0469 34.638ZM51.1719 37.963C51.2969 39.713 50.8719 41.488 49.8219 42.963H55.0469V37.963H51.1719ZM20.0469 44.638C16.9969 46.788 13.5219 47.963 10.0469 47.963H5.04688V52.963H10.0469C13.4719 52.963 16.8969 52.088 20.0469 50.463C26.2969 53.713 33.7969 53.713 40.0469 50.463C43.1969 52.088 46.5969 52.963 50.0469 52.963H55.0469V47.963H50.0469C46.5719 47.963 43.0969 46.788 40.0469 44.638C33.9469 48.913 26.1469 48.913 20.0469 44.638Z" fill="white"/>
</svg>
