<svg width="50" height="51" viewBox="0 0 50 51" fill="none" xmlns="http://www.w3.org/2000/svg">
<g clip-path="url(#clip0_2447_14495)">
<g clip-path="url(#clip1_2447_14495)">
<path d="M43.7406 37.9622C43.7594 38.7945 43.6118 39.6222 43.3063 40.3967C43.0008 41.1711 42.5437 41.8768 41.9618 42.4721C41.3799 43.0675 40.6849 43.5406 39.9176 43.8637C39.1504 44.1868 38.3263 44.3533 37.4937 44.3535C36.6612 44.3537 35.8371 44.1876 35.0696 43.8649C34.3022 43.5422 33.6069 43.0694 33.0247 42.4744C32.4425 41.8793 31.9851 41.1739 31.6792 40.3996C31.3734 39.6253 31.2253 38.7977 31.2437 37.9653C31.2798 36.3323 31.9538 34.7784 33.1213 33.6361C34.2889 32.4938 35.8572 31.8539 37.4906 31.8535C39.124 31.8531 40.6927 32.4922 41.8608 33.6339C43.0289 34.7756 43.7037 36.3292 43.7406 37.9622Z" fill="white"/>
<path d="M36.5547 50.4629C34.0547 50.4629 31.5547 49.8379 29.3672 48.2754L9.99219 37.9629C8.42969 36.7129 7.17969 36.0879 5.92969 34.8379C2.17969 31.0879 -0.0078125 25.7754 -0.0078125 20.4629C-0.0078125 15.1504 2.17969 10.1504 5.92969 6.40039C9.67969 2.65039 14.6797 0.462891 19.9922 0.462891C25.3047 0.462891 30.3047 2.65039 34.3672 6.40039C35.6172 7.65039 36.2422 8.58789 37.4922 10.1504L48.4297 30.1504C51.5547 35.4629 50.6172 42.0254 46.2422 46.4004C43.4297 49.2129 40.3047 50.4629 36.5547 50.4629ZM19.9922 3.58789C15.6172 3.58789 11.2422 5.46289 8.11719 8.58789C4.99219 11.7129 3.11719 16.0879 3.11719 20.4629C3.11719 25.1504 4.99219 29.2129 8.11719 32.3379C9.05469 33.2754 9.99219 33.9004 11.5547 34.8379L31.2422 45.4629C33.1172 46.7129 34.9922 47.0254 36.8672 47.0254C39.6797 47.0254 42.1797 46.0879 44.0547 43.9004C47.4922 40.4629 48.1172 35.4629 45.6172 31.4004L34.6797 11.4004C33.7422 10.1504 33.1172 9.21289 32.1797 8.27539C28.7422 5.46289 24.6797 3.58789 19.9922 3.58789Z" fill="white"/>
<path d="M34.3672 22.3379V19.2129L29.9922 17.6504C29.6797 17.0254 29.6797 16.7129 29.3672 16.0879L31.2422 12.0254L29.0547 9.83789L24.9922 11.7129C24.3672 11.4004 24.0547 11.4004 23.4297 11.0879L21.8672 6.71289H18.7422L17.1797 11.0879C16.5547 11.4004 16.2422 11.4004 15.6172 11.7129L11.5547 9.83789L9.36719 12.0254L11.2422 16.0879C10.9297 16.7129 10.9297 17.0254 10.6172 17.6504L6.24219 19.2129V22.3379L10.6172 23.9004C10.9297 24.5254 10.9297 24.8379 11.2422 25.4629L9.36719 29.5254L11.5547 31.7129L15.6172 29.8379C16.2422 30.1504 16.5547 30.4629 17.1797 30.4629L18.7422 34.8379H21.8672L23.4297 30.4629C24.0547 30.1504 24.3672 30.1504 24.9922 29.8379L29.0547 31.7129L31.2422 29.5254L29.3672 25.4629C29.6797 24.8379 29.9922 24.5254 29.9922 23.9004L34.3672 22.3379ZM20.3047 25.4629C17.8047 25.4629 15.6172 23.2754 15.6172 20.7754C15.6172 18.2754 17.8047 16.0879 20.3047 16.0879C22.8047 16.0879 24.9922 18.2754 24.9922 20.7754C24.9922 23.2754 22.8047 25.4629 20.3047 25.4629Z" fill="white"/>
</g>
</g>
<defs>
<clipPath id="clip0_2447_14495">
<rect width="50" height="50" fill="white" transform="translate(-0.0078125 0.462891)"/>
</clipPath>
<clipPath id="clip1_2447_14495">
<rect width="50" height="50" fill="white" transform="translate(-0.0078125 0.462891)"/>
</clipPath>
</defs>
</svg>
