<svg width="61" height="61" viewBox="0 0 61 61" fill="none" xmlns="http://www.w3.org/2000/svg">
<path d="M8.01562 42.9629V17.9629C8.01562 16.6368 8.54241 15.365 9.48009 14.4274C10.4178 13.4897 11.6895 12.9629 13.0156 12.9629H48.0156C49.3417 12.9629 50.6135 13.4897 51.5512 14.4274C52.4888 15.365 53.0156 16.6368 53.0156 17.9629V42.9629C53.0156 44.289 52.4888 45.5607 51.5512 46.4984C50.6135 47.4361 49.3417 47.9629 48.0156 47.9629H13.0156C11.6895 47.9629 10.4178 47.4361 9.48009 46.4984C8.54241 45.5607 8.01563 44.289 8.01562 42.9629Z" stroke="white" stroke-width="3.75"/>
<path d="M29.6831 22.9629L25.5156 30.4629H35.5156L31.3481 37.9629M15.5156 20.4629H18.0156" stroke="white" stroke-width="3.75" stroke-linecap="round" stroke-linejoin="round"/>
</svg>
