<svg width="51" height="51" viewBox="0 0 51 51" fill="none" xmlns="http://www.w3.org/2000/svg">
<path d="M4.45312 12.7767C4.45312 9.64128 6.07812 6.36003 8.61979 4.44336C8.61979 6.20378 10.0573 8.61003 12.7865 8.61003C14.4441 8.61003 16.0338 9.26851 17.2059 10.4406C18.378 11.6127 19.0365 13.2024 19.0365 14.86C19.0365 15.6642 18.8719 16.4267 18.5948 17.1329C20.1401 18.3594 21.6619 19.6152 23.1594 20.8996L18.826 25.2329C17.5421 23.7351 16.2863 22.2133 15.0594 20.6684C14.3362 20.957 13.5651 21.1068 12.7865 21.11C8.18229 21.11 4.45312 17.3809 4.45312 12.7767ZM29.7698 27.0434L32.5635 24.2496C33.8573 24.9156 35.2897 25.2675 36.7448 25.2767C39.2312 25.2767 41.6158 24.289 43.3739 22.5308C45.1321 20.7727 46.1198 18.3881 46.1198 15.9017C46.1198 14.3913 45.7281 12.9829 45.0927 11.7204L37.7865 19.0267L33.6198 14.86L40.926 7.55378C39.6323 6.88774 38.1999 6.53587 36.7448 6.52669C34.2584 6.52669 31.8738 7.51441 30.1157 9.27257C28.3575 11.0307 27.3698 13.4153 27.3698 15.9017C27.3698 17.4121 27.7615 18.8204 28.3969 20.0829L6.53646 41.9434L10.7031 46.11L24.9698 31.8434C28.8935 35.8691 33.0514 39.6597 37.4219 43.1954L40.3906 45.5892L43.5156 42.4642L41.1219 39.4954C37.5862 35.125 33.7956 30.967 29.7698 27.0434Z" fill="white"/>
</svg>
