<svg width="47" height="51" viewBox="0 0 47 51" fill="none" xmlns="http://www.w3.org/2000/svg">
<path d="M23.5227 50.3516C19.3477 50.3516 15.6227 46.6016 13.2727 40.1766C13.0977 39.6766 13.3477 39.1016 13.8727 38.9516C14.3727 38.7516 14.9227 39.0266 15.0977 39.5266C17.1227 45.1016 20.2727 48.4266 23.5227 48.4266C25.8727 48.4266 28.1977 46.7266 30.0727 43.6266C30.2085 43.4147 30.4218 43.2643 30.667 43.2074C30.9122 43.1506 31.1699 43.1918 31.3851 43.3222C31.6004 43.4527 31.7561 43.6621 31.8192 43.9057C31.8822 44.1494 31.8476 44.4081 31.7227 44.6266C29.4727 48.3266 26.5727 50.3516 23.5227 50.3516ZM33.2977 39.6516C33.2039 39.6493 33.1112 39.6325 33.0227 39.6016C32.4977 39.4266 32.2727 38.9016 32.3727 38.3766C33.5227 34.8766 34.0727 30.8016 34.0727 26.6016C34.0727 16.9766 30.9477 8.45156 26.4977 5.70156C25.8727 6.60156 24.7727 7.30156 23.5227 7.30156C21.6227 7.30156 20.0477 5.75156 20.0477 3.82656C20.0477 1.90156 21.6227 0.351562 23.5227 0.351562C25.4477 0.351562 27.0227 1.87656 27.0477 3.77656C32.3477 6.60156 36.0227 15.8766 36.0227 26.6016C36.0227 30.9766 35.3977 35.2516 34.2227 38.9766C34.0977 39.3766 33.7227 39.6516 33.2977 39.6516ZM23.5227 2.27656C22.6727 2.27656 21.9727 2.97656 21.9727 3.82656C21.9727 4.67656 22.6977 5.35156 23.5227 5.35156C24.3977 5.35156 25.1227 4.67656 25.1227 3.82656C25.1227 2.97656 24.3977 2.27656 23.5227 2.27656ZM3.72266 41.7016C1.79766 41.7016 0.222656 40.1266 0.222656 38.2266C0.222656 37.0016 0.872656 35.9016 1.84766 35.2766C1.49766 29.2516 7.72266 21.3766 17.2727 15.9016C21.2477 13.6516 25.3977 12.0266 29.3227 11.2016C29.7727 11.0766 30.3477 11.4016 30.4477 11.9266C30.5727 12.4516 30.2477 12.9766 29.7727 13.0766C26.0227 13.8766 22.0477 15.4266 18.2727 17.5766C9.67266 22.5016 3.77266 29.5516 3.77266 34.7516C5.67266 34.7766 7.27266 36.3266 7.27266 38.2266C7.27266 40.1516 5.64766 41.7016 3.72266 41.7016ZM3.72266 36.6766C2.87266 36.6766 2.17266 37.3766 2.17266 38.2266C2.17266 39.1016 2.87266 39.7766 3.72266 39.7766C4.57266 39.7766 5.29766 39.1016 5.29766 38.2266C5.29766 37.3766 4.57266 36.6766 3.72266 36.6766ZM39.7727 28.9516C39.5977 28.9516 39.3727 28.8766 39.1977 28.7266C39.0038 28.5564 38.8847 28.3168 38.866 28.0595C38.8473 27.8023 38.9305 27.548 39.0977 27.3516C42.9477 22.8516 44.2727 18.5016 42.6227 15.7016C41.4477 13.6766 38.7727 12.5516 35.0977 12.5016C34.5477 12.5016 34.1227 12.0516 34.1477 11.5266C34.1477 11.0016 34.5977 10.6016 35.1227 10.5766C39.4977 10.6266 42.7727 12.1016 44.2977 14.7266C46.3977 18.3266 45.0227 23.3766 40.5727 28.6016C40.3727 28.8266 40.0977 28.9516 39.7727 28.9516ZM34.7727 42.6016C29.7727 42.6016 23.3727 40.7516 17.2727 37.2766C13.3977 35.0516 9.94766 32.3266 7.27266 29.4266C7.09794 29.2403 7.00071 28.9945 7.00071 28.7391C7.00071 28.4837 7.09794 28.2378 7.27266 28.0516C7.72266 27.7016 8.32266 27.7266 8.69766 28.1266C11.2227 30.8766 14.5227 33.4766 18.2477 35.6016C26.5227 40.3516 35.4477 41.9266 40.1477 39.6516C39.9477 39.2266 39.7727 38.7266 39.7727 38.2266C39.7727 36.3016 41.3977 34.7516 43.3227 34.7516C45.2477 34.7516 46.8227 36.3016 46.8227 38.2266C46.8205 38.8521 46.6502 39.4655 46.3298 40.0026C46.0093 40.5398 45.5503 40.9809 45.0009 41.2799C44.4515 41.5789 43.8318 41.7247 43.2067 41.7021C42.5816 41.6796 41.9741 41.4894 41.4477 41.1516C39.6977 42.1266 37.4227 42.6016 34.7727 42.6016ZM42.2727 39.4266C42.5977 39.6266 42.9477 39.7766 43.3227 39.7766C43.7337 39.7766 44.128 39.6133 44.4187 39.3226C44.7094 39.0319 44.8727 38.6376 44.8727 38.2266C44.8727 37.8155 44.7094 37.4212 44.4187 37.1305C44.128 36.8399 43.7337 36.6766 43.3227 36.6766C42.4477 36.6766 41.7727 37.3766 41.7727 38.2266C41.7727 38.5766 41.8977 38.9016 42.0977 39.1766C42.1977 39.2266 42.2727 39.3266 42.2727 39.4266ZM4.67266 25.3516C4.34766 25.3516 4.02266 25.1516 3.84766 24.8516C1.59766 20.9766 1.22266 17.3766 2.77266 14.7016C4.87266 11.1016 9.97266 9.75156 16.7977 10.9766C17.2727 11.0766 17.6727 11.6016 17.5727 12.1016C17.4977 12.6266 16.9977 12.9766 16.4727 12.8516C10.5727 11.8266 6.02266 12.8516 4.44766 15.6766C3.24766 17.7266 3.62266 20.6266 5.52266 23.8766C5.77266 24.3516 5.62266 24.9266 5.14766 25.2016C4.99766 25.2766 4.84766 25.3516 4.67266 25.3516ZM24.0477 28.8516C23.4509 28.9842 22.8259 28.8743 22.3102 28.5461C21.7945 28.2179 21.4303 27.6983 21.2977 27.1016C21.165 26.5048 21.2749 25.8798 21.6031 25.3641C21.9313 24.8484 22.4509 24.4842 23.0477 24.3516C24.2977 24.1016 25.5477 24.8766 25.7977 26.1266C26.0227 27.3516 25.2727 28.5766 24.0477 28.8516Z" fill="white"/>
</svg>
