<svg width="61" height="61" viewBox="0 0 61 61" fill="none" xmlns="http://www.w3.org/2000/svg">
<path d="M30.7578 50.9023C24.0078 50.9023 17.4453 47.5273 13.5078 41.5273H23.2578V37.7773H8.25781V52.7773H12.0078V45.8398C16.6953 51.4648 23.4453 54.6523 30.7578 54.6523V50.9023ZM58.8828 43.4023V39.6523H54.9453C54.7578 38.5273 54.1953 37.4023 53.6328 36.2773L56.4453 33.4648L53.8203 30.8398L51.0078 33.6523C50.0703 33.0898 48.9453 32.5273 47.6328 32.3398V28.4023H43.8828V32.3398C42.7578 32.5273 41.6328 33.0898 40.5078 33.6523L37.6953 30.8398L35.0703 33.4648L37.8828 36.2773C37.3203 37.2148 36.7578 38.3398 36.5703 39.6523H32.6328V43.4023H36.5703C36.7578 44.5273 37.3203 45.6523 37.8828 46.7773L35.0703 49.5898L37.6953 52.2148L40.5078 49.4023C41.4453 49.9648 42.5703 50.5273 43.8828 50.7148V54.6523H47.6328V50.7148C48.7578 50.5273 49.8828 49.9648 51.0078 49.4023L53.8203 52.2148L56.4453 49.5898L53.6328 46.7773C54.1953 45.8398 54.7578 44.7148 54.9453 43.4023H58.8828ZM45.7578 47.1523C42.5703 47.1523 40.1328 44.7148 40.1328 41.5273C40.1328 38.3398 42.5703 35.9023 45.7578 35.9023C48.9453 35.9023 51.3828 38.3398 51.3828 41.5273C51.3828 44.7148 48.9453 47.1523 45.7578 47.1523ZM38.2578 19.0273H48.0078C41.8203 9.46484 29.0703 6.83984 19.5078 13.0273C13.6953 16.7773 10.1328 23.3398 10.1328 30.2773H6.38281C6.38281 16.7773 17.2578 5.90234 30.7578 5.90234C38.0703 5.90234 44.8203 9.08984 49.5078 14.7148V7.77734H53.2578V22.7773H38.2578V19.0273Z" fill="white"/>
</svg>
