<svg width="46" height="45" viewBox="0 0 46 45" fill="none" xmlns="http://www.w3.org/2000/svg">
<g clip-path="url(#clip0_2139_1114)">
<path d="M42.1174 24.6617C41.8371 24.2412 41.4166 23.9609 40.856 23.9609C37.7727 23.9609 34.8296 25.3624 33.0076 27.8852L31.7463 29.567C30.2046 31.3889 27.822 32.37 25.4395 32.37H21.235C20.3941 32.37 19.8335 31.8094 19.8335 30.9685C19.8335 30.1276 20.3941 29.567 21.235 29.567H23.8978C26.1402 29.567 28.2425 27.745 28.2425 25.5026V25.3624C28.2425 24.6617 27.5417 23.9609 26.841 23.9609H18.2918C13.2464 23.9609 9.18201 26.2033 6.9396 29.8473L3.15554 35.7336C2.87524 36.154 2.87524 36.7146 3.15554 37.1351L7.36006 44.1426C7.50021 44.4229 7.92066 44.7032 8.20096 44.8434C8.34111 44.8434 8.34111 44.8434 8.48126 44.8434C8.76156 44.8434 9.04186 44.7032 9.32217 44.5631C14.6479 41.0593 20.8145 39.2374 27.1213 39.2374C31.7463 39.2374 35.9508 36.7146 38.1932 32.6503L41.9772 25.923C42.2576 25.6427 42.2576 25.0821 42.1174 24.6617Z" fill="white"/>
<path d="M6.52023 25.3627C6.66038 25.3627 6.94068 25.3627 7.08083 25.3627C8.76264 23.821 10.8649 22.6998 13.1073 21.9991C12.9672 21.2983 12.827 20.4574 12.827 19.7567C12.827 13.59 17.8724 8.5446 24.0391 8.5446C30.2057 8.5446 35.2511 13.59 35.2511 19.7567C35.2511 20.7377 35.111 21.7188 34.8307 22.6998C36.6526 21.7188 38.7549 21.1582 40.8571 21.1582C41.8382 21.1582 42.8192 21.5786 43.52 22.1392C43.6601 21.2983 43.6601 20.5976 43.6601 19.7567C43.6601 18.215 43.52 16.6733 43.0995 15.1317C42.9594 14.4309 42.2586 14.0105 41.5579 14.0105C39.8761 14.2908 38.1943 13.4499 37.3534 11.9082C36.5125 10.5067 36.6526 8.5446 37.6337 7.28325C38.0541 6.72265 38.0541 5.88174 37.4935 5.46129C35.2511 3.35903 32.5882 1.81737 29.6451 0.976471C28.9443 0.83632 28.2436 1.11662 27.9633 1.81737C27.2625 3.35903 25.7209 4.34009 24.0391 4.34009C22.3572 4.34009 20.8156 3.35903 20.1148 1.81737C19.8345 1.11662 19.1338 0.69617 18.433 0.976471C15.4899 1.81737 12.827 3.35903 10.5846 5.60144C10.024 6.02189 10.024 6.8628 10.4444 7.4234C11.4255 8.8249 11.5656 10.6469 10.7247 12.0484C9.88384 13.4499 8.20204 14.2908 6.52023 14.1506C5.81947 14.0105 5.11872 14.5711 4.97857 15.2718C4.55812 16.6733 4.41797 18.215 4.41797 19.7567C4.41797 21.2983 4.55812 22.84 4.97857 24.3816C5.11872 25.0824 5.81947 25.5028 6.52023 25.3627Z" fill="white"/>
</g>
<defs>
<clipPath id="clip0_2139_1114">
<rect width="44.8482" height="44.8482" fill="white" transform="translate(0.214844 0.136719)"/>
</clipPath>
</defs>
</svg>
