<svg width="44" height="49" viewBox="0 0 44 49" fill="none" xmlns="http://www.w3.org/2000/svg">
<path d="M33.894 4.10091H32.7464C33.7027 3.27212 34.8503 2.82585 36.1253 2.82585C36.3166 2.82585 36.5078 2.82585 36.6991 2.8896C37.0179 2.95335 37.3366 2.69834 37.4004 2.31582C37.4641 1.99705 37.2091 1.67829 36.8266 1.61453C36.5716 1.55078 36.3803 1.55078 36.1253 1.55078C34.5952 1.55078 33.1289 2.12456 31.9814 3.08086V2.18831C31.9814 1.80579 31.7264 1.55078 31.3438 1.55078C30.9613 1.55078 30.7063 1.80579 30.7063 2.18831V4.73844C30.7063 5.12096 30.9613 5.37598 31.3438 5.37598H33.894C34.2765 5.37598 34.5315 5.12096 34.5315 4.73844C34.5315 4.35592 34.2765 4.10091 33.894 4.10091ZM32.9377 9.51994C32.5551 9.51994 32.3001 9.77495 32.3001 10.1575V11.305C31.4713 10.3487 31.0251 9.20117 31.0251 7.92611C31.0251 7.73485 31.0251 7.54359 31.0888 7.35233C31.1526 7.03356 30.8976 6.71479 30.515 6.65104C30.1963 6.58729 29.8775 6.8423 29.8138 7.22482C29.75 7.47983 29.75 7.67109 29.75 7.92611C29.75 9.45618 30.3238 10.9225 31.2801 12.0701H30.3875C30.005 12.0701 29.75 12.3251 29.75 12.7076C29.75 13.0901 30.005 13.3451 30.3875 13.3451H32.9377C33.1289 13.3451 33.3202 13.2176 33.4477 13.0901C33.4477 13.0264 33.5114 12.9626 33.5114 12.8989V10.1575C33.5752 9.77495 33.3202 9.51994 32.9377 9.51994ZM41.8631 3.78215C42.2456 3.78215 42.5007 3.52713 42.5007 3.14461C42.5007 2.76209 42.2456 2.50708 41.8631 2.50708H39.1855C39.1217 2.50708 39.058 2.57083 38.9942 2.57083C38.9305 2.63459 38.8667 2.63459 38.8667 2.69834C38.8667 2.76209 38.803 2.82585 38.803 2.82585V5.56724C38.803 5.94976 39.058 6.20477 39.4405 6.20477C39.823 6.20477 40.078 5.94976 40.078 5.56724V4.54718C40.9068 5.43973 41.3531 6.65104 41.3531 7.92611C41.3531 8.11737 41.3531 8.30863 41.2893 8.49989C41.2256 8.81865 41.4806 9.13742 41.8631 9.20117H41.9269C42.2456 9.20117 42.5007 8.94616 42.5644 8.62739C42.5644 8.37238 42.6282 8.18112 42.6282 7.92611C42.6282 6.39603 42.0544 4.9297 41.0981 3.78215H41.8631ZM41.4168 10.795L41.2256 10.6037C41.1618 10.54 41.0981 10.54 41.0343 10.54H38.3567C37.9742 10.54 37.7192 10.795 37.7192 11.1775C37.7192 11.56 37.9742 11.8151 38.3567 11.8151H39.5042C38.6117 12.6438 37.4004 13.0901 36.1253 13.0901C35.9341 13.0901 35.7428 13.0901 35.5515 13.0264C35.2328 12.9626 34.914 13.2176 34.8503 13.6001C34.7865 13.9827 35.0415 14.2377 35.424 14.3014C35.6791 14.3014 35.8703 14.3652 36.1253 14.3652C37.6554 14.3652 39.1217 13.7914 40.2693 12.8351V13.6639C40.2693 14.0464 40.5243 14.3014 40.9068 14.3014C41.2893 14.3014 41.5444 14.0464 41.5444 13.6639V11.1138C41.5444 10.9863 41.4806 10.8588 41.4168 10.795Z" fill="white"/>
<path d="M41.2097 16.4147C40.9865 16.2858 40.7333 16.2179 40.4755 16.2179C40.2177 16.2179 39.9645 16.2858 39.7412 16.4147L27.2147 22.6265V17.6629C27.2139 17.4126 27.1492 17.1666 27.0266 16.9484C26.9041 16.7301 26.7277 16.5468 26.5144 16.4158C26.301 16.2849 26.0578 16.2106 25.8076 16.2001C25.5575 16.1897 25.3089 16.2433 25.0853 16.3559L12.5294 22.6265V11.7888C12.5294 11.3994 12.3747 11.0258 12.0993 10.7504C11.8239 10.475 11.4504 10.3203 11.0609 10.3203H2.24977C1.8603 10.3203 1.48677 10.475 1.21137 10.7504C0.935969 11.0258 0.78125 11.3994 0.78125 11.7888V48.502H41.8999V17.6629C41.9004 17.4134 41.8373 17.1678 41.7166 16.9494C41.5958 16.731 41.4214 16.547 41.2097 16.4147ZM30.1517 45.5649H24.2776V35.2852H30.1517V45.5649ZM38.9629 45.5649H33.0888V33.8167C33.0888 33.4272 32.9341 33.0537 32.6587 32.7783C32.3833 32.5029 32.0097 32.3482 31.6203 32.3482H22.8091C22.4196 32.3482 22.0461 32.5029 21.7707 32.7783C21.4953 33.0537 21.3406 33.4272 21.3406 33.8167V45.5649H3.7183V13.2574H9.5924V27.3846L24.2776 20.0419V27.3846L38.9629 20.0419V45.5649Z" fill="white"/>
</svg>
