<svg width="50" height="57" viewBox="0 0 50 57" fill="none" xmlns="http://www.w3.org/2000/svg">
<g clip-path="url(#clip0_2147_787)">
<path fill-rule="evenodd" clip-rule="evenodd" d="M33.1799 18.281C33.37 18.3978 33.534 18.5525 33.6617 18.7355L34.9161 20.4671C35.0434 20.6457 35.1374 20.8459 35.1934 21.058C35.2389 21.2738 35.2389 21.4967 35.1934 21.7125C35.1661 21.9272 35.0999 22.1351 34.9979 22.3261C34.8808 22.5084 34.7258 22.6635 34.5434 22.7806L33.5208 23.5305C33.5208 23.5578 33.5208 23.5941 33.5208 23.6214C33.5708 23.8032 33.6117 23.9895 33.6526 24.1668C33.6526 24.1668 33.6526 24.1895 33.6526 24.1986C33.6935 24.3759 33.7208 24.5713 33.7481 24.7758V24.8486L34.8252 25.0258C35.0456 25.0576 35.2564 25.1367 35.4434 25.2576C35.6238 25.3771 35.7784 25.5317 35.8979 25.7121C36.0271 25.8867 36.1185 26.0864 36.166 26.2984C36.2069 26.5116 36.2069 26.7306 36.166 26.9438L35.9069 29.0845C35.8756 29.3034 35.7997 29.5135 35.6841 29.7019C35.5684 29.8903 35.4153 30.0529 35.2343 30.1799C35.0562 30.3099 34.8537 30.4026 34.6389 30.4526C34.4211 30.4936 34.1976 30.4936 33.9798 30.4526L32.7254 30.2617C32.7089 30.293 32.6907 30.3233 32.6709 30.3526C32.5754 30.5208 32.4663 30.6844 32.3618 30.848C32.2573 31.0116 32.1346 31.1798 32.0209 31.3025L31.98 31.3525L32.6027 32.2433L32.63 32.2752C32.7553 32.4537 32.842 32.6565 32.8845 32.8705C32.9255 33.0837 32.9255 33.3028 32.8845 33.5159C32.8489 33.7275 32.7749 33.9308 32.6663 34.1159C32.5488 34.3054 32.3942 34.4693 32.2118 34.5977L30.4847 35.8794C30.3099 36.0123 30.1107 36.1096 29.8984 36.1657C29.6783 36.2137 29.4504 36.2137 29.2303 36.1657C29.0087 36.1279 28.796 36.0493 28.6031 35.9339C28.4213 35.816 28.2664 35.6612 28.1486 35.4794L27.4214 34.4568C27.3882 34.4707 27.3528 34.4784 27.3168 34.4795C27.135 34.5204 26.9487 34.5704 26.7532 34.6113C26.5578 34.6522 26.3669 34.6795 26.1715 34.7067C26.1446 34.7135 26.1165 34.7135 26.0897 34.7067L25.9079 35.7839C25.8755 36.0027 25.7965 36.212 25.6761 36.3975C25.5571 36.5784 25.4024 36.733 25.2216 36.852C25.0457 36.9781 24.8463 37.0677 24.6352 37.1156C24.4235 37.1632 24.2049 37.1724 23.9898 37.1429L21.8537 36.7929C21.5257 36.7402 21.2209 36.591 20.9781 36.3643C20.7352 36.1377 20.5654 35.8439 20.4902 35.5203C20.4467 35.3043 20.4467 35.0818 20.4902 34.8658L20.6947 33.6114L20.6038 33.5569C20.4356 33.4569 20.272 33.3523 20.1084 33.2432C19.9448 33.1342 19.7766 33.0205 19.6539 32.9024L19.5448 32.8933L18.6631 33.5341H18.6312C18.4526 33.6595 18.2499 33.7462 18.0358 33.7887C17.8227 33.8298 17.6036 33.8298 17.3904 33.7887C17.1902 33.7629 16.9962 33.7013 16.8178 33.6068C16.6316 33.4963 16.4681 33.3513 16.336 33.1796L15.0861 31.4161C14.9577 31.2398 14.8636 31.0409 14.8089 30.8298C14.7559 30.6141 14.7481 30.3897 14.7861 30.1708C14.8134 29.9407 14.886 29.7182 14.9998 29.5163C15.1231 29.339 15.277 29.1851 15.4543 29.0618L16.4769 28.3346C16.4641 28.3011 16.4564 28.2659 16.4542 28.2301C16.4133 28.0528 16.3633 27.8619 16.3224 27.6665C16.2815 27.471 16.2451 27.2801 16.2269 27.0893V27.0074L15.1588 26.8302C14.9399 26.8014 14.7302 26.7237 14.5453 26.6029C14.3641 26.4843 14.2093 26.3296 14.0907 26.1484C13.9647 25.9725 13.875 25.7732 13.8271 25.5621C13.7796 25.3503 13.7704 25.1318 13.7999 24.9167L14.1498 22.7806C14.1842 22.5637 14.2598 22.3554 14.3725 22.167C14.4917 21.9787 14.646 21.8151 14.827 21.6852C15.0063 21.5543 15.2105 21.4615 15.427 21.4125C15.6432 21.3714 15.8652 21.3714 16.0815 21.4125L17.3314 21.617L17.3904 21.5261C17.4859 21.3625 17.595 21.1989 17.6995 21.0353C17.804 20.8716 17.9268 20.6989 18.0404 20.5808L18.0813 20.5262L17.4495 19.6172C17.317 19.4389 17.2241 19.2344 17.1768 19.0173C17.1241 18.803 17.1163 18.5802 17.1541 18.3628C17.1866 18.1426 17.2656 17.9319 17.3859 17.7447C17.5042 17.5569 17.6587 17.3947 17.8404 17.2674L19.5448 15.9948C19.7234 15.8675 19.9236 15.7736 20.1357 15.7176C20.3514 15.6721 20.5744 15.6721 20.7901 15.7176C21.0089 15.7555 21.2185 15.8342 21.4083 15.9494C21.5896 16.0677 21.7444 16.2225 21.8628 16.4039L22.6127 17.4265L22.6945 17.4038C22.8763 17.3492 23.0627 17.3129 23.2626 17.2629C23.4626 17.2129 23.6444 17.1947 23.8399 17.1674C23.8669 17.1629 23.8946 17.1629 23.9217 17.1674L24.0898 16.0675C24.1229 15.8475 24.2019 15.6369 24.3216 15.4494C24.4415 15.2693 24.596 15.1148 24.7761 14.9949C24.9525 14.8695 25.1517 14.78 25.3624 14.7313C25.5757 14.6832 25.7959 14.674 26.0124 14.704L28.144 15.054C28.3623 15.0883 28.5721 15.1639 28.7621 15.2767C28.952 15.3922 29.1147 15.5472 29.2394 15.7312C29.3697 15.9097 29.4639 16.112 29.5166 16.3266C29.5577 16.5444 29.5577 16.7679 29.5166 16.9856L29.3075 18.2355L29.3984 18.2901C29.5666 18.39 29.7302 18.4946 29.8939 18.6037C30.0575 18.7127 30.2256 18.8309 30.3484 18.9445L30.3984 18.9809L31.3074 18.3537C31.483 18.2195 31.6864 18.1263 31.9028 18.081C32.1185 18.0288 32.3424 18.0196 32.5618 18.0537C32.7792 18.0912 32.9875 18.1699 33.1754 18.2855V18.3082L33.1799 18.281ZM14.7952 38.1519C14.1453 37.411 13.4863 36.652 12.85 35.793C12.1408 34.8416 11.5316 33.8196 11.0319 32.7433C10.9683 32.6115 10.9092 32.4797 10.8501 32.3479C10.0619 30.6634 9.58017 28.8519 9.42754 26.9984C9.38663 26.5439 9.36845 26.053 9.373 25.5848V25.5258V25.4076C9.39719 24.1602 9.56804 22.92 9.88204 21.7125C10.2374 20.3624 10.7452 19.0572 11.3955 17.8219L11.4501 17.7174C12.2735 16.2999 13.3184 15.0232 14.5453 13.9359C15.6937 12.9318 16.9928 12.1143 18.3949 11.5134C20.0683 10.7375 21.8653 10.2621 23.7035 10.109C26.8049 9.85341 29.9122 10.5275 32.6288 12.0453C35.3455 13.5632 37.5485 15.8558 38.9567 18.6309L38.993 18.6946L39.0248 18.7627C39.1794 19.0718 39.3248 19.39 39.4566 19.7127L39.4839 19.7854V19.8126V19.849V19.8899C39.8156 20.7265 40.0741 21.5902 40.2565 22.4715V22.5124V22.5578V22.5942C40.4198 23.4046 40.5171 24.2269 40.5474 25.0531C40.695 27.8646 40.0777 30.6636 38.7612 33.1523L49.2785 42.6151L44.997 47.242L35.107 38.3019L32.1346 43.0424L31.7664 44.774L31.6528 46.2057L31.6891 48.051C31.7436 48.6709 31.7436 49.2945 31.6891 49.9145C31.6377 50.5749 31.4844 51.2234 31.2346 51.837C31.1688 52.0169 31.093 52.1929 31.0074 52.3642C30.2949 53.8424 29.0872 55.0243 27.5941 55.7048C26.8428 56.055 26.0288 56.2507 25.2004 56.2804C24.3721 56.3101 23.5462 56.1731 22.7718 55.8776C22.6082 55.8139 22.4491 55.7457 22.3173 55.673L22.2536 55.6367C21.4352 55.2486 20.7238 54.6666 20.1811 53.9414L20.1311 53.8686C19.6791 53.2181 19.2996 52.5201 18.9994 51.787C18.9641 51.7105 18.9396 51.6294 18.9267 51.5461C18.7665 50.9334 18.6466 50.311 18.5676 49.6827C18.504 49.1373 18.4858 48.5737 18.4722 47.7419C18.3967 45.9985 18.0215 44.2812 17.3632 42.6651C16.7669 41.0271 15.8988 39.5013 14.7952 38.1519ZM21.1992 51.5052L29.4939 50.2735C29.5303 50.0917 29.5575 49.9054 29.5757 49.719C29.6166 49.2123 29.6166 48.7031 29.5757 48.1964V47.701L20.6356 49.0282C20.6356 49.16 20.6583 49.2918 20.672 49.4236C20.7402 49.9519 20.8404 50.4755 20.9719 50.9916L21.1992 51.5007V51.5052ZM28.4985 52.3779L22.4491 53.2869C22.6731 53.466 22.9171 53.6185 23.1763 53.7414H23.2217L23.5353 53.8777C24.0469 54.071 24.5921 54.1597 25.1385 54.1386C25.685 54.1175 26.2217 53.9871 26.7169 53.755C27.4161 53.4365 28.0298 52.9568 28.5076 52.3551L28.4985 52.3779ZM20.5629 47.0784L29.5439 45.7421L29.6393 44.5468C29.6349 44.4999 29.6349 44.4527 29.6393 44.4059L29.8484 43.6059L20.2675 45.0194C20.4126 45.6982 20.5113 46.3861 20.5629 47.0784ZM19.7675 43.1514L30.5938 41.5425L31.6346 39.879C29.5718 40.841 27.3244 41.3426 25.0483 41.3489C22.7722 41.3552 20.522 40.866 18.454 39.9154C18.7812 40.5653 19.0812 41.2425 19.363 41.9288C19.5221 42.3333 19.663 42.7424 19.8175 43.1514H19.7675ZM48.3376 22.0897C48.7417 22.0665 49.1392 22.2 49.4473 22.4625C49.7555 22.7249 49.9506 23.096 49.992 23.4987V23.5669C50.0171 23.9588 49.8919 24.3456 49.6421 24.6486C49.3804 24.9717 49.0011 25.1777 48.5876 25.2212L44.8561 25.6121C44.6511 25.6339 44.4438 25.6146 44.2464 25.5553C44.0489 25.496 43.8653 25.3979 43.7062 25.2667C43.5457 25.1366 43.4125 24.9761 43.3142 24.7943C43.2159 24.6126 43.1545 24.4132 43.1336 24.2077C43.1121 24.0034 43.1316 23.7969 43.1909 23.6002C43.2503 23.4036 43.3482 23.2207 43.479 23.0623C43.608 22.898 43.7685 22.761 43.9511 22.6596C44.1338 22.5581 44.3348 22.4942 44.5425 22.4715C45.797 22.3397 47.0877 22.1715 48.3376 22.0715V22.0897ZM1.59643 27.0983C1.1887 27.1063 0.794009 26.9546 0.496531 26.6757C0.264456 26.4643 0.101169 26.1881 0.0278025 25.8829C-0.0455639 25.5777 -0.0256317 25.2575 0.0850193 24.9637C0.19567 24.6699 0.391946 24.4161 0.648443 24.2352C0.90494 24.0542 1.20985 23.9544 1.52371 23.9486L5.26882 23.8214C5.47477 23.8147 5.68001 23.8487 5.87281 23.9214C6.06561 23.9941 6.24219 24.1041 6.39246 24.245C6.54273 24.386 6.66374 24.5553 6.74858 24.743C6.83341 24.9308 6.8804 25.1335 6.88686 25.3394V25.4258C6.88335 25.8165 6.73238 26.1915 6.46417 26.4757C6.17849 26.7785 5.78491 26.9566 5.36881 26.9711C4.11438 27.0074 2.84632 27.0802 1.59643 27.0983ZM6.19147 8.25915C5.8865 7.97588 5.70655 7.58306 5.6912 7.1671C5.67586 6.75115 5.82638 6.34614 6.10966 6.04117C6.39293 5.7362 6.78575 5.55625 7.2017 5.54091C7.61765 5.52556 8.02267 5.67609 8.32764 5.95936L11.0547 8.51822C11.3596 8.80149 11.5396 9.19431 11.5549 9.61026C11.5703 10.0262 11.4197 10.4312 11.1365 10.7362C10.8532 11.0412 10.4604 11.2211 10.0444 11.2365C9.62847 11.2518 9.22346 11.1013 8.91849 10.818L6.19147 8.25915ZM24.8261 1.97336C24.8237 1.9431 24.8237 1.91271 24.8261 1.88246C24.854 1.48223 25.0347 1.10804 25.3308 0.837325C25.6269 0.566607 26.0158 0.420073 26.4169 0.428043H26.5123C26.9098 0.458053 27.2809 0.638272 27.5502 0.932068C27.8195 1.22586 27.9668 1.61119 27.9622 2.00972C27.9646 2.03542 27.9646 2.06128 27.9622 2.08698L27.8713 5.75938C27.8736 5.79115 27.8736 5.82305 27.8713 5.85482C27.8419 6.24203 27.6703 6.60467 27.3895 6.87291C27.2445 7.01775 27.0723 7.13247 26.8827 7.21047C26.6932 7.28847 26.4901 7.32822 26.2851 7.32742C26.255 7.33196 26.2243 7.33196 26.1942 7.32742C25.8049 7.30086 25.4399 7.12889 25.1716 6.84564C24.8814 6.55298 24.7181 6.15786 24.7171 5.74574C24.7149 5.72003 24.7149 5.69418 24.7171 5.66848L24.808 1.99608L24.8261 1.97336ZM41.0065 7.07289C41.2402 6.73536 41.5951 6.50094 41.9973 6.41841C42.1997 6.37844 42.408 6.37915 42.6101 6.42051C42.8122 6.46187 43.0041 6.54304 43.1745 6.6593C43.5157 6.89226 43.7523 7.24953 43.8335 7.65466C43.8736 7.8563 43.873 8.06393 43.8316 8.26532C43.7902 8.46671 43.709 8.65778 43.5926 8.82728L41.511 11.9452C41.3965 12.1166 41.2493 12.2638 41.0779 12.3783C40.9065 12.4928 40.7142 12.5724 40.512 12.6125C40.3098 12.6526 40.1016 12.6525 39.8995 12.612C39.6973 12.5716 39.5051 12.4917 39.3339 12.377C39.1606 12.2643 39.0114 12.1184 38.8947 11.9478C38.778 11.7772 38.6961 11.5853 38.6539 11.3829C38.6117 11.1806 38.6098 10.9719 38.6485 10.7689C38.6872 10.5659 38.7657 10.3725 38.8794 10.1999L40.9747 7.06835L41.0065 7.07289ZM15.9088 36.1839L16.0497 36.3021C18.5718 38.4375 21.7726 39.6037 25.0773 39.5912C28.382 39.5787 31.5739 38.3883 34.0798 36.2339C35.4928 34.6501 36.6297 32.8402 37.4432 30.8798L37.4659 30.8253C37.8335 29.9228 38.112 28.9867 38.2976 28.0301C38.468 27.1116 38.5426 26.1779 38.5203 25.244C38.4967 24.407 38.3916 23.5744 38.2067 22.7578C38.0337 21.9815 37.7949 21.2212 37.4932 20.4853C36.9838 19.238 36.2678 18.0856 35.3752 17.0765C34.4387 16.0265 33.3437 15.1294 32.13 14.4177C31.1892 13.8623 30.1891 13.4141 29.1485 13.0814C28.0951 12.7512 27.0082 12.5393 25.9079 12.4497C24.7919 12.3474 23.6678 12.3749 22.5582 12.5315C21.5256 12.6802 20.5141 12.9502 19.5448 13.336L19.463 13.3769C18.1826 13.8939 16.9981 14.6222 15.9588 15.5312C14.9088 16.4562 14.0128 17.5424 13.3045 18.7491L13.2817 18.79C12.6992 19.8861 12.2433 21.045 11.9228 22.2442C11.6361 23.3228 11.4834 24.4326 11.4683 25.5485C11.4621 26.62 11.5858 27.6882 11.8364 28.73C12.0928 29.8038 12.4583 30.8485 12.9272 31.8479C13.3752 32.7895 13.9173 33.6834 14.5453 34.5159C14.9998 35.1022 15.4543 35.643 15.8815 36.1702L15.9088 36.1839ZM24.9988 19.7899C26.2124 19.7899 27.3987 20.1498 28.4077 20.824C29.4167 21.4982 30.2032 22.4565 30.6676 23.5777C31.132 24.6988 31.2535 25.9325 31.0168 27.1228C30.78 28.313 30.1956 29.4063 29.3375 30.2644C28.4794 31.1225 27.3861 31.7069 26.1959 31.9436C25.0057 32.1804 23.7719 32.0589 22.6508 31.5945C21.5296 31.1301 20.5713 30.3436 19.8971 29.3346C19.2229 28.3256 18.863 27.1393 18.863 25.9257C18.863 24.2984 19.5095 22.7377 20.6602 21.5871C21.8109 20.4364 23.3715 19.7899 24.9988 19.7899Z" fill="white"/>
</g>
<defs>
<clipPath id="clip0_2147_787">
<rect width="50" height="55.8495" fill="white" transform="translate(0 0.425781)"/>
</clipPath>
</defs>
</svg>
