<svg width="24" height="25" viewBox="0 0 24 25" fill="none" xmlns="http://www.w3.org/2000/svg">
<g clip-path="url(#clip0_2146_4433)">
<path d="M12 6.5C11.2089 6.5 10.4355 6.7346 9.77772 7.17412C9.11993 7.61365 8.60723 8.23836 8.30448 8.96927C8.00173 9.70017 7.92252 10.5044 8.07686 11.2804C8.2312 12.0563 8.61216 12.769 9.17157 13.3284C9.73098 13.8878 10.4437 14.2688 11.2196 14.4231C11.9956 14.5775 12.7998 14.4983 13.5307 14.1955C14.2616 13.8928 14.8864 13.3801 15.3259 12.7223C15.7654 12.0645 16 11.2911 16 10.5C16 9.43913 15.5786 8.42172 14.8284 7.67157C14.0783 6.92143 13.0609 6.5 12 6.5ZM12 12.5C11.6044 12.5 11.2178 12.3827 10.8889 12.1629C10.56 11.9432 10.3036 11.6308 10.1522 11.2654C10.0009 10.8999 9.96126 10.4978 10.0384 10.1098C10.1156 9.72186 10.3061 9.36549 10.5858 9.08579C10.8655 8.80608 11.2219 8.6156 11.6098 8.53843C11.9978 8.46126 12.3999 8.50087 12.7654 8.65224C13.1308 8.80362 13.4432 9.05996 13.6629 9.38886C13.8827 9.71776 14 10.1044 14 10.5C14 11.0304 13.7893 11.5391 13.4142 11.9142C13.0391 12.2893 12.5304 12.5 12 12.5Z" fill="white"/>
<path d="M12.0003 24.5001C11.1583 24.5044 10.3274 24.3069 9.57738 23.9241C8.82733 23.5413 8.17991 22.9844 7.68931 22.3C3.87831 17.043 1.94531 13.091 1.94531 10.553C1.94531 7.8863 3.00468 5.32877 4.89035 3.44309C6.77603 1.55741 9.33356 0.498047 12.0003 0.498047C14.6671 0.498047 17.2246 1.55741 19.1103 3.44309C20.9959 5.32877 22.0553 7.8863 22.0553 10.553C22.0553 13.091 20.1223 17.043 16.3113 22.3C15.8207 22.9844 15.1733 23.5413 14.4232 23.9241C13.6732 24.3069 12.8424 24.5044 12.0003 24.5001V24.5001ZM12.0003 2.68105C9.91273 2.68343 7.91133 3.51377 6.43518 4.98992C4.95904 6.46606 4.12869 8.46746 4.12631 10.555C4.12631 12.565 6.01931 16.282 9.45531 21.0211C9.74701 21.4228 10.1297 21.7498 10.572 21.9753C11.0144 22.2008 11.5038 22.3183 12.0003 22.3183C12.4968 22.3183 12.9863 22.2008 13.4286 21.9753C13.8709 21.7498 14.2536 21.4228 14.5453 21.0211C17.9813 16.282 19.8743 12.565 19.8743 10.555C19.8719 8.46746 19.0416 6.46606 17.5654 4.98992C16.0893 3.51377 14.0879 2.68343 12.0003 2.68105V2.68105Z" fill="white"/>
</g>
<defs>
<clipPath id="clip0_2146_4433">
<rect width="24" height="24" fill="white" transform="translate(0 0.5)"/>
</clipPath>
</defs>
</svg>
