<svg width="50" height="51" viewBox="0 0 50 51" fill="none" xmlns="http://www.w3.org/2000/svg">
<path d="M38.3443 8.79688L33.3234 13.8177V14.1927L38.3443 19.2135H45.8234V23.3802H36.6359L33.3234 20.0677V25.4635H31.2401C30.135 25.4635 29.0752 25.0246 28.2938 24.2432C27.5124 23.4618 27.0734 22.4019 27.0734 21.2969V16.0885H20.5318C20.3443 16.8594 20.0318 17.5885 19.6151 18.276L31.6151 40.0469H41.6568C42.7618 40.0469 43.8216 40.4859 44.603 41.2673C45.3844 42.0487 45.8234 43.1085 45.8234 44.2135V46.2969H4.15676V44.2135C4.15676 43.1085 4.59575 42.0487 5.37715 41.2673C6.15855 40.4859 7.21836 40.0469 8.32343 40.0469H22.0943L12.3234 22.3385C10.4991 22.3077 8.73511 21.6798 7.30155 20.551C5.868 19.4222 4.84387 17.8548 4.38593 16.0885C4.11385 15.027 4.05382 13.9222 4.20927 12.8374C4.36473 11.7526 4.73261 10.7092 5.29187 9.76677C5.85112 8.82435 6.59077 8.0015 7.46845 7.34531C8.34614 6.68913 9.34463 6.2125 10.4068 5.94271C14.8443 4.79688 19.3859 7.46354 20.5318 11.9219H27.0734V6.71354C27.0734 5.60847 27.5124 4.54867 28.2938 3.76726C29.0752 2.98586 30.135 2.54688 31.2401 2.54688H33.3234V7.94271L36.6359 4.63021H45.8234V8.79688H38.3443ZM12.4901 9.83854C11.385 9.83854 10.3252 10.2775 9.54382 11.0589C8.76241 11.8403 8.32343 12.9001 8.32343 14.0052C8.32343 15.1103 8.76241 16.1701 9.54382 16.9515C10.3252 17.7329 11.385 18.1719 12.4901 18.1719C13.5952 18.1719 14.655 17.7329 15.4364 16.9515C16.2178 16.1701 16.6568 15.1103 16.6568 14.0052C16.6568 12.9001 16.2178 11.8403 15.4364 11.0589C14.655 10.2775 13.5952 9.83854 12.4901 9.83854Z" fill="white"/>
</svg>
