<svg width="54" height="41" viewBox="0 0 54 41" fill="none" xmlns="http://www.w3.org/2000/svg">
<path d="M41.2444 10.013V12.6483C41.2444 12.823 41.1794 12.9906 41.0637 13.1141C40.948 13.2377 40.7911 13.3071 40.6275 13.3071H38.777C38.6134 13.3071 38.4565 13.2377 38.3408 13.1141C38.2251 12.9906 38.1602 12.823 38.1602 12.6483V10.013C38.1602 9.83829 38.2251 9.67071 38.3408 9.54716C38.4565 9.42361 38.6134 9.3542 38.777 9.3542H40.6275C40.7911 9.3542 40.948 9.42361 41.0637 9.54716C41.1794 9.67071 41.2444 9.83829 41.2444 10.013ZM45.5623 8.03658H43.7118C43.5482 8.03658 43.3913 8.10599 43.2756 8.22954C43.1599 8.35309 43.0949 8.52067 43.0949 8.69539V12.6483C43.0949 12.823 43.1599 12.9906 43.2756 13.1141C43.3913 13.2377 43.5482 13.3071 43.7118 13.3071H45.5623C45.7259 13.3071 45.8828 13.2377 45.9985 13.1141C46.1142 12.9906 46.1792 12.823 46.1792 12.6483V8.69539C46.1792 8.52067 46.1142 8.35309 45.9985 8.22954C45.8828 8.10599 45.7259 8.03658 45.5623 8.03658ZM50.4971 5.40134H48.6466C48.483 5.40134 48.3261 5.47075 48.2104 5.5943C48.0947 5.71785 48.0297 5.88542 48.0297 6.06015V12.6483C48.0297 12.823 48.0947 12.9906 48.2104 13.1141C48.3261 13.2377 48.483 13.3071 48.6466 13.3071H50.4971C50.6607 13.3071 50.8176 13.2377 50.9333 13.1141C51.049 12.9906 51.1139 12.823 51.1139 12.6483V6.06015C51.1139 5.88542 51.049 5.71785 50.9333 5.5943C50.8176 5.47075 50.6607 5.40134 50.4971 5.40134ZM49.2634 3.58302C49.2828 3.66954 49.318 3.75112 49.367 3.82311C49.416 3.89509 49.4777 3.95607 49.5488 4.00256C49.6198 4.04906 49.6987 4.08015 49.781 4.09408C49.8632 4.108 49.9473 4.10448 50.0283 4.08372C50.1093 4.06296 50.1857 4.02536 50.2531 3.97306C50.3205 3.92077 50.3776 3.85481 50.4211 3.77896C50.4646 3.7031 50.4938 3.61882 50.5068 3.53095C50.5198 3.44307 50.5165 3.35331 50.4971 3.2668L49.8802 0.631555V0.572262C49.8606 0.517045 49.8358 0.464075 49.8062 0.414148L49.7569 0.361443C49.7224 0.318923 49.6831 0.281284 49.6397 0.249445H49.5965C49.5354 0.194234 49.4639 0.153782 49.3868 0.130859H49.3004H46.796C46.6324 0.130859 46.4755 0.20027 46.3598 0.32382C46.2442 0.447371 46.1792 0.614942 46.1792 0.78967C46.1792 0.964397 46.2442 1.13197 46.3598 1.25552C46.4755 1.37907 46.6324 1.44848 46.796 1.44848H48.1099C45.4389 5.19711 40.5659 6.06015 38.777 6.06015C38.6134 6.06015 38.4565 6.12956 38.3408 6.25311C38.2251 6.37666 38.1602 6.54423 38.1602 6.71896C38.1602 6.89369 38.2251 7.06126 38.3408 7.18481C38.4565 7.30836 38.6134 7.37777 38.777 7.37777C40.7262 7.37777 46.0003 6.42909 48.9982 2.36423L49.2634 3.58302Z" fill="white"/>
<path d="M10.1689 8.59243C11.0456 7.55802 12.8156 6.71875 14.1223 6.71875H24.0308C25.336 6.71875 27.2601 7.37261 28.3264 8.17991L38.5819 15.9443C45.3565 15.1298 51.5219 15.9333 53.4453 16.4196C53.4453 16.4196 44.101 24.3851 40.9276 28.9636C37.8165 33.4521 30.3352 44.8984 17.7554 38.5143C21.9862 30.7974 33.4954 24.7928 35.5376 23.7771C35.7094 23.6929 35.8486 23.4765 35.8486 23.2932C35.8486 23.1066 35.7077 23.0183 35.5312 23.0917C33.4026 24.0041 21.8915 29.1052 16.8543 36.7761C16.6458 33.6928 17.005 25.9494 24.8094 20.6308C27.7879 18.6023 31.2593 17.3419 34.7474 16.5859L27.2277 11.0436C26.1535 10.2501 24.5326 10.4076 23.6086 11.3947L16.4512 19.0398C15.5271 20.0256 13.7202 20.8252 12.4126 20.8252L2.18559 18.9467C0.878983 18.9467 0.529839 18.1066 1.40695 17.072L10.1689 8.59243Z" fill="white"/>
<path d="M11.1055 28.7018L7.63082 27.8789V23.9609L11.1055 24.7853V28.7018Z" fill="white"/>
<path d="M5.64062 27.4285L2.16598 26.6024V22.6875L5.64062 23.512V27.4285Z" fill="white"/>
<path d="M11.1055 34.3336L7.63082 33.5081V29.5938L11.1055 30.4178V34.3336Z" fill="white"/>
<path d="M5.64062 33.0588L2.16598 32.2342V28.3184L5.64062 29.1419V33.0588Z" fill="white"/>
</svg>
