<svg width="61" height="61" viewBox="0 0 61 61" fill="none" xmlns="http://www.w3.org/2000/svg">
<g clip-path="url(#clip0_2147_803)">
<path d="M35.6055 40.7691H39.0905V44.2541H35.6055V40.7691ZM47.6521 40.7691H51.1371V44.2541H47.6521V40.7691ZM44.7288 28.4091V24.9258H39.8988V26.6224L41.7005 28.4108L44.7288 28.4091Z" fill="white"/>
<path d="M56.6714 47.2422V39.8939H57.7798L58.8098 38.8756L46.6064 26.6722H45.0914V28.7872H41.5414L39.4264 26.6722H33.5664L21.3764 38.8622L22.4064 39.8922H24.0381V47.2406H20.8531C16.0898 42.6839 14.8231 32.3489 15.2681 24.6606L15.3464 24.5039H15.3848C17.4681 24.5039 19.3148 25.5139 20.4648 27.0706L20.4764 27.0872C21.3431 28.2589 21.8648 29.7339 21.8648 31.3289C21.8648 32.4289 21.6181 33.4706 21.1748 34.4022L21.1931 34.3589C22.1232 34.1207 22.9879 33.6764 23.7231 33.0589L23.7131 33.0672C24.4786 32.4009 25.0921 31.578 25.5122 30.6542C25.9323 29.7303 26.1491 28.7271 26.1481 27.7122C26.1481 26.1206 25.6248 24.6522 24.7414 23.4689L24.7548 23.4872C23.9968 22.4303 22.925 21.6393 21.6916 21.2266C20.4582 20.814 19.1261 20.8008 17.8848 21.1889L17.9281 21.1772C18.3698 20.9022 18.8781 20.6589 19.4131 20.4739L19.4664 20.4572C20.1936 20.1886 20.9629 20.0526 21.7381 20.0556C23.5431 20.0556 25.1781 20.7772 26.3731 21.9456L26.3714 21.9439C26.5485 21.0091 26.4953 20.0452 26.2164 19.1356L26.2281 19.1772C25.9517 18.3666 25.5132 17.6207 24.9393 16.985C24.3654 16.3492 23.6681 15.837 22.8899 15.4795C22.1116 15.1219 21.2687 14.9265 20.4126 14.9052C19.5564 14.8839 18.7048 15.0372 17.9098 15.3556L17.9514 15.3406C17.5493 15.4792 17.1581 15.648 16.7814 15.8456L16.8298 15.8222C16.7163 15.301 16.5481 14.7932 16.3281 14.3072L16.3481 14.3556C14.8814 11.0672 11.5181 9.51389 8.82975 10.8722C8.10375 11.2434 7.47994 11.7871 7.01309 12.4556L7.00309 12.4722C7.94926 12.5651 8.86068 12.8775 9.66478 13.3848C10.4689 13.892 11.1434 14.58 11.6348 15.3939L11.6498 15.4206C11.0261 15.1083 10.366 14.8749 9.68475 14.7256L9.62809 14.7156C5.49475 13.8272 1.56142 16.0722 0.856421 19.7406C0.668049 20.7469 0.730442 21.7841 1.03809 22.7606L1.02642 22.7172C1.95068 21.6679 3.1469 20.8944 4.48303 20.4821C5.81916 20.0697 7.24325 20.0346 8.59809 20.3806L8.54475 20.3689C9.22642 20.5122 9.82975 20.7189 10.3948 20.9906L10.3464 20.9689C8.99422 20.7888 7.61903 21.0161 6.39671 21.6217C5.17439 22.2274 4.16052 23.1839 3.48475 24.3689L3.46642 24.4022C2.76087 25.5908 2.39053 26.9483 2.39475 28.3306C2.39475 30.9439 3.68975 33.2539 5.67475 34.6539L5.69975 34.6706C6.5539 35.2441 7.52843 35.6136 8.54809 35.7506L8.58309 35.7539C7.84776 34.5355 7.46093 33.1386 7.46475 31.7156C7.46475 30.2606 7.85975 28.8972 8.54975 27.7289L8.52975 27.7656C9.04235 26.8733 9.7452 26.1049 10.5883 25.5149C11.4315 24.925 12.3942 24.528 13.4081 24.3522L13.4498 24.3456C11.0881 35.1006 10.4348 42.5939 12.3831 47.2389H6.70642V50.3722H60.2864V47.2389H56.6714V47.2422ZM43.4214 40.0639H55.3648V47.2422H43.4214V40.0639ZM25.3198 38.6406L33.5698 30.3906L41.8198 38.6406V47.2422H32.7614V40.7689H28.1798V47.2422H25.3098V38.6406H25.3198Z" fill="white"/>
</g>
<defs>
<clipPath id="clip0_2147_803">
<rect width="60" height="60" fill="white" transform="translate(0.75 0.388672)"/>
</clipPath>
</defs>
</svg>
