<svg width="50" height="43" viewBox="0 0 50 43" fill="none" xmlns="http://www.w3.org/2000/svg">
<path d="M40.4657 33.9202C42.9813 35.3914 44.4182 38.0127 44.2381 40.6339C44.1174 42.2321 44.058 42.2976 42.1421 42.5533C40.9447 42.7457 33.3998 42.8091 25.6173 42.8091C16.8156 42.8091 7.59619 42.6168 6.93711 42.4244C4.30272 41.7205 5.73966 36.6049 9.21322 34.176C11.907 32.322 17.4153 29.5084 18.9135 29.1872C20.9501 28.7391 21.1896 27.3967 18.9135 23.0484C18.3751 22.0887 17.7755 19.1482 17.7161 16.0789C17.6567 11.0901 18.5552 7.70149 22.6266 6.03993C23.4657 5.72071 24.303 5.5918 25.0809 5.5918C27.7746 5.5918 30.2902 7.18992 31.3076 9.55744C32.8039 12.6903 32.2062 21.0676 30.6485 24.0736C28.8514 27.4622 29.0315 28.5508 31.0087 29.1258C32.3269 29.5105 36.3982 31.5567 40.4695 33.9222L40.4657 33.9202ZM7.89507 32.0028C6.93711 32.7067 6.03854 33.601 5.32008 34.4972C3.04396 34.4972 1.30814 34.4338 1.12804 34.3683C-0.368288 33.9836 0.468969 31.0431 2.4462 29.7642C3.94253 28.7411 6.9965 27.143 7.83568 26.9506C8.91434 26.6948 9.15383 25.9909 7.83568 23.562C7.53679 23.0505 7.1766 21.3869 7.1766 19.6619C7.11721 16.8483 7.65558 14.9289 9.93169 14.0981C11.8476 13.3307 14.003 14.2904 14.7809 16.0175C15.5587 17.808 15.1411 22.412 14.3019 24.0756C13.3439 26.0585 13.524 26.57 14.6008 26.8892C14.8403 26.9527 15.3193 27.2085 15.9783 27.5297C13.3439 28.6818 9.75159 30.7915 7.89507 32.0069V32.0028ZM47.2921 29.5719C48.729 30.4027 49.5069 31.8105 49.3881 33.2817C49.3287 34.178 49.3287 34.2414 48.2501 34.3683C47.9512 34.4317 46.5736 34.4972 44.7765 34.4972C43.9986 33.4107 42.92 32.3875 41.6037 31.6836C39.1495 30.1489 36.1549 28.4853 33.9401 27.4622C34.5398 27.2064 35.0781 27.0141 35.3176 26.9506C36.4557 26.6948 36.6358 25.9909 35.3176 23.562C35.0781 23.0505 34.6585 21.3869 34.6585 19.6619C34.5991 16.8483 35.0781 14.9289 37.3523 14.0981C39.3276 13.3307 41.483 14.2904 42.2015 16.0175C42.9794 17.808 42.6805 22.412 41.8413 24.0756C40.8834 26.0585 41.0022 26.57 42.0214 26.8892C42.7399 27.145 45.016 28.2971 47.2902 29.576L47.2921 29.5719Z" fill="white"/>
<path d="M44.5761 1.64286L43.1074 0.0742188L36.8319 6.77405L34.2187 3.98564L32.75 5.55428L36.8319 9.91388L44.5761 1.64286Z" fill="white"/>
</svg>
